<?xml version="1.0" encoding="UTF-8" standalone="no"?>
<svg xmlns:rdf="http://www.w3.org/1999/02/22-rdf-syntax-ns#" xmlns="http://www.w3.org/2000/svg" height="1052.4" width="744.09" version="1.1" xmlns:cc="http://creativecommons.org/ns#" xmlns:xlink="http://www.w3.org/1999/xlink" xmlns:dc="http://purl.org/dc/elements/1.1/">
 <defs>
  <radialGradient id="c" gradientUnits="userSpaceOnUse" cy="37.572" cx="64.597" gradientTransform="matrix(1.3174 0 0 1.3174 -20.58 -12.043)" r="9.25">
   <stop stop-color="#fff" offset="0"/>
   <stop stop-color="#fff" stop-opacity=".49804" offset=".55952"/>
   <stop stop-color="#fff" stop-opacity="0" offset="1"/>
  </radialGradient>
  <radialGradient id="b" gradientUnits="userSpaceOnUse" cy="10.902" cx="59.787" gradientTransform="matrix(0 -1.6866 1.6634 0 41.654 111.74)" r="10.556">
   <stop stop-color="#fbfbfa" offset="0"/>
   <stop stop-color="#d3d7cf" offset="1"/>
  </radialGradient>
  <radialGradient id="a" gradientUnits="userSpaceOnUse" cy="-2.6937" cx="45.095" gradientTransform="matrix(0 1.9259 -2.1007 -.0000021030 39.436 -89.543)" r="10.498">
   <stop stop-color="#fff" offset="0"/>
   <stop stop-color="#eeeeec" offset="1"/>
  </radialGradient>
  <linearGradient id="i" y2="4.5" gradientUnits="userSpaceOnUse" x2="62.955" y1="4.5" x1="42.045">
   <stop stop-color="#8c8b83" offset="0"/>
   <stop stop-color="#24221b" offset="1"/>
  </linearGradient>
  <linearGradient id="h" y2="35.412" gradientUnits="userSpaceOnUse" x2="-19.562" y1="32" x1="-19.562">
   <stop stop-color="#fff" offset="0"/>
   <stop stop-color="#fff" stop-opacity="0" offset="1"/>
  </linearGradient>
  <linearGradient id="g" y2="-2104.9" gradientUnits="userSpaceOnUse" x2="-2596.4" gradientTransform="matrix(.35401 0 0 .35044 1142.3 1477)" y1="-2128.6" x1="-2585.9">
   <stop stop-color="#dcdcdc" offset="0"/>
   <stop stop-color="#fff" offset="1"/>
  </linearGradient>
  <filter id="j" style="color-interpolation-filters:sRGB" height="1.3315" width="1.3481" y="-.16576" x="-.17407">
   <feGaussianBlur stdDeviation="0.82320991"/>
  </filter>
  <linearGradient id="f" y2="-2125.2" gradientUnits="userSpaceOnUse" x2="-2589.3" gradientTransform="matrix(.31920 0 0 .31597 1052.3 1403.6)" y1="-2130.1" x1="-2584.4">
   <stop stop-color="#fff" offset="0"/>
   <stop stop-color="#dcdcdc" offset="1"/>
  </linearGradient>
  <linearGradient id="e" y2="864.59" gradientUnits="userSpaceOnUse" x2="318.68" gradientTransform="matrix(.088520 0 0 .041832 -698.25 360.62)" y1="863.3" x1="348.72">
   <stop stop-color="#d4aa00" offset="0"/>
   <stop stop-color="#fea" offset="1"/>
  </linearGradient>
  <linearGradient id="d" y2="791.12" gradientUnits="userSpaceOnUse" x2="343.89" gradientTransform="matrix(-.067239 -.065994 -.041412 .042520 264.43 726.53)" y1="791.28" x1="333.49">
   <stop stop-color="#3c3c3c" stop-opacity=".99608" offset="0"/>
   <stop stop-color="#b3b3b3" stop-opacity="0" offset="1"/>
  </linearGradient>
 </defs>
 <metadata>
  <rdf:RDF>
   <cc:Work rdf:about="">
    <dc:format>image/svg+xml</dc:format>
    <dc:type rdf:resource="http://purl.org/dc/dcmitype/StillImage"/>
    <dc:title/>
   </cc:Work>
  </rdf:RDF>
 </metadata>
 <g transform="translate(-154.57 -631.83)">
  <g transform="matrix(.96062 0 0 .96062 7.2953 29.329)">
   <path style="color:#000000" d="m76 39.75c0 5.109-4.141 9.25-9.25 9.25s-9.25-4.141-9.25-9.25c0-5.1086 4.1414-9.25 9.25-9.25s9.25 4.1414 9.25 9.25z" transform="matrix(.44719 0 0 .44701 161.83 716.75)" fill="url(#c)"/>
   <path style="color:#000000" d="m62.5 4.5c0 5.5228-4.4772 10-10 10s-10-4.4772-10-10 4.4772-10 10-10 10 4.4772 10 10z" transform="matrix(.53690 0 0 .53745 163.5 732.11)" stroke="url(#b)" stroke-linecap="round" stroke-width="2.5677" fill="none"/>
   <path style="color:#000000" d="m62.5 4.5c0 5.5228-4.4772 10-10 10s-10-4.4772-10-10 4.4772-10 10-10 10 4.4772 10 10z" transform="matrix(.55352 0 0 .55213 162.62 732.04)" stroke="url(#a)" stroke-linecap="round" stroke-width=".99801" fill="none"/>
   <path style="color:#000000" d="m62.5 4.5c0 5.5228-4.4772 10-10 10s-10-4.4772-10-10 4.4772-10 10-10 10 4.4772 10 10z" transform="matrix(.60609 0 0 .60568 159.86 731.79)" stroke="url(#i)" stroke-linecap="round" stroke-width="1.2379" fill="none"/>
   <path style="color:#000000" d="m67.5 37.5c0 1.3807-1.3431 2.5-3 2.5s-3-1.1193-3-2.5 1.3431-2.5 3-2.5 3 1.1193 3 2.5z" transform="matrix(.27556 0 0 .33055 172.25 720.5)" fill="#fff"/>
   <path opacity=".19216" style="color:#000000" d="m197.98 739.74c0.14863 0.14892 0.028 0.51153-0.26927 0.80939-0.29728 0.29786-0.66586 0.4117-0.80782 0.2698l-0.39722-1.4945 1.4743 0.41532z" fill="#fff"/>
   <path opacity=".8" style="color:#000000" d="m-14 34.25c0 1.2426-2.4624 2.25-5.5 2.25s-5.5-1.0074-5.5-2.25 2.4624-2.25 5.5-2.25 5.5 1.0074 5.5 2.25z" transform="matrix(.55113 0 0 .97940 202.43 699.62)" fill="url(#h)"/>
   <g fill-rule="evenodd" transform="matrix(.51045 0 0 .51045 77.771 358.65)" stroke="#666">
    <path d="m217.54 729.07h7.4607l3.7543 3.9023-0.0848 10.715h-11.13v-14.617z" stroke-width=".51007" fill="url(#g)"/>
    <path stroke-linejoin="round" d="m-2829.3-1828.3c1.0683 4.7916 0.3837 8.5401-0.06 10.889 2.6346-0.6545 5.7398-1.3853 10.35 0.03-4.9699-5.5487-6.9971-7.2565-10.29-10.919z" transform="matrix(.31920 0 0 .31597 1128.1 1307.3)" filter="url(#j)" stroke-width="1.6061" fill="#d3d3d3"/>
    <path stroke-linejoin="round" d="m225.23 729.31c0.34102 1.514 0.12249 2.6984-0.0191 3.4407 0.84096-0.20682 1.8321-0.43775 3.3038 0.009-1.5864-1.7532-2.2335-2.2928-3.2847-3.4501z" stroke-width=".51007" fill="url(#f)"/>
   </g>
   <g stroke-linejoin="round" transform="matrix(0 -1 1 0 -541.64 948.69)">
    <rect transform="matrix(-.72730 -.68632 -.70389 .71030 0 0)" stroke-opacity=".90698" rx=".32876" ry=".32876" height="5.2533" width="2.0947" stroke="#a05a2c" stroke-linecap="round" y="394.31" x="-669.27" stroke-width=".33790" fill="url(#e)"/>
    <path d="m210.01 737.75-0.78603 1.5437-1.4082-1.3724 1.4643-0.87188 0.72987 0.70049z" stroke-opacity=".88372" fill-rule="evenodd" stroke="#333" stroke-width=".20107" fill="url(#d)"/>
   </g>
  </g>
  <rect style="color:#000000" height="16" width="16" y="728.74" x="185.07" fill="none"/>
 </g>
</svg>
