<?xml version="1.0" encoding="UTF-8" standalone="no"?>
<svg xmlns:rdf="http://www.w3.org/1999/02/22-rdf-syntax-ns#" xmlns="http://www.w3.org/2000/svg" height="1052.4" width="744.09" version="1.1" xmlns:cc="http://creativecommons.org/ns#" xmlns:xlink="http://www.w3.org/1999/xlink" xmlns:dc="http://purl.org/dc/elements/1.1/">
 <defs>
  <radialGradient id="a" gradientUnits="userSpaceOnUse" cy="866.01" cx="386.21" gradientTransform="matrix(1.1453 1.179 -.80701 .78396 653.16 -270.77)" r="61.352">
   <stop stop-color="#fff" stop-opacity=".92035" offset="0"/>
   <stop stop-color="#ccc" offset="1"/>
  </radialGradient>
  <linearGradient id="c" y2="864.59" gradientUnits="userSpaceOnUse" x2="318.68" gradientTransform="matrix(.088520 0 0 .041832 -587.14 683.57)" y1="863.3" x1="348.72">
   <stop stop-color="#d4aa00" offset="0"/>
   <stop stop-color="#fea" offset="1"/>
  </linearGradient>
  <linearGradient id="b" y2="791.12" gradientUnits="userSpaceOnUse" x2="343.89" gradientTransform="matrix(-.067239 -.065994 -.041412 .042520 -43.705 879.66)" y1="791.28" x1="333.49">
   <stop stop-color="#3c3c3c" stop-opacity=".99608" offset="0"/>
   <stop stop-color="#b3b3b3" stop-opacity="0" offset="1"/>
  </linearGradient>
 </defs>
 <metadata>
  <rdf:RDF>
   <cc:Work rdf:about="">
    <dc:format>image/svg+xml</dc:format>
    <dc:type rdf:resource="http://purl.org/dc/dcmitype/StillImage"/>
    <dc:title/>
   </cc:Work>
  </rdf:RDF>
 </metadata>
 <g transform="translate(129.58 -801.05)">
  <g transform="translate(3.5753 -25.448)">
   <path stroke-linejoin="round" d="m451.11 879.75c0 31.882-26.98 57.727-60.261 57.727s-60.261-25.845-60.261-57.727 26.98-57.727 60.261-57.727c33.259 0 60.23 25.812 60.261 57.672" stroke-opacity=".81395" transform="matrix(-.095277 0 0 .099482 -57.227 798.84)" stroke="#1a1a1a" stroke-linecap="round" stroke-width="6.3301" fill="url(#a)"/>
   <rect stroke-linejoin="round" ry=".32876" stroke-opacity=".93725" rx=".32876" transform="matrix(-.72730 -.68632 -.70389 .71030 0 0)" height="5.2533" width="2.0947" stroke="#a25d2b" stroke-linecap="round" y="717.26" x="-558.15" stroke-width=".33790" fill="url(#c)"/>
   <path stroke-linejoin="round" d="m-98.125 890.88-0.78603 1.5437-1.4082-1.3724 1.4643-0.87188 0.72987 0.70049z" stroke-opacity=".88372" fill-rule="evenodd" stroke="#333" stroke-width=".20107" fill="url(#b)"/>
   <path style="color:#000000" d="m-95.23 883.19-0.0048 2.3557-2.4475-0.005v1.6013h2.4427l-0.0048 2.3944h1.6013v-2.3944h2.3944v-1.587l-2.3944-0.005v-2.3605h-1.587l0.000046-0.00018z" fill-rule="evenodd" fill="#1a1a1a"/>
  </g>
  <rect style="color:#000000" height="16" width="16" y="854.86" x="-100.73" fill="none"/>
 </g>
</svg>
