<?xml version="1.0" encoding="UTF-8" standalone="no"?>
<svg xmlns:rdf="http://www.w3.org/1999/02/22-rdf-syntax-ns#" xmlns="http://www.w3.org/2000/svg" height="297mm" width="210mm" version="1.1" xmlns:cc="http://creativecommons.org/ns#" xmlns:xlink="http://www.w3.org/1999/xlink" viewBox="0 0 744.09448819 1052.3622047" xmlns:dc="http://purl.org/dc/elements/1.1/">
 <defs>
  <linearGradient id="a" y2="838.98" gradientUnits="userSpaceOnUse" x2="56.047" gradientTransform="matrix(-1 0 0 1 783.51 -380.02)" y1="834.12" x1="56.426">
   <stop stop-color="#fff" stop-opacity=".54615" offset="0"/>
   <stop stop-color="#fff" stop-opacity="0" offset="1"/>
  </linearGradient>
 </defs>
 <metadata>
  <rdf:RDF>
   <cc:Work rdf:about="">
    <dc:format>image/svg+xml</dc:format>
    <dc:type rdf:resource="http://purl.org/dc/dcmitype/StillImage"/>
    <dc:title/>
   </cc:Work>
  </rdf:RDF>
 </metadata>
 <g transform="matrix(-1 0 0 1 769.67 -417.55)">
  <rect style="color:#000000" transform="scale(-1,1)" height="16" width="16" y="451.27" x="-733.14" fill="none"/>
  <g transform="matrix(.96232 0 0 .99737 41.509 12.905)">
   <rect height="15.009" width="11.009" stroke="#000" stroke-linecap="round" y="440.04" x="702.58" stroke-width="1.0113" fill="#f9f9f9"/>
   <ellipse stroke-linecap="round" fill-opacity=".37726" rx="2.7407" ry=".96296" stroke="#000" transform="matrix(1.0181 0 0 1.0803 701.73 438.91)" cy="7.9852" cx="4.2815" stroke-width=".40829"/>
   <ellipse stroke-linecap="round" fill-opacity=".37726" rx="2.7407" ry=".96296" stroke="#000" transform="matrix(1.3914 0 0 1.1043 702.13 433.97)" cy="7.9852" cx="4.2815" stroke-width=".30728"/>
   <ellipse stroke-linecap="round" fill-opacity=".37726" rx="2.7407" ry=".96296" stroke="#000" transform="matrix(1.3914 0 0 1.1043 702.13 443.47)" cy="7.9852" cx="4.2815" stroke-width=".30728"/>
   <path d="m706.24 448.65l2.5167 2.4574" stroke="#000" stroke-linecap="round" stroke-width=".51037" fill="none"/>
   <path d="m706.19 446.43l1.7876-2.4394" stroke="#000" stroke-linecap="round" stroke-width=".51037" fill="none"/>
   <g fill-rule="evenodd" transform="matrix(-1 0 0 1 1443.4 -11.729)">
    <path stroke-linejoin="round" style="color:#000000" d="m735.54 459.12-10.263-7.3107-0.0314 14.924z" stroke="#04a" stroke-width="1.0981" fill="#00aad4"/>
    <path style="color:#000000" d="m725.28 451.81s-0.0314 10.499-0.0314 14.924l10.113-7.5231z" fill="url(#a)"/>
   </g>
  </g>
 </g>
</svg>
