<?xml version="1.0" encoding="UTF-8" standalone="no"?>
<svg xmlns:rdf="http://www.w3.org/1999/02/22-rdf-syntax-ns#" xmlns="http://www.w3.org/2000/svg" height="297mm" width="210mm" version="1.1" xmlns:cc="http://creativecommons.org/ns#" xmlns:xlink="http://www.w3.org/1999/xlink" viewBox="0 0 744.09448819 1052.3622047" xmlns:dc="http://purl.org/dc/elements/1.1/">
 <metadata>
  <rdf:RDF>
   <cc:Work rdf:about="">
    <dc:format>image/svg+xml</dc:format>
    <dc:type rdf:resource="http://purl.org/dc/dcmitype/StillImage"/>
    <dc:title/>
   </cc:Work>
  </rdf:RDF>
 </metadata>
 <g transform="translate(-415.45 -590.52)">
  <g transform="translate(-22.722 104.68)">
   <g transform="translate(1.2311 -.14858)">
    <path style="color:#000000;text-indent:0;block-progression:tb;text-decoration-line:none;text-transform:none" d="m484.2 652.97c1.8238 0.0366 2.9365 0.70148 4.0129 1.822s2.1103 1.7849 3.656 1.6124c-1.2921 0.13399-2.4788-0.8886-3.5166-2.1886-1.0576-1.3272-2.2792-2.9033-4.1418-2.9406l-0.0104 1.6948z" stroke-opacity=".99608" stroke="#000080" stroke-width=".45978" fill="#003380"/>
    <path style="color:#000000;text-indent:0;block-progression:tb;text-decoration-line:none;text-transform:none" d="m485.51 649.65c1.8238 0.0265 3.0792-0.91261 4.1557-0.10145 1.0764 0.81112 1.92 0.38817 3.4656 0.26325-1.292 0.0971-2.2884 0.26065-3.3263-0.6804-1.0576-0.96069-2.422-0.6812-4.2845-0.70816l-0.0104 1.2268h-0.00001z" stroke-opacity=".99608" stroke="#000080" stroke-width=".45978" fill="#003380"/>
    <g transform="translate(0 -.58238)">
     <path style="color:#000000;text-indent:0;block-progression:tb;text-decoration-line:none;text-transform:none" d="m484.68 646.12c1.8238-0.0366 2.9365-0.70147 4.0129-1.822s2.1103-1.7849 3.6559-1.6124c-1.292-0.13399-2.4788 0.8886-3.5166 2.1886-1.0576 1.3272-2.2792 2.9033-4.1418 2.9406l-0.0104-1.6948z" stroke-opacity=".99608" stroke="#000080" stroke-width=".45978" fill="#003380"/>
     <circle cy="219.91" stroke="#043b8e" stroke-width="15.424" fill="#fff" fill-rule="evenodd" transform="matrix(.012730 0 0 .012730 489.35 639.61)" r="51.206" cx="257.44"/>
    </g>
    <circle stroke="#000080" stroke-width="9.4226" stroke-opacity=".99608" fill-rule="evenodd" transform="matrix(.11654 0 0 .11654 452.11 623.43)" cy="219.91" cx="257.44" r="51.206" fill="#fff"/>
    <path d="m478.16 647.99v2.1387h7.9092v-2.1387h-7.9092z" stroke="#f70808" stroke-width=".19269px" fill="#f21313"/>
    <circle stroke="#043b8e" stroke-width="15.424" fill-rule="evenodd" transform="matrix(.012730 0 0 .012730 490.29 646.95)" cy="219.91" cx="257.44" r="51.206" fill="#fff"/>
    <circle stroke="#043b8e" stroke-width="15.424" fill-rule="evenodd" transform="matrix(.012730 0 0 .012730 489.02 653.55)" cy="219.91" cx="257.44" r="51.206" fill="#fff"/>
   </g>
   <rect style="color:#000000" height="16" width="23" y="640.94" x="474.69" fill="none"/>
  </g>
 </g>
</svg>
