<?xml version="1.0" encoding="UTF-8" standalone="no"?>
<svg xmlns:rdf="http://www.w3.org/1999/02/22-rdf-syntax-ns#" xmlns="http://www.w3.org/2000/svg" height="297mm" width="210mm" version="1.1" xmlns:cc="http://creativecommons.org/ns#" xmlns:xlink="http://www.w3.org/1999/xlink" viewBox="0 0 744.09448819 1052.3622047" xmlns:dc="http://purl.org/dc/elements/1.1/">
 <metadata>
  <rdf:RDF>
   <cc:Work rdf:about="">
    <dc:format>image/svg+xml</dc:format>
    <dc:type rdf:resource="http://purl.org/dc/dcmitype/StillImage"/>
    <dc:title/>
   </cc:Work>
  </rdf:RDF>
 </metadata>
 <g transform="translate(-415.43 -627.12)">
  <g transform="translate(-57.318 96.283)">
   <g transform="matrix(1.088 0 0 1.0969 -48.224 -61.854)">
    <path stroke-linejoin="round" style="color:#000000;text-indent:0;block-progression:tb;text-decoration-line:none;text-transform:none" d="m513.5 632.12c2.586 0.0519 5.5911 1.0831 7.1174 2.672 1.5263 1.5888 3.9736 3.6813 6.1652 3.4366-1.832 0.18999-4.496-2.4103-5.9677-4.2537-1.4995-1.8819-4.6592-4.2052-7.3002-4.258l-0.0148 2.4032h0.00001z" stroke-opacity=".99608" stroke="#000080" stroke-linecap="round" stroke-width="0.652" fill="#003380"/>
    <path d="m524.57 625.77v3.5345h-3.3019v2.4648h3.3019v3.5345h2.5114v-3.5345h3.3019v-2.4648h-3.3019v-3.5345h-2.5114z" stroke="#f70808" stroke-width=".22207px" fill="#f21313"/>
    <g transform="translate(.097063 -.29119)">
     <rect stroke-linejoin="round" height="3.2014" stroke="#000080" stroke-width=".51087" fill="#fff" fill-rule="evenodd" rx=".74166" ry=".70599" width="6.559" y="636.82" x="526.62"/>
    </g>
   </g>
   <rect style="color:#000000" height="16" width="23" y="624.13" x="509.26" fill="none"/>
  </g>
 </g>
</svg>
