<?xml version="1.0" encoding="UTF-8" standalone="no"?>
<svg xmlns:rdf="http://www.w3.org/1999/02/22-rdf-syntax-ns#" xmlns="http://www.w3.org/2000/svg" version="1.1" xmlns:cc="http://creativecommons.org/ns#" xmlns:xlink="http://www.w3.org/1999/xlink" viewBox="0 0 19 19" xmlns:dc="http://purl.org/dc/elements/1.1/">
<defs>
<filter id="ao" style="color-interpolation-filters:sRGB">
<feGaussianBlur stdDeviation="0.44792182"/>
</filter>
<filter id="ag" style="color-interpolation-filters:sRGB">
<feGaussianBlur stdDeviation="0.44792182"/>
</filter>
<filter id="ai" style="color-interpolation-filters:sRGB">
<feGaussianBlur stdDeviation="0.44792182"/>
</filter>
<filter id="y" style="color-interpolation-filters:sRGB" height="1.842" width="1.1031" y="-.42098" x="-.051575">
<feGaussianBlur stdDeviation="0.58480536"/>
</filter>
<filter id="ac" style="color-interpolation-filters:sRGB">
<feGaussianBlur stdDeviation="0.32617743"/>
</filter>
<filter id="ae" style="color-interpolation-filters:sRGB" height="1.4682" width="1.0679" y="-.23408" x="-.033951">
<feGaussianBlur stdDeviation="0.3721843"/>
</filter>
<filter id="as" style="color-interpolation-filters:sRGB" height="1.0769" width="1.2224" y="-.038452" x="-.11119">
<feGaussianBlur stdDeviation="0.57987162"/>
</filter>
<filter id="aq" style="color-interpolation-filters:sRGB">
<feGaussianBlur stdDeviation="0.44792182"/>
</filter>
<filter id="v" style="color-interpolation-filters:sRGB" height="1.3193" width="1.039" y="-.15966" x="-.019478">
<feGaussianBlur stdDeviation="0.25385953"/>
</filter>
<filter id="am" style="color-interpolation-filters:sRGB">
<feGaussianBlur stdDeviation="0.44792182"/>
</filter>
<filter id="ak" style="color-interpolation-filters:sRGB">
<feGaussianBlur stdDeviation="0.44792182"/>
</filter>
<filter id="aa" style="color-interpolation-filters:sRGB" height="1.842" width="1.1031" y="-.42098" x="-.051575">
<feGaussianBlur stdDeviation="0.58480536"/>
</filter>
<filter id="ap" style="color-interpolation-filters:sRGB">
<feGaussianBlur stdDeviation="0.44792182"/>
</filter>
<linearGradient id="u" y2="868.36" gradientUnits="userSpaceOnUse" x2="118.09" gradientTransform="translate(38.325 -35.66)" y1="890.26" x1="118.09">
<stop offset="0"/>
<stop stop-opacity="0" offset="1"/>
</linearGradient>
<filter id="ah" style="color-interpolation-filters:sRGB">
<feGaussianBlur stdDeviation="0.44792182"/>
</filter>
<linearGradient id="t" y2="877.89" gradientUnits="userSpaceOnUse" x2="118.09" gradientTransform="translate(38.325 -35.66)" y1="887.42" x1="118.09">
<stop offset="0"/>
<stop stop-opacity="0" offset="1"/>
</linearGradient>
<filter id="aj" style="color-interpolation-filters:sRGB">
<feGaussianBlur stdDeviation="0.44792182"/>
</filter>
<filter id="z" style="color-interpolation-filters:sRGB" height="1.842" width="1.1031" y="-.42098" x="-.051575">
<feGaussianBlur stdDeviation="0.58480536"/>
</filter>
<linearGradient id="f" y2="634.26" gradientUnits="userSpaceOnUse" x2="111.51" gradientTransform="matrix(.20801 0 0 .12430 226.34 756.72)" y1="665.39" x1="137.93">
<stop stop-color="#283c6d" offset="0"/>
<stop stop-color="#136ec1" offset="1"/>
</linearGradient>
<radialGradient id="b" xlink:href="#d" gradientUnits="userSpaceOnUse" cy="718.77" cx="160.44" gradientTransform="matrix(.19981 .17870 -.15894 .16574 241.58 572.22)" r="6.9383"/>
<linearGradient id="d">
<stop stop-color="#fff" offset="0"/>
<stop stop-color="#b9150a" offset="1"/>
</linearGradient>
<linearGradient id="e" y2="699.44" gradientUnits="userSpaceOnUse" x2="149.98" gradientTransform="matrix(.20098 0 0 .11535 224.61 758.6)" y1="682.29" x1="136.4">
<stop stop-color="#fcfcfc" stop-opacity="0" offset="0"/>
<stop stop-color="#b7d9fb" offset="1"/>
</linearGradient>
<radialGradient id="a" xlink:href="#d" gradientUnits="userSpaceOnUse" cy="718.77" cx="160.44" gradientTransform="matrix(.19980 .17871 -.15040 .15662 235.45 578.78)" r="6.9383"/>
<linearGradient id="s" y2="611.35" xlink:href="#c" gradientUnits="userSpaceOnUse" x2="198.84" gradientTransform="matrix(.17415 -.21139 .21139 .17415 84.431 771.37)" y1="635.18" x1="206.07"/>
<linearGradient id="c">
<stop stop-color="#06f" offset="0"/>
<stop stop-color="#fff" offset="1"/>
</linearGradient>
<linearGradient id="r" y2="621.16" xlink:href="#c" gradientUnits="userSpaceOnUse" x2="199.92" gradientTransform="matrix(.17415 -.21139 .21139 .17415 84.431 771.37)" y1="632.79" x1="206.07"/>
<filter id="x" style="color-interpolation-filters:sRGB" height="1.6302" width="1.1482" y="-.31509" x="-.074113">
<feGaussianBlur stdDeviation="0.76171525"/>
</filter>
<linearGradient id="m" y2="804.95" gradientUnits="userSpaceOnUse" x2="175.52" gradientTransform="matrix(.33036 0 0 .29301 224.61 632.65)" y1="804.95" x1="134.95">
<stop stop-color="#a1a1a1" stop-opacity=".55263" offset="0"/>
<stop stop-color="#acacac" stop-opacity=".84737" offset="1"/>
</linearGradient>
<filter id="ad" style="color-interpolation-filters:sRGB">
<feGaussianBlur stdDeviation="0.32617743"/>
</filter>
<filter id="af" style="color-interpolation-filters:sRGB" height="1.4682" width="1.0679" y="-.23408" x="-.033951">
<feGaussianBlur stdDeviation="0.3721843"/>
</filter>
<linearGradient id="q" y2="817.22" gradientUnits="userSpaceOnUse" x2="28.549" y1="815.26" x1="9.888">
<stop stop-color="#ad0650" stop-opacity=".98824" offset="0"/>
<stop stop-color="#f6d5ff" stop-opacity="0" offset="1"/>
</linearGradient>
<filter id="at" style="color-interpolation-filters:sRGB" height="1.0769" width="1.2224" y="-.038452" x="-.11119">
<feGaussianBlur stdDeviation="0.57987162"/>
</filter>
<filter id="ar" style="color-interpolation-filters:sRGB">
<feGaussianBlur stdDeviation="0.44792182"/>
</filter>
<linearGradient id="p" y2="826.37" gradientUnits="userSpaceOnUse" x2="154.25" y1="820.03" x1="154.25">
<stop offset="0"/>
<stop stop-opacity="0" offset="1"/>
</linearGradient>
<filter id="w" style="color-interpolation-filters:sRGB" height="1.3193" width="1.039" y="-.15966" x="-.019478">
<feGaussianBlur stdDeviation="0.25385953"/>
</filter>
<linearGradient id="o" y2="868.36" gradientUnits="userSpaceOnUse" x2="118.09" gradientTransform="translate(164.86 -63.522)" y1="890.26" x1="118.09">
<stop offset="0"/>
<stop stop-opacity="0" offset="1"/>
</linearGradient>
<filter id="an" style="color-interpolation-filters:sRGB">
<feGaussianBlur stdDeviation="0.44792182"/>
</filter>
<linearGradient id="n" y2="877.89" gradientUnits="userSpaceOnUse" x2="118.09" gradientTransform="translate(164.86 -63.522)" y1="887.42" x1="118.09">
<stop offset="0"/>
<stop stop-opacity="0" offset="1"/>
</linearGradient>
<filter id="al" style="color-interpolation-filters:sRGB">
<feGaussianBlur stdDeviation="0.44792182"/>
</filter>
<filter id="ab" style="color-interpolation-filters:sRGB" height="1.842" width="1.1031" y="-.42098" x="-.051575">
<feGaussianBlur stdDeviation="0.58480536"/>
</filter>
<radialGradient id="i" xlink:href="#g" gradientUnits="userSpaceOnUse" cy="555.96" cx="590.35" gradientTransform="matrix(.21292 0.0953 -.10701 .22630 -54.27 83.778)" r="70.341"/>
<linearGradient id="g">
<stop stop-color="#ff0" offset="0"/>
<stop stop-color="#fff" offset="1"/>
</linearGradient>
<radialGradient id="h" xlink:href="#g" gradientUnits="userSpaceOnUse" cy="537.34" cx="591.23" gradientTransform="matrix(.28922 -.032886 .027893 .23219 -174.31 156.18)" r="65.043"/>
<linearGradient id="l" y2="586.45" gradientUnits="userSpaceOnUse" x2="457.61" gradientTransform="matrix(.13686 0 0 .13315 -45.888 192.68)" y1="586.45" x1="389.95">
<stop stop-color="#999" offset="0"/>
<stop stop-color="#fff" offset="1"/>
</linearGradient>
<linearGradient id="k" y2="665.36" gradientUnits="userSpaceOnUse" x2="433.81" gradientTransform="matrix(.13686 0 0 .13315 -45.888 192.3)" y1="665.36" x1="378.31">
<stop stop-color="#1a1a1a" offset="0"/>
<stop stop-color="#fff" offset="1"/>
</linearGradient>
<linearGradient id="j" y2="287.59" gradientUnits="userSpaceOnUse" x2="265.33" gradientTransform="matrix(1.0375 .046482 -.047777 1.0093 -252.27 -42.549)" y1="284.45" x1="261.9">
<stop stop-color="#fff" offset="0"/>
<stop stop-color="#fff" stop-opacity="0" offset="1"/>
</linearGradient>
</defs>
<metadata>
<rdf:RDF>
<cc:Work rdf:about="">
<dc:format>image/svg+xml</dc:format>
<dc:type rdf:resource="http://purl.org/dc/dcmitype/StillImage"/>
<dc:title/>
</cc:Work>
</rdf:RDF>
</metadata>
<g transform="translate(-79.339 -140.31)">
<g transform="translate(-186.98 -718.12)">
<g transform="translate(-1.1306 16.532)" stroke="#fff" fill="#fff">
<g fill-rule="evenodd" transform="matrix(.25409 0 0 .32007 237.07 587.54)">
<path style="color:#000000" d="m156.41 834.28c-11.932 0-21.615 3.5679-21.615 7.9631 0 4.3951 9.6825 7.9329 21.615 7.9329s21.615-3.5378 21.615-7.9329-9.6825-7.9631-21.615-7.9631zm0 4.2193c6.2466 0.001 16.539 0.5057 17.49 3.7437-0.71099 2.6545-7.3457 3.5863-17.49 3.5863-10.145 0-16.568-1.0909-17.169-3.5863 0.60149-3.2877 10.923-3.745 17.169-3.7437z" filter="url(#ao)"/>
<path style="color:#000000;text-indent:0;block-progression:tb;text-decoration-line:none;text-transform:none" d="m156.43 833.77c-6.016 0-11.479 0.90512-15.469 2.375-1.9948 0.73494-3.6191 1.582-4.7813 2.5938s-1.875 2.2176-1.875 3.5 0.71262 2.4598 1.875 3.4688c1.1624 1.0089 2.7865 1.8627 4.7813 2.5938 3.9895 1.4622 9.4532 2.375 15.469 2.375 6.0156 0 11.448-0.91284 15.438-2.375 1.9948-0.73108 3.6501-1.5848 4.8125-2.5938 1.1624-1.0089 1.8438-2.1864 1.8438-3.4688s-0.68155-2.4882-1.8438-3.5-2.8177-1.8588-4.8125-2.5938c-3.9895-1.4699-9.4215-2.375-15.438-2.375zm0 1c5.9163 0 11.259 0.89963 15.094 2.3125 1.9174 0.70644 3.4738 1.5441 4.5 2.4375 1.0262 0.89336 1.5 1.8036 1.5 2.7188 0 0.91519-0.47404 1.8282-1.5 2.7188-1.026 0.89051-2.5826 1.7035-4.5 2.4062-3.8348 1.4055-9.177 2.3125-15.094 2.3125-5.9168 0-11.29-0.907-15.125-2.3125-1.9174-0.70275-3.4428-1.5157-4.4688-2.4062-1.026-0.89051-1.5312-1.8036-1.5312-2.7188s0.50507-1.8254 1.5312-2.7188c1.0262-0.89336 2.5514-1.7311 4.4688-2.4375 3.8348-1.4129 9.2087-2.3125 15.125-2.3125zm0 3.2188c-3.1355-0.00061-7.2963 0.0924-10.781 0.625-1.7425 0.26628-3.312 0.65182-4.5312 1.1875s-2.1482 1.2748-2.3438 2.3438l-0.0312 0.0937 0.0312 0.0937c0.19596 0.81286 0.83445 1.4466 1.75 1.9375 0.91556 0.49087 2.1212 0.88937 3.625 1.1875 3.0076 0.59625 7.191 0.84375 12.281 0.84375 5.0876 0 9.3014-0.20562 12.375-0.78125 1.5368-0.28781 2.7673-0.6585 3.7188-1.1562 0.95142-0.49775 1.6489-1.1557 1.875-2l0.0312-0.15625-0.0312-0.125c-0.30559-1.0401-1.3021-1.7516-2.5625-2.2812s-2.8339-0.88714-4.5938-1.1562c-3.5197-0.53823-7.6758-0.65575-10.812-0.65625zm0 1c3.1099 0.0005 7.2303 0.13237 10.656 0.65625 1.713 0.26194 3.2428 0.61799 4.375 1.0938 1.0345 0.43468 1.6414 0.94091 1.875 1.4688-0.15803 0.44624-0.4969 0.856-1.25 1.25-0.80958 0.42355-1.9899 0.78555-3.4688 1.0625-2.9576 0.5539-7.1305 0.78125-12.188 0.78125-5.0544 0-9.1719-0.2707-12.062-0.84375-1.4453-0.28653-2.6-0.647-3.375-1.0625-0.71759-0.38473-1.0208-0.7844-1.1562-1.1875 0.16572-0.52679 0.69149-1.0624 1.6875-1.5 1.0804-0.47468 2.5874-0.8349 4.2812-1.0938 3.3877-0.5177 7.514-0.6256 10.625-0.625z" filter="url(#ag)"/>
<path style="color:#000000;text-indent:0;block-progression:tb;text-decoration-line:none;text-transform:none" d="m156.43 833.77c-6.016 0-11.479 0.90512-15.469 2.375-1.9948 0.73494-3.6191 1.582-4.7813 2.5938s-1.875 2.2176-1.875 3.5 0.71262 2.4598 1.875 3.4688c1.1624 1.0089 2.7865 2.4754 4.7813 3.2064 3.9895 1.4622 9.4532 2.5282 15.469 2.5282 6.0156 0 11.448-1.066 15.438-2.5282 1.9948-0.73108 3.6501-1.5848 4.8125-2.5938 1.1624-1.0089 1.8438-2.7991 1.8438-4.0814 0-1.2824-0.68154-2.4882-1.8438-3.5-1.1622-1.0118-2.8177-1.8588-4.8125-2.5938-3.9895-1.4699-9.4215-2.375-15.438-2.375zm0 1c5.9163 0 11.259 0.89963 15.094 2.3125 1.9174 0.70644 3.4738 1.5441 4.5 2.4375 1.0262 0.89336 1.5 1.8036 1.5 2.7188 0 0.91519-0.47404 1.8282-1.5 2.7188-1.026 0.89051-2.5826 2.3162-4.5 3.0189-3.8349 1.4055-9.177 2.4657-15.094 2.4657-5.9168 0-11.29-1.0602-15.125-2.4657-1.9174-0.70275-3.4428-2.1284-4.4688-3.0189-1.026-0.89051-1.5312-1.8036-1.5312-2.7188s0.50507-1.8254 1.5312-2.7188c1.0262-0.89336 2.5514-1.7311 4.4688-2.4375 3.8348-1.4129 9.2087-2.3125 15.125-2.3125zm0 3.2188c-3.1355-0.00061-7.2963 0.0924-10.781 0.625-1.7425 0.26628-3.312 0.65182-4.5312 1.1875s-2.1482 1.2748-2.3438 2.3438l-0.0312 0.0937 0.0312 0.0937c0.19594 0.81286 0.83444 1.4466 1.75 1.9375 0.91556 0.49087 2.1212 0.88937 3.625 1.1875 3.0076 0.59625 7.191 1.6096 12.281 1.6096 5.0876 0 9.3014-0.97148 12.375-1.5471 1.5368-0.28781 2.7673-0.6585 3.7188-1.1562 0.95143-0.49775 1.6489-1.1557 1.875-2l0.0312-0.15625-0.0312-0.125c-0.30559-1.0401-1.3021-1.7516-2.5625-2.2812-1.2603-0.5296-2.8338-0.88714-4.5938-1.1562-3.5197-0.53823-7.6758-0.65575-10.812-0.65625v0.0001zm0 1c3.1099 0.0005 7.2303 0.13237 10.656 0.65625 1.713 0.26194 3.2428 0.61799 4.375 1.0938 1.0345 0.43468 1.6414 0.94091 1.875 1.4688-0.15803 0.44624-0.4969 0.856-1.25 1.25-0.80958 0.42355-1.9899 0.78555-3.4688 1.0625-2.9576 0.5539-7.1305 1.5471-12.188 1.5471-5.0544 0-9.1719-1.0366-12.062-1.6096-1.4453-0.28653-2.6-0.647-3.375-1.0625-0.71759-0.38473-1.0208-0.7844-1.1562-1.1875 0.16572-0.52679 0.69149-1.0624 1.6875-1.5 1.0804-0.47468 2.5874-0.8349 4.2812-1.0938 3.3877-0.5177 7.514-0.6256 10.625-0.625z" filter="url(#ai)"/>
<path opacity=".92511" style="color:#000000" d="m168.74 789.79s-7.5407 2.0281-14.592 2.0281c-7.0517 0-13.59-2.885-13.59-2.885s6.8673 1.4948 13.919 1.4948 14.264-0.638 14.264-0.638z" transform="matrix(.99987 -.016187 .016187 .99987 -11.158 58.061)" filter="url(#y)"/>
</g>
<path style="color:#000000" d="m283.64 845.88-2.1404 10.939c-0.65655 2.2962-8.931 2.0544-9.2719-0.2314-0.7966-3.8084-1.1045-6.8561-1.8232-10.707 2.97 2.305 8.9583 2.6378 13.235 0z" fill-rule="evenodd" stroke-width="0.5"/>
<path style="color:#000000;text-indent:0;block-progression:tb;text-decoration-line:none;text-transform:none" d="m154.83 817.97c-2.4602-0.00052-5.7897 0.20365-8.5938 0.75-1.402 0.27317-2.6645 0.63133-3.6562 1.125-2.3554 1.373-2.4339 2.4765-0.4375 4.0937 0.77375 0.50964 1.8081 0.93819 3.0625 1.3125 2.5088 0.74862 5.914 1.2188 9.9062 1.2188 3.9894 0 7.3946-0.42445 9.9062-1.1562 1.2558-0.3659 2.2789-0.82703 3.0625-1.3438 0.78356-0.51672 1.3492-1.1116 1.5312-1.8438l0.0312-0.125-0.0312-0.125c-0.24894-0.91278-1.0682-1.545-2.125-2.0312-3.9978-1.588-8.3987-1.8066-12.656-1.875v0.00005zm0 1c2.4065 0.00041 5.7682 0.21783 8.5938 0.75 1.4128 0.26609 2.6918 0.60191 3.625 1.0312 0.86405 0.39755 1.2995 0.86126 1.4688 1.2812-0.13704 0.34905-0.38661 0.74111-0.96875 1.125-0.66056 0.4356-1.6226 0.8408-2.8125 1.1875-2.3799 0.69341-5.7088 1.125-9.625 1.125-3.9134 0-7.2456-0.47751-9.625-1.1875-1.1897-0.355-2.1282-0.75734-2.7812-1.1875-0.59884-0.39442-0.86152-0.77425-0.96875-1.0938 0.11883-0.42393 0.48355-0.88419 1.2812-1.2812 0.85606-0.42612 2.056-0.76817 3.4062-1.0312 2.7005-0.52616 5.9985-0.71925 8.4062-0.71875z" fill-rule="evenodd" transform="matrix(.28165 0 0 .28165 233.14 625.59)" filter="url(#ac)"/>
<ellipse opacity=".92511" style="color:#000000" rx="13.155" transform="matrix(.33036 0 0 .60855 225.91 355.97)" ry="1.908" filter="url(#ae)" cy="823.2" cx="154.25"/>
<path style="color:#000000" d="m15.431 799.78c3.4007 3.0785 6.2889 4.5638 9.9906 5.6977l-3.1579 31.984c-2.6361-0.97259-5.4665-1.6709-7.8618-4.2001 0.0042-10.877 0.65645-22.534 1.0291-33.482z" fill-rule="evenodd" transform="matrix(.32647 -.044817 .050530 .28956 225.38 616.13)" filter="url(#as)"/>
<path style="color:#000000" d="m282.95 806.42c-11.932 0-21.615 3.5679-21.615 7.9631 0 4.3951 9.6825 7.9329 21.615 7.9329s21.615-3.5378 21.615-7.9329-9.6825-7.9631-21.615-7.9631zm0 4.2193c6.2466 0.001 16.539 0.5057 17.49 3.7437-0.71099 2.6545-7.3457 3.5863-17.49 3.5863-10.145 0-16.568-1.0909-17.169-3.5863 0.60149-3.2877 10.923-3.745 17.169-3.7437z" fill-rule="evenodd" transform="matrix(.33036 0 0 .33036 183.48 576.52)" filter="url(#aq)"/>
<ellipse opacity=".92511" style="color:#000000" fill-opacity=".77647" rx="15.64" transform="matrix(.35418 0 0 .65592 222.36 305.56)" ry="1.908" filter="url(#v)" cy="823.2" cx="154.25" stroke-width=".51868"/>
<path style="color:#000000;text-indent:0;block-progression:tb;text-decoration-line:none;text-transform:none" d="m282.97 805.91c-6.016 0-11.479 0.90512-15.469 2.375-1.9948 0.73494-3.6191 1.582-4.7813 2.5938s-1.875 2.2176-1.875 3.5 0.71262 2.4598 1.875 3.4688c1.1624 1.0089 2.7865 1.8627 4.7813 2.5938 3.9895 1.4622 9.4532 2.375 15.469 2.375 6.0156 0 11.448-0.91284 15.438-2.375 1.9948-0.73108 3.6501-1.5848 4.8125-2.5938 1.1624-1.0089 1.8438-2.1864 1.8438-3.4688s-0.68155-2.4882-1.8438-3.5-2.8177-1.8588-4.8125-2.5938c-3.9895-1.4699-9.4215-2.375-15.438-2.375zm0 1c5.9163 0 11.259 0.89963 15.094 2.3125 1.9174 0.70644 3.4738 1.5441 4.5 2.4375 1.0262 0.89336 1.5 1.8036 1.5 2.7188 0 0.91519-0.47404 1.8282-1.5 2.7188-1.026 0.89051-2.5826 1.7035-4.5 2.4062-3.8348 1.4055-9.177 2.3125-15.094 2.3125-5.9168 0-11.29-0.907-15.125-2.3125-1.9174-0.70275-3.4428-1.5157-4.4688-2.4062-1.026-0.89051-1.5312-1.8036-1.5312-2.7188s0.50507-1.8254 1.5312-2.7188c1.0262-0.89336 2.5514-1.7311 4.4688-2.4375 3.8348-1.4129 9.2087-2.3125 15.125-2.3125zm0 3.2188c-3.1355-0.00061-7.2963 0.0924-10.781 0.625-1.7425 0.26628-3.312 0.65182-4.5312 1.1875s-2.1482 1.2748-2.3438 2.3438l-0.0312 0.0937 0.0312 0.0937c0.19596 0.81286 0.83445 1.4466 1.75 1.9375 0.91556 0.49087 2.1212 0.88937 3.625 1.1875 3.0076 0.59625 7.191 0.84375 12.281 0.84375 5.0876 0 9.3014-0.20562 12.375-0.78125 1.5368-0.28781 2.7673-0.6585 3.7188-1.1562 0.95142-0.49775 1.6489-1.1557 1.875-2l0.0312-0.15625-0.0312-0.125c-0.30559-1.0401-1.3021-1.7516-2.5625-2.2812s-2.8339-0.88714-4.5938-1.1562c-3.5197-0.53823-7.6758-0.65575-10.812-0.65625zm0 1c3.1099 0.0005 7.2303 0.13237 10.656 0.65625 1.713 0.26194 3.2428 0.61799 4.375 1.0938 1.0345 0.43468 1.6414 0.94091 1.875 1.4688-0.15803 0.44624-0.4969 0.856-1.25 1.25-0.80958 0.42355-1.9899 0.78555-3.4688 1.0625-2.9576 0.5539-7.1305 0.78125-12.188 0.78125-5.0544 0-9.1719-0.2707-12.062-0.84375-1.4453-0.28653-2.6-0.647-3.375-1.0625-0.71759-0.38473-1.0208-0.7844-1.1562-1.1875 0.16572-0.52679 0.69149-1.0624 1.6875-1.5 1.0804-0.47468 2.5874-0.8349 4.2812-1.0938 3.3877-0.5177 7.514-0.6256 10.625-0.625z" fill-rule="evenodd" transform="matrix(.33036 0 0 .33036 183.48 576.52)" filter="url(#am)"/>
<path style="color:#000000;text-indent:0;block-progression:tb;text-decoration-line:none;text-transform:none" d="m282.97 805.91c-6.016 0-11.479 0.90512-15.469 2.375-1.9948 0.73494-3.6191 1.582-4.7813 2.5938s-1.875 2.2176-1.875 3.5 0.71262 2.4598 1.875 3.4688c1.1624 1.0089 2.7865 1.8627 4.7813 2.5938 3.9895 1.4622 9.4532 2.375 15.469 2.375 6.0156 0 11.448-0.91284 15.438-2.375 1.9948-0.73108 3.6501-1.5848 4.8125-2.5938 1.1624-1.0089 1.8438-2.1864 1.8438-3.4688s-0.68154-2.4882-1.8438-3.5c-1.1622-1.0118-2.8177-1.8588-4.8125-2.5938-3.9895-1.4699-9.4215-2.375-15.438-2.375zm0 1c5.9163 0 11.259 0.89963 15.094 2.3125 1.9174 0.70644 3.4738 1.5441 4.5 2.4375 1.0262 0.89336 1.5 1.8036 1.5 2.7188 0 0.91519-0.47404 1.8282-1.5 2.7188-1.026 0.89051-2.5826 1.7035-4.5 2.4062-3.8349 1.4055-9.177 2.3125-15.094 2.3125-5.9168 0-11.29-0.907-15.125-2.3125-1.9174-0.70275-3.4428-1.5157-4.4688-2.4062-1.026-0.89051-1.5312-1.8036-1.5312-2.7188s0.50507-1.8254 1.5312-2.7188c1.0262-0.89336 2.5514-1.7311 4.4688-2.4375 3.8348-1.4129 9.2087-2.3125 15.125-2.3125zm0 3.2188c-3.1355-0.00061-7.2963 0.0924-10.781 0.625-1.7425 0.26628-3.312 0.65182-4.5312 1.1875s-2.1482 1.2748-2.3438 2.3438l-0.0312 0.0937 0.0312 0.0937c0.19594 0.81286 0.83444 1.4466 1.75 1.9375 0.91556 0.49087 2.1212 0.88937 3.625 1.1875 3.0076 0.59625 7.191 0.84375 12.281 0.84375 5.0876 0 9.3014-0.20562 12.375-0.78125 1.5368-0.28781 2.7673-0.6585 3.7188-1.1562 0.95143-0.49775 1.6489-1.1557 1.875-2l0.0312-0.15625-0.0312-0.125c-0.30559-1.0401-1.3021-1.7516-2.5625-2.2812-1.2603-0.5296-2.8338-0.88714-4.5938-1.1562-3.5197-0.53823-7.6758-0.65575-10.812-0.65625zm0 1c3.1099 0.0005 7.2303 0.13237 10.656 0.65625 1.713 0.26194 3.2428 0.61799 4.375 1.0938 1.0345 0.43468 1.6414 0.94091 1.875 1.4688-0.15803 0.44624-0.4969 0.856-1.25 1.25-0.80958 0.42355-1.9899 0.78555-3.4688 1.0625-2.9576 0.5539-7.1305 0.78125-12.188 0.78125-5.0544 0-9.1719-0.2707-12.062-0.84375-1.4453-0.28653-2.6-0.647-3.375-1.0625-0.71759-0.38473-1.0208-0.7844-1.1562-1.1875 0.16572-0.52679 0.69149-1.0624 1.6875-1.5 1.0804-0.47468 2.5874-0.8349 4.2812-1.0938 3.3877-0.5177 7.514-0.6256 10.625-0.625z" fill-rule="evenodd" transform="matrix(.33036 0 0 .33036 183.48 576.52)" filter="url(#ak)"/>
<path opacity=".92511" style="color:#000000" d="m170.49 789.05c-0.0162 1.0018-9.289 2.8687-16.344 2.761-6.0498-0.0923-15.276-3.2296-14.669-3.4462 0 0 7.9458 2.056 14.997 2.056 7.0517 0 16.015-1.3709 16.015-1.3709z" fill-rule="evenodd" transform="matrix(.33031 -.0053476 .0053476 .33031 221.56 586.39)" filter="url(#aa)"/>
</g>
<g fill-rule="evenodd" transform="matrix(.25409 0 0 .32007 235.94 604.06)">
<path style="color:#000000" d="m156.41 834.28c-11.932 0-21.615 3.5679-21.615 7.9631 0 4.3951 9.6825 7.9329 21.615 7.9329s21.615-3.5378 21.615-7.9329-9.6825-7.9631-21.615-7.9631zm0 4.2193c6.2466 0.001 16.539 0.5057 17.49 3.7437-0.71099 2.6545-7.3457 3.5863-17.49 3.5863-10.145 0-16.568-1.0909-17.169-3.5863 0.60149-3.2877 10.923-3.745 17.169-3.7437z" filter="url(#ap)" fill="#9b0f4e"/>
<path style="color:#000000;text-indent:0;block-progression:tb;text-decoration-line:none;text-transform:none" d="m156.43 833.77c-6.016 0-11.479 0.90512-15.469 2.375-1.9948 0.73494-3.6191 1.582-4.7813 2.5938s-1.875 2.2176-1.875 3.5 0.71262 2.4598 1.875 3.4688c1.1624 1.0089 2.7865 1.8627 4.7813 2.5938 3.9895 1.4622 9.4532 2.375 15.469 2.375 6.0156 0 11.448-0.91284 15.438-2.375 1.9948-0.73108 3.6501-1.5848 4.8125-2.5938 1.1624-1.0089 1.8438-2.1864 1.8438-3.4688s-0.68155-2.4882-1.8438-3.5-2.8177-1.8588-4.8125-2.5938c-3.9895-1.4699-9.4215-2.375-15.438-2.375zm0 1c5.9163 0 11.259 0.89963 15.094 2.3125 1.9174 0.70644 3.4738 1.5441 4.5 2.4375 1.0262 0.89336 1.5 1.8036 1.5 2.7188 0 0.91519-0.47404 1.8282-1.5 2.7188-1.026 0.89051-2.5826 1.7035-4.5 2.4062-3.8348 1.4055-9.177 2.3125-15.094 2.3125-5.9168 0-11.29-0.907-15.125-2.3125-1.9174-0.70275-3.4428-1.5157-4.4688-2.4062-1.026-0.89051-1.5312-1.8036-1.5312-2.7188s0.50507-1.8254 1.5312-2.7188c1.0262-0.89336 2.5514-1.7311 4.4688-2.4375 3.8348-1.4129 9.2087-2.3125 15.125-2.3125zm0 3.2188c-3.1355-0.00061-7.2963 0.0924-10.781 0.625-1.7425 0.26628-3.312 0.65182-4.5312 1.1875s-2.1482 1.2748-2.3438 2.3438l-0.0312 0.0937 0.0312 0.0937c0.19596 0.81286 0.83445 1.4466 1.75 1.9375 0.91556 0.49087 2.1212 0.88937 3.625 1.1875 3.0076 0.59625 7.191 0.84375 12.281 0.84375 5.0876 0 9.3014-0.20562 12.375-0.78125 1.5368-0.28781 2.7673-0.6585 3.7188-1.1562 0.95142-0.49775 1.6489-1.1557 1.875-2l0.0312-0.15625-0.0312-0.125c-0.30559-1.0401-1.3021-1.7516-2.5625-2.2812s-2.8339-0.88714-4.5938-1.1562c-3.5197-0.53823-7.6758-0.65575-10.812-0.65625zm0 1c3.1099 0.0005 7.2303 0.13237 10.656 0.65625 1.713 0.26194 3.2428 0.61799 4.375 1.0938 1.0345 0.43468 1.6414 0.94091 1.875 1.4688-0.15803 0.44624-0.4969 0.856-1.25 1.25-0.80958 0.42355-1.9899 0.78555-3.4688 1.0625-2.9576 0.5539-7.1305 0.78125-12.188 0.78125-5.0544 0-9.1719-0.2707-12.062-0.84375-1.4453-0.28653-2.6-0.647-3.375-1.0625-0.71759-0.38473-1.0208-0.7844-1.1562-1.1875 0.16572-0.52679 0.69149-1.0624 1.6875-1.5 1.0804-0.47468 2.5874-0.8349 4.2812-1.0938 3.3877-0.5177 7.514-0.6256 10.625-0.625z" filter="url(#ah)" fill="url(#u)"/>
<path style="color:#000000;text-indent:0;block-progression:tb;text-decoration-line:none;text-transform:none" d="m156.43 833.77c-6.016 0-11.479 0.90512-15.469 2.375-1.9948 0.73494-3.6191 1.582-4.7813 2.5938s-1.875 2.2176-1.875 3.5 0.71262 2.4598 1.875 3.4688c1.1624 1.0089 2.7865 2.4754 4.7813 3.2064 3.9895 1.4622 9.4532 2.5282 15.469 2.5282 6.0156 0 11.448-1.066 15.438-2.5282 1.9948-0.73108 3.6501-1.5848 4.8125-2.5938 1.1624-1.0089 1.8438-2.7991 1.8438-4.0814 0-1.2824-0.68154-2.4882-1.8438-3.5-1.1622-1.0118-2.8177-1.8588-4.8125-2.5938-3.9895-1.4699-9.4215-2.375-15.438-2.375zm0 1c5.9163 0 11.259 0.89963 15.094 2.3125 1.9174 0.70644 3.4738 1.5441 4.5 2.4375 1.0262 0.89336 1.5 1.8036 1.5 2.7188 0 0.91519-0.47404 1.8282-1.5 2.7188-1.026 0.89051-2.5826 2.3162-4.5 3.0189-3.8349 1.4055-9.177 2.4657-15.094 2.4657-5.9168 0-11.29-1.0602-15.125-2.4657-1.9174-0.70275-3.4428-2.1284-4.4688-3.0189-1.026-0.89051-1.5312-1.8036-1.5312-2.7188s0.50507-1.8254 1.5312-2.7188c1.0262-0.89336 2.5514-1.7311 4.4688-2.4375 3.8348-1.4129 9.2087-2.3125 15.125-2.3125zm0 3.2188c-3.1355-0.00061-7.2963 0.0924-10.781 0.625-1.7425 0.26628-3.312 0.65182-4.5312 1.1875s-2.1482 1.2748-2.3438 2.3438l-0.0312 0.0937 0.0312 0.0937c0.19594 0.81286 0.83444 1.4466 1.75 1.9375 0.91556 0.49087 2.1212 0.88937 3.625 1.1875 3.0076 0.59625 7.191 1.6096 12.281 1.6096 5.0876 0 9.3014-0.97148 12.375-1.5471 1.5368-0.28781 2.7673-0.6585 3.7188-1.1562 0.95143-0.49775 1.6489-1.1557 1.875-2l0.0312-0.15625-0.0312-0.125c-0.30559-1.0401-1.3021-1.7516-2.5625-2.2812-1.2603-0.5296-2.8338-0.88714-4.5938-1.1562-3.5197-0.53823-7.6758-0.65575-10.812-0.65625v0.0001zm0 1c3.1099 0.0005 7.2303 0.13237 10.656 0.65625 1.713 0.26194 3.2428 0.61799 4.375 1.0938 1.0345 0.43468 1.6414 0.94091 1.875 1.4688-0.15803 0.44624-0.4969 0.856-1.25 1.25-0.80958 0.42355-1.9899 0.78555-3.4688 1.0625-2.9576 0.5539-7.1305 1.5471-12.188 1.5471-5.0544 0-9.1719-1.0366-12.062-1.6096-1.4453-0.28653-2.6-0.647-3.375-1.0625-0.71759-0.38473-1.0208-0.7844-1.1562-1.1875 0.16572-0.52679 0.69149-1.0624 1.6875-1.5 1.0804-0.47468 2.5874-0.8349 4.2812-1.0938 3.3877-0.5177 7.514-0.6256 10.625-0.625z" filter="url(#aj)" fill="url(#t)"/>
<path opacity=".92511" style="color:#000000" d="m168.74 789.79s-7.5407 2.0281-14.592 2.0281c-7.0517 0-13.59-2.885-13.59-2.885s6.8673 1.4948 13.919 1.4948 14.264-0.638 14.264-0.638z" transform="matrix(.99987 -.016187 .016187 .99987 -11.158 58.061)" filter="url(#z)" fill="#e90067"/>
</g>
<g transform="matrix(1 0 0 -.89136 22.852 1611.8)">
<path d="m250.65 839.52v-3.458h4.8431l0.007 3.4717" stroke="url(#f)" stroke-linecap="square" stroke-width=".52959" fill="#fff"/>
<g transform="matrix(.20646 0 0 .20646 226.52 704.28)">
<circle cx="160.79" transform="matrix(.64502 0 0 .67601 17.319 156.7)" cy="721.26" r="2.962" fill="url(#b)"/>
<rect rx=".54569" ry="1.0123" height="2.0194" width="12.869" y="643.28" x="124.36" fill="#0a67d7"/>
</g>
<path d="m250.73 836.15h4.6795v3.5019c-1.5598 0.32907-3.1197 0.29388-4.6795 0v-3.5019z" fill="url(#e)"/>
<g transform="matrix(.20646 0 0 .20646 226.52 704.31)">
<circle cx="160.79" transform="matrix(.64502 0 0 .67601 17.319 162.36)" cy="721.26" r="2.962" fill="url(#a)"/>
<rect rx=".54569" ry="1.0123" height="2.0194" width="12.869" y="648.93" x="124.36" fill="#0a67d7"/>
</g>
</g>
<g transform="translate(24.858 27.011)">
<path d="m253.3 841.79-5.3483-4.1485 0.20043-0.26932-0.33797-0.72245 1.3918-1.6602 0.94866 0.0745 2.4592-2.9331 4.2609 3.7184-3.5747 5.9407z" stroke-opacity=".70930" fill-rule="evenodd" stroke="#00005c" stroke-width=".5" fill="url(#s)"/>
<path stroke-linejoin="round" d="m256.87 835.86c-0.1381 0.29024-3.5797 5.9393-3.5797 5.9393l-3.2853-2.878 1.2541-1.5224-0.56617-1.2744 2.603-3.1597 3.5741 2.8952z" stroke-opacity=".70930" fill-rule="evenodd" stroke="#00005c" stroke-linecap="round" stroke-width=".5" fill="url(#r)"/>
<rect stroke-linejoin="round" fill-opacity=".88372" transform="matrix(.53215 -.84665 .77183 .63583 0 0)" height=".96341" width="4.2386" stroke="#fff" stroke-linecap="round" y="665.85" x="-491.07" stroke-width=".50206" fill="#fff"/>
<path d="m195.96 620.76h6.7456l2.1723-4.4589 15.206-0.00001" stroke-opacity=".68605" transform="matrix(.17275 -.20969 .20969 .17275 85.859 772.55)" filter="url(#x)" stroke="#000" stroke-width="1.8404" fill="none"/>
</g>
<path style="color:#000000" d="m282.51 862.4-2.1404 10.939c-0.65655 2.2962-8.931 2.0544-9.2719-0.2314-0.7966-3.8084-1.1045-6.8561-1.8232-10.707 2.97 2.305 8.9583 2.6378 13.235 0z" stroke-opacity=".84737" fill-rule="evenodd" stroke="#333" stroke-width="0.5" fill="url(#m)"/>
<path style="color:#000000;text-indent:0;block-progression:tb;text-decoration-line:none;text-transform:none" d="m154.83 817.97c-2.4602-0.00052-5.7897 0.20365-8.5938 0.75-1.402 0.27317-2.6645 0.63133-3.6562 1.125-2.3554 1.373-2.4339 2.4765-0.4375 4.0937 0.77375 0.50964 1.8081 0.93819 3.0625 1.3125 2.5088 0.74862 5.914 1.2188 9.9062 1.2188 3.9894 0 7.3946-0.42445 9.9062-1.1562 1.2558-0.3659 2.2789-0.82703 3.0625-1.3438 0.78356-0.51672 1.3492-1.1116 1.5312-1.8438l0.0312-0.125-0.0312-0.125c-0.24894-0.91278-1.0682-1.545-2.125-2.0312-3.9978-1.588-8.3987-1.8066-12.656-1.875v0.00005zm0 1c2.4065 0.00041 5.7682 0.21783 8.5938 0.75 1.4128 0.26609 2.6918 0.60191 3.625 1.0312 0.86405 0.39755 1.2995 0.86126 1.4688 1.2812-0.13704 0.34905-0.38661 0.74111-0.96875 1.125-0.66056 0.4356-1.6226 0.8408-2.8125 1.1875-2.3799 0.69341-5.7088 1.125-9.625 1.125-3.9134 0-7.2456-0.47751-9.625-1.1875-1.1897-0.355-2.1282-0.75734-2.7812-1.1875-0.59884-0.39442-0.86152-0.77425-0.96875-1.0938 0.11883-0.42393 0.48355-0.88419 1.2812-1.2812 0.85606-0.42612 2.056-0.76817 3.4062-1.0312 2.7005-0.52616 5.9985-0.71925 8.4062-0.71875z" fill-rule="evenodd" transform="matrix(.28165 0 0 .28165 232.01 642.11)" filter="url(#ad)" fill="#333"/>
<ellipse opacity=".92511" style="color:#000000" rx="13.155" transform="matrix(.33036 0 0 .60855 224.78 372.49)" ry="1.908" filter="url(#af)" cy="823.2" cx="154.25" fill="#591127"/>
<path style="color:#000000" d="m15.431 799.78c3.4007 3.0785 6.2889 4.5638 9.9906 5.6977l-3.1579 31.984c-2.6361-0.97259-5.4665-1.6709-7.8618-4.2001 0.0042-10.877 0.65645-22.534 1.0291-33.482z" fill-rule="evenodd" transform="matrix(.32647 -.044817 .050530 .28956 224.25 632.65)" filter="url(#at)" fill="url(#q)"/>
<path style="color:#000000" d="m282.95 806.42c-11.932 0-21.615 3.5679-21.615 7.9631 0 4.3951 9.6825 7.9329 21.615 7.9329s21.615-3.5378 21.615-7.9329-9.6825-7.9631-21.615-7.9631zm0 4.2193c6.2466 0.001 16.539 0.5057 17.49 3.7437-0.71099 2.6545-7.3457 3.5863-17.49 3.5863-10.145 0-16.568-1.0909-17.169-3.5863 0.60149-3.2877 10.923-3.745 17.169-3.7437z" fill-rule="evenodd" transform="matrix(.33036 0 0 .33036 182.35 593.04)" filter="url(#ar)" fill="#9b0f4e"/>
<ellipse opacity=".92511" stroke="url(#p)" style="color:#000000" fill-opacity=".77647" rx="15.64" transform="matrix(.35418 0 0 .65592 221.23 322.08)" ry="1.908" filter="url(#w)" cy="823.2" cx="154.25" stroke-width=".51868" fill="#a9a9a9"/>
<path style="color:#000000;text-indent:0;block-progression:tb;text-decoration-line:none;text-transform:none" d="m282.97 805.91c-6.016 0-11.479 0.90512-15.469 2.375-1.9948 0.73494-3.6191 1.582-4.7813 2.5938s-1.875 2.2176-1.875 3.5 0.71262 2.4598 1.875 3.4688c1.1624 1.0089 2.7865 1.8627 4.7813 2.5938 3.9895 1.4622 9.4532 2.375 15.469 2.375 6.0156 0 11.448-0.91284 15.438-2.375 1.9948-0.73108 3.6501-1.5848 4.8125-2.5938 1.1624-1.0089 1.8438-2.1864 1.8438-3.4688s-0.68155-2.4882-1.8438-3.5-2.8177-1.8588-4.8125-2.5938c-3.9895-1.4699-9.4215-2.375-15.438-2.375zm0 1c5.9163 0 11.259 0.89963 15.094 2.3125 1.9174 0.70644 3.4738 1.5441 4.5 2.4375 1.0262 0.89336 1.5 1.8036 1.5 2.7188 0 0.91519-0.47404 1.8282-1.5 2.7188-1.026 0.89051-2.5826 1.7035-4.5 2.4062-3.8348 1.4055-9.177 2.3125-15.094 2.3125-5.9168 0-11.29-0.907-15.125-2.3125-1.9174-0.70275-3.4428-1.5157-4.4688-2.4062-1.026-0.89051-1.5312-1.8036-1.5312-2.7188s0.50507-1.8254 1.5312-2.7188c1.0262-0.89336 2.5514-1.7311 4.4688-2.4375 3.8348-1.4129 9.2087-2.3125 15.125-2.3125zm0 3.2188c-3.1355-0.00061-7.2963 0.0924-10.781 0.625-1.7425 0.26628-3.312 0.65182-4.5312 1.1875s-2.1482 1.2748-2.3438 2.3438l-0.0312 0.0937 0.0312 0.0937c0.19596 0.81286 0.83445 1.4466 1.75 1.9375 0.91556 0.49087 2.1212 0.88937 3.625 1.1875 3.0076 0.59625 7.191 0.84375 12.281 0.84375 5.0876 0 9.3014-0.20562 12.375-0.78125 1.5368-0.28781 2.7673-0.6585 3.7188-1.1562 0.95142-0.49775 1.6489-1.1557 1.875-2l0.0312-0.15625-0.0312-0.125c-0.30559-1.0401-1.3021-1.7516-2.5625-2.2812s-2.8339-0.88714-4.5938-1.1562c-3.5197-0.53823-7.6758-0.65575-10.812-0.65625zm0 1c3.1099 0.0005 7.2303 0.13237 10.656 0.65625 1.713 0.26194 3.2428 0.61799 4.375 1.0938 1.0345 0.43468 1.6414 0.94091 1.875 1.4688-0.15803 0.44624-0.4969 0.856-1.25 1.25-0.80958 0.42355-1.9899 0.78555-3.4688 1.0625-2.9576 0.5539-7.1305 0.78125-12.188 0.78125-5.0544 0-9.1719-0.2707-12.062-0.84375-1.4453-0.28653-2.6-0.647-3.375-1.0625-0.71759-0.38473-1.0208-0.7844-1.1562-1.1875 0.16572-0.52679 0.69149-1.0624 1.6875-1.5 1.0804-0.47468 2.5874-0.8349 4.2812-1.0938 3.3877-0.5177 7.514-0.6256 10.625-0.625z" fill-rule="evenodd" transform="matrix(.33036 0 0 .33036 182.35 593.04)" filter="url(#an)" fill="url(#o)"/>
<path style="color:#000000;text-indent:0;block-progression:tb;text-decoration-line:none;text-transform:none" d="m282.97 805.91c-6.016 0-11.479 0.90512-15.469 2.375-1.9948 0.73494-3.6191 1.582-4.7813 2.5938s-1.875 2.2176-1.875 3.5 0.71262 2.4598 1.875 3.4688c1.1624 1.0089 2.7865 1.8627 4.7813 2.5938 3.9895 1.4622 9.4532 2.375 15.469 2.375 6.0156 0 11.448-0.91284 15.438-2.375 1.9948-0.73108 3.6501-1.5848 4.8125-2.5938 1.1624-1.0089 1.8438-2.1864 1.8438-3.4688s-0.68154-2.4882-1.8438-3.5c-1.1622-1.0118-2.8177-1.8588-4.8125-2.5938-3.9895-1.4699-9.4215-2.375-15.438-2.375zm0 1c5.9163 0 11.259 0.89963 15.094 2.3125 1.9174 0.70644 3.4738 1.5441 4.5 2.4375 1.0262 0.89336 1.5 1.8036 1.5 2.7188 0 0.91519-0.47404 1.8282-1.5 2.7188-1.026 0.89051-2.5826 1.7035-4.5 2.4062-3.8349 1.4055-9.177 2.3125-15.094 2.3125-5.9168 0-11.29-0.907-15.125-2.3125-1.9174-0.70275-3.4428-1.5157-4.4688-2.4062-1.026-0.89051-1.5312-1.8036-1.5312-2.7188s0.50507-1.8254 1.5312-2.7188c1.0262-0.89336 2.5514-1.7311 4.4688-2.4375 3.8348-1.4129 9.2087-2.3125 15.125-2.3125zm0 3.2188c-3.1355-0.00061-7.2963 0.0924-10.781 0.625-1.7425 0.26628-3.312 0.65182-4.5312 1.1875s-2.1482 1.2748-2.3438 2.3438l-0.0312 0.0937 0.0312 0.0937c0.19594 0.81286 0.83444 1.4466 1.75 1.9375 0.91556 0.49087 2.1212 0.88937 3.625 1.1875 3.0076 0.59625 7.191 0.84375 12.281 0.84375 5.0876 0 9.3014-0.20562 12.375-0.78125 1.5368-0.28781 2.7673-0.6585 3.7188-1.1562 0.95143-0.49775 1.6489-1.1557 1.875-2l0.0312-0.15625-0.0312-0.125c-0.30559-1.0401-1.3021-1.7516-2.5625-2.2812-1.2603-0.5296-2.8338-0.88714-4.5938-1.1562-3.5197-0.53823-7.6758-0.65575-10.812-0.65625zm0 1c3.1099 0.0005 7.2303 0.13237 10.656 0.65625 1.713 0.26194 3.2428 0.61799 4.375 1.0938 1.0345 0.43468 1.6414 0.94091 1.875 1.4688-0.15803 0.44624-0.4969 0.856-1.25 1.25-0.80958 0.42355-1.9899 0.78555-3.4688 1.0625-2.9576 0.5539-7.1305 0.78125-12.188 0.78125-5.0544 0-9.1719-0.2707-12.062-0.84375-1.4453-0.28653-2.6-0.647-3.375-1.0625-0.71759-0.38473-1.0208-0.7844-1.1562-1.1875 0.16572-0.52679 0.69149-1.0624 1.6875-1.5 1.0804-0.47468 2.5874-0.8349 4.2812-1.0938 3.3877-0.5177 7.514-0.6256 10.625-0.625z" fill-rule="evenodd" transform="matrix(.33036 0 0 .33036 182.35 593.04)" filter="url(#al)" fill="url(#n)"/>
<rect rx=".082762" ry=".092563" height="18.308" width="15.649" y="858.77" x="268" fill="none"/>
<g transform="matrix(1 0 0 .89136 22.852 114.47)">
<path d="m250.65 839.52v-3.458h4.8431l0.007 3.4717" stroke="url(#f)" stroke-linecap="square" stroke-width=".52959" fill="#fff"/>
<g transform="matrix(.20646 0 0 .20646 226.52 704.28)">
<circle cx="160.79" transform="matrix(.64502 0 0 .67601 17.319 156.7)" cy="721.26" r="2.962" fill="url(#b)"/>
<rect rx=".54569" ry="1.0123" height="2.0194" width="12.869" y="643.28" x="124.36" fill="#0a67d7"/>
</g>
<path d="m250.73 836.15h4.6795v3.5019c-1.5598 0.32907-3.1197 0.29388-4.6795 0v-3.5019z" fill="url(#e)"/>
<g transform="matrix(.20646 0 0 .20646 226.52 704.31)">
<circle cx="160.79" transform="matrix(.64502 0 0 .67601 17.319 162.36)" cy="721.26" r="2.962" fill="url(#a)"/>
<rect rx=".54569" ry="1.0123" height="2.0194" width="12.869" y="648.93" x="124.36" fill="#0a67d7"/>
</g>
</g>
<path opacity=".92511" style="color:#000000" d="m170.49 789.05c-0.0162 1.0018-9.289 2.8687-16.344 2.761-6.0498-0.0923-15.276-3.2296-14.669-3.4462 0 0 7.9458 2.056 14.997 2.056 7.0517 0 16.015-1.3709 16.015-1.3709z" fill-rule="evenodd" transform="matrix(.33031 -.0053476 .0053476 .33031 220.43 602.91)" filter="url(#ab)" fill="#e90067"/>
<path d="m274.47 866.21-0.98689 1.711 1.3598 0.79055 0.83938-1.4544 0.32827 0.56825-0.34697 0.20049 0.0893 0.15583h1.39l0.68667-1.1874-0.0945-0.16414-0.33555 0.19322-0.46644-0.8134h-2.4631 0.00001zm3.37 1.7193-1.364 0.78224 0.83937 1.4544h-0.65654v-0.40098h-0.17868l-0.69498 1.204 0.68459 1.1874h0.18907v-0.38645l0.93807 0.003 1.2321-2.1327-0.98897-1.711v0.00012zm-5.2087 0.4415-0.0945 0.16311 0.33451 0.19425-0.47164 0.8103 1.2321 2.1338 1.9759-0.001 0.004-1.5728h-1.6798l0.32828-0.56825 0.34801 0.2005 0.0893-0.15479-0.69497-1.204-1.3713-0.001 0.00015-0.00007z" stroke="#000" stroke-width=".1" fill="#f0f"/>
<rect opacity=".92511" style="color:#000000" height="19" width="19" y="858.42" x="266.32" fill="none"/>
<g transform="matrix(0.314 0 0 0.314 266.44 781.7)">
<path d="m11.933 278.39c-1.0852 0.005-1.0937 0.003-3.2632 0.0167-0.54306 0.00025-0.88785-0.21306-1.236-0.65741-0.48832-0.56154-0.29938-2.1106-0.44905-3.1664-1.0639-4.6615-2.3635-5.337-4.0415-9.5033-0.87895-2.6014-0.58151-5.131 1.1248-7.6975 0.95998-1.2347 2.9088-4.0308 7.8649-4.0942 4.9561 0.0635 6.9049 2.8595 7.8649 4.0942 1.7063 2.5665 1.9995 5.0961 1.1205 7.6975-1.579 3.8434-2.9967 4.7584-4.0415 9.5033-0.14968 1.0557 0.03926 2.6048-0.44906 3.1664-0.34813 0.44435-0.68864 0.65766-1.2317 0.65741-2.1695-0.0136-2.178-0.0116-3.2632-0.0167z" fill-rule="evenodd" stroke="#000" stroke-width="1.9427" fill="url(#i)"/>
<path d="m11.916 277.77c-0.62989 0.003-1.5016 0.002-3.246 0.0125-0.36984 0.00018-0.43859-0.0492-0.72277-0.41192-0.0069-0.009-0.01403-0.0168-0.02138-0.025-0.029407-0.0338-0.17022-0.46964-0.20101-1.0277-0.030784-0.55808-0.01698-1.2182-0.10264-1.8224-0.00236-0.014-0.00522-0.0278-0.00855-0.0416-1.052-4.8083-2.7331-5.9201-4.0715-9.6115-0.80537-2.4183-0.54857-4.6734 1.0392-7.0817 0.00359-0.005 0.00923-0.012 0.012838-0.0166 0.94076-1.2125 3.0714-3.9011 7.3046-3.8447 4.2332-0.0564 6.4281 2.6322 7.3688 3.8447 0.0036 0.005 0.0093 0.012 0.01284 0.0166 1.5878 2.4083 1.8446 4.6634 1.0392 7.0817-1.6942 3.9475-3.0202 4.804-4.0715 9.6115-0.0033 0.0138-0.0062 0.0276-0.0086 0.0416-0.08566 0.6042-0.07186 1.2644-0.10264 1.8224-0.03078 0.55808-0.1716 0.9939-0.20101 1.0277-0.0073 0.008-0.01448 0.0165-0.02138 0.025-0.28418 0.36274-0.35294 0.4121-0.72277 0.41192-1.7444-0.0109-2.6461-0.01-3.276-0.0125z" stroke-opacity=".87791" fill-rule="evenodd" stroke="#1a1a1a" stroke-width=".42990px" fill="url(#h)"/>
<path stroke-linejoin="round" d="m11.446 277.64-0.04947-6.7412c-0.98477-0.37663-5.7435-3.1882-3.0176-5.9678 1.3337-0.95166 2.6403 0.60207 2.9172 1.444 0.50706 1.5415 0.27911 0.84068 0.56267 2.0212 0.28358 1.1805 0.1234-1.0584 0.71977-2.2938 0.67836-1.4053 2.1595-2.8007 3.3691-1.9896 2.9459 2.5889-4.0892 6.8739-3.7102 6.786l0.14841 6.7379-0.93991 0.003z" stroke-opacity=".40116" fill-rule="evenodd" stroke="#000" stroke-linecap="round" stroke-width=".68784" fill="url(#l)"/>
<path stroke-linejoin="round" d="m11.066 269.8c-0.41627-0.006-1.594-1.0398-2.1898-2.0707-0.39298-0.57027-0.80023-1.7191 0.18419-2.1105 0.79306-0.0493 1.2362 0.8973 1.3916 1.2743 0.48023 0.82497 0.56454 1.8724 0.61395 2.9069z" stroke-opacity=".40116" fill-rule="evenodd" fill-opacity=".94902" stroke="#000" stroke-linecap="round" stroke-width=".68784" fill="#ffec00"/>
<path stroke-linejoin="round" d="m12.581 269.4c0.02995-0.30427 0.60312-2.2845 0.83908-2.8074 0.35211-1.1445 1.0765-1.9025 1.8214-1.7123 0.98349 0.96353-0.07294 2.0526-0.28652 2.3096-0.79132 0.97949-1.5827 1.7084-2.374 2.2101z" stroke-opacity=".40116" fill-rule="evenodd" fill-opacity=".70196" stroke="#000" stroke-linecap="round" stroke-width=".68784" fill="#ffed00"/>
<path stroke-linejoin="round" d="m438.47 693.53a17.278 5.7594 0 0 1 -8.6446 4.9888 17.278 5.7594 0 0 1 -17.284 -0.003 17.278 5.7594 0 0 1 -8.628 -4.992" stroke-opacity=".87209" transform="matrix(.13426 0 0 .23942 -44.722 117.54)" stroke="#999" stroke-linecap="round" stroke-width="6.3694" fill="#1a1a1a"/>
<path stroke-linejoin="round" d="m15.249 283.41h-6.8197c-0.72815-0.4591-0.8578-0.95244-0.034269-1.5003-1.0892-0.82288-0.39153-1.1345 0-1.5337-0.81447-0.63389-0.60788-1.1436 0.034269-1.6004h6.7854c0.51505 0.43546 0.87086 0.9019 0.03427 1.6004 0.24508 0.40474 1.0227 0.60223 0 1.5003 0.40485 0.44143 1.0956 0.74878 0 1.5337z" stroke-opacity=".99419" fill-rule="evenodd" stroke="#000" stroke-linecap="round" stroke-width=".90279" fill="url(#k)"/>
<path d="m8.4636 280.31 6.8197 0.0333" fill-rule="evenodd" fill-opacity=".81569" stroke="#333" stroke-width=".42990px" fill="#424242"/>
<path d="m8.4978 281.91 6.6141-0.0333" stroke="#333" stroke-width=".42990px" fill="none"/>
<path d="m4.1509 264.9c-0.47254-1.8754-0.18998-4.2085 1.1805-6.5985 2.1046-3.4734 5.1925-3.1292 7.0951-3.1662-2.8352 3.1934-5.2726 6.1317-8.2755 9.7646z" fill-rule="evenodd" fill="url(#j)"/>
</g>
</g>
</g>
</svg>
