<?xml version="1.0" encoding="UTF-8" standalone="no"?>
<svg xmlns:rdf="http://www.w3.org/1999/02/22-rdf-syntax-ns#" xmlns="http://www.w3.org/2000/svg" height="297mm" width="210mm" version="1.1" xmlns:cc="http://creativecommons.org/ns#" xmlns:xlink="http://www.w3.org/1999/xlink" viewBox="0 0 744.09448819 1052.3622047" xmlns:dc="http://purl.org/dc/elements/1.1/">
 <defs>
  <linearGradient id="a">
   <stop stop-color="#fff" stop-opacity="0" offset="0"/>
   <stop stop-color="#fff" offset=".5"/>
   <stop stop-color="#fff" stop-opacity="0" offset="1"/>
  </linearGradient>
  <radialGradient id="b" gradientUnits="userSpaceOnUse" cy="29.5" cx="24.5" gradientTransform="matrix(-.66258 0 0 .68659 -347.76 301.72)" r="15.095">
   <stop stop-color="#f2f4f1" offset="0"/>
   <stop stop-color="#d3d7cf" offset="1"/>
  </radialGradient>
  <linearGradient id="f" y2="39.685" gradientUnits="userSpaceOnUse" x2="34.534" gradientTransform="matrix(.90504 0 0 .90504 -531.65 73.301)" y1="12.285" x1="14.463">
   <stop stop-color="#8da6d8" offset="0"/>
   <stop stop-color="#b4c5e5" offset=".25"/>
   <stop stop-color="#d8e1f2" offset=".5"/>
   <stop stop-color="#92aada" offset=".75"/>
   <stop stop-color="#8ea7d8" offset="1"/>
  </linearGradient>
  <linearGradient id="e" y2="34.095" gradientUnits="userSpaceOnUse" x2="24.095" gradientTransform="matrix(-.30564 0 0 .31672 -356.63 312.76)" y1="12.595" x1="24.095">
   <stop stop-color="#eeeeec" offset="0"/>
   <stop stop-color="#fff" offset="1"/>
  </linearGradient>
  <linearGradient id="d" y2="8.162" xlink:href="#a" gradientUnits="userSpaceOnUse" x2="39.438" gradientTransform="matrix(.30759 0 0 .31873 -367.07 312.43)" y1="6.7174" x1="38.293"/>
  <linearGradient id="c" y2="6.7844" xlink:href="#a" gradientUnits="userSpaceOnUse" x2="9.0675" gradientTransform="matrix(.30759 0 0 .31873 -371.38 312.43)" y1="7.9334" x1="8.1169"/>
 </defs>
 <metadata>
  <rdf:RDF>
   <cc:Work rdf:about="">
    <dc:format>image/svg+xml</dc:format>
    <dc:type rdf:resource="http://purl.org/dc/dcmitype/StillImage"/>
    <dc:title/>
   </cc:Work>
  </rdf:RDF>
 </metadata>
 <g transform="matrix(1.0108 0 0 1.0108 371.91 -38.63)">
  <g transform="matrix(.91676 0 0 1.0362 -.71868 -11.019)">
   <path style="color:#000000" d="m-368.29 313.87h12.898c0.77265 0 1.3947 0.66121 1.3947 1.4825v9.134c0 0.82132-0.62203 1.4825-1.3947 1.4825h-12.898c-0.77265 0-1.3947-0.6612-1.3947-1.4825v-9.134c0-0.82131 0.62203-1.4825 1.3947-1.4825z" display="block" stroke="#50514e" stroke-width=".31311" fill="#d3d7cf"/>
   <path style="color:#000000" d="m-356.09 314.82h-11.267c-0.60565 0-1.0932 0.50525-1.0932 1.1328v6.9796c0 0.62759 0.48757 1.1328 1.0932 1.1328h11.267c0.60564 0 1.0932-0.50525 1.0932-1.1328v-6.9796c0-0.62759-0.48758-1.1328-1.0932-1.1328z" display="block" stroke="url(#e)" stroke-width=".31311" fill="url(#b)"/>
   <path opacity=".48889" style="color:#000000" d="m-368.3 314.18h12.896c0.6028 0 1.0881 0.50287 1.0881 1.1275v9.2229c0 0.62464-0.48528 1.1275-1.0881 1.1275h-12.896c-0.6028 0-1.0881-0.50288-1.0881-1.1275v-9.2229c0-0.62465 0.48528-1.1275 1.0881-1.1275z" display="block" stroke="#fff" stroke-width=".31311" fill="none"/>
   <path opacity=".48889" style="color:#000000" display="block" fill="#fff" d="m-369.55 324.7c0.0192 0.35857 0.4037 0.93628 0.86508 1.0558l0.67285-1.753-0.28837-0.21913-1.2496 0.91636z"/>
   <path opacity=".48889" style="color:#000000" d="m-354.13 324.7c-0.0192 0.35857-0.40371 0.93628-0.86509 1.0558l-0.67284-1.753 0.28836-0.21913 1.2496 0.91636z" display="block" fill="#fff"/>
   <path style="color:#000000" display="block" fill="url(#d)" d="m-354.3 314.7c-0.13457-0.17929-0.36526-0.51794-0.67284-0.61754l-0.59595 0.81675 0.28836 0.31873 0.98043-0.51794z"/>
   <path style="color:#000000" d="m-369.4 314.7c0.13457-0.17929 0.34603-0.49802 0.65362-0.59762l0.57672 0.85659-0.21146 0.31874-1.0189-0.57771z" display="block" fill="url(#c)"/>
   <text style="word-spacing:0px;letter-spacing:.34299px" font-family="Sans" xml:space="preserve" font-size="4.1159px" stroke="#000000" line-height="125%" y="321.10919" x="-367.7739" stroke-width=".21336" fill="#000000"><tspan y="321.10919" x="-367.7739" stroke-width=".21336">CTRL</tspan></text>
  </g>
  <g transform="matrix(.28643 0 0 .28643 -181.68 297.89)">
   <path style="color:#000000" fill="url(#f)" stroke="#003380" stroke-width="1.1981" d="m-511.05 78.896c-0.33917 0.02321-0.66885 0.07574-1.002 0.11386h-0.0228l-0.79705 4.3496c-1.2991 0.29586-2.5213 0.79795-3.6209 1.4802l-3.5753-2.5733c-0.9665 0.75036-1.846 1.6255-2.6189 2.5733l2.4822 3.6209c-0.75367 1.1518-1.3204 2.4669-1.6396 3.8486-0.00006 0.0066-0.00005 0.02164 0 0.02277l-4.3268 0.68318c-0.0791 0.64612-0.11386 1.3139-0.11386 1.9812 0 0.54604 0.0151 1.0848 0.0683 1.6169l4.3268 0.77427c0.30773 1.5026 0.8923 2.9058 1.708 4.1446l-2.5733 3.5298c0.73698 0.91493 1.5878 1.7479 2.505 2.4822l3.6436-2.505c1.2734 0.81233 2.6949 1.3819 4.2357 1.6624l0.68319 4.3041c0.48546 0.0442 0.98331 0.0456 1.4802 0.0456 0.70153-0.00001 1.3716-0.0266 2.0495-0.11387l0.81982-4.3951c1.463-0.36407 2.8373-0.99566 4.0308-1.8446l3.507 2.5505c0.90947-0.77376 1.7411-1.6631 2.4595-2.6189l-2.5506-3.6892c0.69072-1.1929 1.1693-2.5091 1.4119-3.9169l4.304-0.68318c0.0377-0.44915 0.0455-0.88474 0.0455-1.3436 0-0.79738-0.0927-1.5792-0.20496-2.3456l-4.3724-0.79705c-0.34264-1.2652-0.90484-2.4457-1.6169-3.507l2.5733-3.5298c-0.79765-0.97548-1.7075-1.8766-2.71-2.6416l-3.712 2.5505c-1.0669-0.63096-2.2149-1.1151-3.4615-1.3891l-0.68318-4.3268c-0.62183-0.07315-1.2488-0.11386-1.8901-0.11386-0.17335 0-0.35175-0.0055-0.52378 0-0.0839 0.0027-0.16685-0.0049-0.2505 0-0.0226 0.0013-0.0457-0.0015-0.0683 0zm0.5921 11.068c0.0832-0.0042 0.16626 0 0.2505 0 2.6957 0 4.8961 2.2005 4.8961 4.8961 0 2.6957-2.2005 4.8734-4.8961 4.8734-2.6957 0-4.8734-2.1777-4.8734-4.8734 0-2.6114 2.0438-4.7653 4.6229-4.8961z"/>
   <g stroke="#fff" fill="none">
    <circle opacity=".64773" style="color:#000000" stroke-width="2.4597" transform="matrix(.48710 0 0 .48710 -521.65 83.397)" cy="23.782" cx="23.511" r="12.728"/>
    <path opacity=".34659" style="color:#000000" stroke-width="1.1981" d="m-511.47 80.748-0.60389 3.974c-1.1491 0.26168-3.2628 1.062-4.2353 1.6655l-3.2128-2.398c-0.85487 0.6637-0.9135 0.70871-1.5971 1.5471l2.3229 3.4451c-0.66662 1.0187-1.4673 2.8342-1.7548 4.1315 0 0-4.0705 0.68617-4.0705 0.68617-0.07 0.57149-0.0363 1.7946 0.0108 2.2653l3.8882 0.70044c0.27218 1.329 1.2908 3.4683 2.0122 4.564l-2.4588 3.2485c0.65186 0.80926 0.78232 0.88331 1.5936 1.5328l3.2878-2.4087c1.1263 0.7185 3.362 1.5925 4.7248 1.8406l0.5396 3.924c0.4294 0.0391 1.6156 0.14873 2.2152 0.0715l0.60389-4.0848c1.294-0.32202 3.5299-1.2398 4.5855-1.9907l3.2843 2.373c0.80443-0.68439 0.81164-0.78752 1.447-1.6329l-2.4338-3.4594c0.61095-1.0551 1.4009-3.1187 1.6155-4.3639l3.9847-0.66116c0.0334-0.39727 0.035-1.5051-0.0643-2.183l-4.0598-0.70044c-0.30307-1.1191-1.3431-3.1357-1.9729-4.0744l2.5803-3.2485c-0.70552-0.86281-0.96784-0.9812-1.8545-1.6579l-3.3986 2.4338c-0.94364-0.55808-2.8253-1.4088-3.9279-1.6512l-0.60037-3.8882c-0.55001-0.0647-2.1368-0.03597-2.4512 0z"/>
   </g>
  </g>
 </g>
</svg>
