<?xml version="1.0" encoding="UTF-8" standalone="no"?>
<svg xmlns:rdf="http://www.w3.org/1999/02/22-rdf-syntax-ns#" xmlns="http://www.w3.org/2000/svg" height="297mm" width="210mm" version="1.1" xmlns:cc="http://creativecommons.org/ns#" xmlns:xlink="http://www.w3.org/1999/xlink" viewBox="0 0 744.09448819 1052.3622047" xmlns:dc="http://purl.org/dc/elements/1.1/">
 <defs>
  <linearGradient id="d" y2="166.63" gradientUnits="userSpaceOnUse" x2="-239.54" y1="192.64" x1="-241.17">
   <stop stop-color="#c8e3ee" offset="0"/>
   <stop stop-color="#fff" offset="1"/>
  </linearGradient>
  <linearGradient id="c" y2="170.07" gradientUnits="userSpaceOnUse" x2="-230.53" y1="173.28" x1="-229.32">
   <stop stop-color="#90c7dc" offset="0"/>
   <stop stop-color="#fff" offset="1"/>
  </linearGradient>
  <linearGradient id="b" y2="191.93" gradientUnits="userSpaceOnUse" x2="-245.73" y1="194.64" x1="-245.55">
   <stop stop-color="#64afd2" offset="0"/>
   <stop stop-color="#fff" offset="1"/>
  </linearGradient>
  <linearGradient id="a" y2="377.6" gradientUnits="userSpaceOnUse" x2="142.38" gradientTransform="matrix(-.30290 .00021942 -.00031283 -.19286 -348.14 341.34)" y1="388.92" x1="160.7">
   <stop stop-color="#36d200" offset="0"/>
   <stop stop-color="#fff" offset="1"/>
  </linearGradient>
 </defs>
 <metadata>
  <rdf:RDF>
   <cc:Work rdf:about="">
    <dc:format>image/svg+xml</dc:format>
    <dc:type rdf:resource="http://purl.org/dc/dcmitype/StillImage"/>
    <dc:title/>
   </cc:Work>
  </rdf:RDF>
 </metadata>
 <g transform="matrix(1.0548 0 0 1.0548 456.86 -117.76)">
  <g stroke-linejoin="round" transform="matrix(.55109 0 0 .57877 -265.38 162.31)" stroke-width="1px">
   <path d="m-234.63 195.29-17.922-0.12801c8.8005-1.9328-0.41555-23.448 5.7606-24.963l18.07-0.0756c-6.9699 0.86566 0.94577 25.241-5.9087 25.166z" stroke="#0073b3" fill="url(#d)"/>
   <path d="m-231.5 173.78 4.6146 0.0567c0.13634-1.7956-0.74159-3.7591-1.9593-3.7557-1.9505 0.50173-2.2545 2.4591-2.6554 3.699z" stroke="#0073b3" fill="url(#c)"/>
   <path d="m-252.62 195.16c-2.0319-0.87677-2.019-2.4351-2.2929-3.8979h18.458c0.17074 1.9039 0.56722 3.7897 1.9776 3.9266z" stroke="#0072af" fill="url(#b)"/>
  </g>
  <path stroke-linejoin="round" style="color:#000000;text-indent:0;block-progression:tb;text-decoration-line:none;text-transform:none" d="m-404.76 267.01c0.68916 0.0141 1.3258 0.0845 2.0493 0.6808 0.68479 0.57469 1.5621 1.188 2.1461 1.1213-0.48823 0.0517-1.2588-0.61277-1.9334-1.3097-1.0109-1.0316-1.5542-1.1334-2.258-1.1478l-0.004 0.65533v0z" stroke-opacity=".99608" stroke="#000080" stroke-linecap="round" stroke-width=".17577" fill="#003380"/>
  <g transform="matrix(.39283 0 0 .39283 -296.78 -72.13)">
   <rect stroke-linejoin="round" height="7.3909" stroke="#000080" stroke-width=".85776" fill="#fff" fill-rule="evenodd" rx="1.7122" ry="1.6299" width="15.142" y="864.46" x="-264.93"/>
  </g>
  <path stroke-linejoin="round" style="color:#000000;text-indent:0;block-progression:tb;text-decoration-line:none;text-transform:none" d="m-404.41 266.34c0.68916-0.0141 1.3258-0.0845 2.0493-0.68079 0.68479-0.57469 1.5621-1.1881 2.1461-1.1213-0.48824-0.0517-1.2588 0.61278-1.9334 1.3097-1.0109 1.0316-1.5542 1.1334-2.258 1.1478l-0.004-0.65534h-0.00002z" stroke-opacity=".99608" stroke="#000080" stroke-linecap="round" stroke-width=".17577" fill="#003380"/>
  <rect stroke-linejoin="round" height="2.9033" stroke="#000080" stroke-width=".33695" fill="#fff" fill-rule="evenodd" rx=".67261" ry=".64026" width="5.9483" y="262.35" x="-401.67"/>
  <path d="m-390.35 266.95-3.5088 2.3951-0.0174-1.4196-3.6249 0.0459-0.003-1.9948 3.6249-0.0295-0.002-1.3819 3.5316 2.3849z" fill-rule="evenodd" stroke="#005200" stroke-width=".24170px" fill="url(#a)"/>
 </g>
</svg>
