<?xml version="1.0" encoding="UTF-8" standalone="no"?>
<svg xmlns:rdf="http://www.w3.org/1999/02/22-rdf-syntax-ns#" xmlns="http://www.w3.org/2000/svg" height="297mm" width="210mm" version="1.1" xmlns:cc="http://creativecommons.org/ns#" xmlns:xlink="http://www.w3.org/1999/xlink" viewBox="0 0 744.09448819 1052.3622047" xmlns:dc="http://purl.org/dc/elements/1.1/">
 <defs>
  <linearGradient id="d" y2="377.6" gradientUnits="userSpaceOnUse" x2="142.38" gradientTransform="matrix(-.41624 .00030153 -.00042988 -.26502 -294.04 377.08)" y1="388.92" x1="160.7">
   <stop stop-color="#36d200" offset="0"/>
   <stop stop-color="#fff" offset="1"/>
  </linearGradient>
  <linearGradient id="c" y2="166.63" gradientUnits="userSpaceOnUse" x2="-239.54" y1="192.64" x1="-241.17">
   <stop stop-color="#c8e3ee" offset="0"/>
   <stop stop-color="#fff" offset="1"/>
  </linearGradient>
  <linearGradient id="b" y2="170.07" gradientUnits="userSpaceOnUse" x2="-230.53" y1="173.28" x1="-229.32">
   <stop stop-color="#90c7dc" offset="0"/>
   <stop stop-color="#fff" offset="1"/>
  </linearGradient>
  <linearGradient id="a" y2="191.93" gradientUnits="userSpaceOnUse" x2="-245.73" y1="194.64" x1="-245.55">
   <stop stop-color="#64afd2" offset="0"/>
   <stop stop-color="#fff" offset="1"/>
  </linearGradient>
 </defs>
 <metadata>
  <rdf:RDF>
   <cc:Work rdf:about="">
    <dc:format>image/svg+xml</dc:format>
    <dc:type rdf:resource="http://purl.org/dc/dcmitype/StillImage"/>
    <dc:title/>
   </cc:Work>
  </rdf:RDF>
 </metadata>
 <g transform="matrix(1.0548 0 0 1.0548 416.48 -104.71)">
  <g stroke-linejoin="round" transform="matrix(.55109 0 0 .57877 -227.09 168.51)" stroke-width="1px">
   <path d="m-234.63 195.29-17.922-0.12801c8.8005-1.9328-0.41555-23.448 5.7606-24.963l18.07-0.0756c-6.9699 0.86566 0.94577 25.241-5.9087 25.166z" stroke="#0073b3" fill="url(#c)"/>
   <path d="m-231.5 173.78 4.6146 0.0567c0.13634-1.7956-0.74159-3.7591-1.9593-3.7557-1.9505 0.50173-2.2545 2.4591-2.6554 3.699z" stroke="#0073b3" fill="url(#b)"/>
   <path d="m-252.62 195.16c-2.0319-0.87677-2.019-2.4351-2.2929-3.8979h18.458c0.17074 1.9039 0.56722 3.7897 1.9776 3.9266z" stroke="#0072af" fill="url(#a)"/>
  </g>
  <path d="m-352.04 274.86-4.8217 3.2912-0.0239-1.9507-4.9813 0.0631-0.004-2.7412 4.9813-0.0406-0.003-1.899 4.853 3.2773z" fill-rule="evenodd" stroke="#005200" stroke-width=".33213px" fill="url(#d)"/>
 </g>
</svg>
