<?xml version="1.0" encoding="UTF-8" standalone="no"?>
<svg xmlns:rdf="http://www.w3.org/1999/02/22-rdf-syntax-ns#" xmlns="http://www.w3.org/2000/svg" height="297mm" width="210mm" version="1.1" xmlns:cc="http://creativecommons.org/ns#" xmlns:xlink="http://www.w3.org/1999/xlink" viewBox="0 0 744.09448819 1052.3622047" xmlns:dc="http://purl.org/dc/elements/1.1/">
 <defs>
  <linearGradient id="i" y2="536.19" gradientUnits="userSpaceOnUse" x2="45.105" gradientTransform="translate(-20.697 3.4775)" y1="535.87" x1="33.452">
   <stop stop-color="#c2c2f1" offset="0"/>
   <stop stop-color="#fff" offset="1"/>
  </linearGradient>
  <linearGradient id="h" y2="540.94" gradientUnits="userSpaceOnUse" x2="38.103" gradientTransform="translate(-20.697 3.4775)" y1="536.89" x1="31.407">
   <stop stop-color="#ccc" offset="0"/>
   <stop stop-color="#fff" offset="1"/>
  </linearGradient>
  <linearGradient id="g" y2="537.59" gradientUnits="userSpaceOnUse" x2="47.243" gradientTransform="translate(-20.697 3.4775)" y1="540.38" x1="39.309">
   <stop stop-color="#a6a6c6" offset="0"/>
   <stop stop-color="#c2c2f1" offset="1"/>
  </linearGradient>
  <linearGradient id="f" y2="538.06" gradientUnits="userSpaceOnUse" x2="47.26" gradientTransform="matrix(.76635 0 0 .76635 -11.12 129.68)" y1="538.06" x1="25.643">
   <stop offset="0"/>
   <stop stop-opacity="0" offset="1"/>
  </linearGradient>
  <linearGradient id="e" y2="535.51" gradientUnits="userSpaceOnUse" x2="17.872" y1="535.12" x1="11.146">
   <stop stop-color="#c2c2f1" offset="0"/>
   <stop stop-color="#fefefe" offset="1"/>
  </linearGradient>
  <linearGradient id="d" y2="377.6" gradientUnits="userSpaceOnUse" x2="142.38" gradientTransform="matrix(-.00092707 -1.2899 .81484 -.0013322 -503.8 1007)" y1="388.92" x1="160.7">
   <stop stop-color="#36d200" offset="0"/>
   <stop stop-color="#fff" offset="1"/>
  </linearGradient>
  <radialGradient id="a" gradientUnits="userSpaceOnUse" cy="866.01" cx="386.21" gradientTransform="matrix(1.1453 1.179 -.80701 .78396 653.16 -270.77)" r="61.352">
   <stop stop-color="#fff" stop-opacity=".92035" offset="0"/>
   <stop stop-color="#ccc" offset="1"/>
  </radialGradient>
  <linearGradient id="c" y2="864.59" gradientUnits="userSpaceOnUse" x2="318.68" gradientTransform="matrix(.074862 0 0 .035378 -776.1 471.94)" y1="863.3" x1="348.72">
   <stop stop-color="#00f" offset="0"/>
   <stop stop-color="#fff" offset="1"/>
  </linearGradient>
  <linearGradient id="b" y2="791.12" gradientUnits="userSpaceOnUse" x2="343.89" gradientTransform="matrix(.056864 -.055812 .035022 .035960 -241.08 860.4)" y1="791.28" x1="333.49">
   <stop stop-color="#3c3c3c" stop-opacity=".99608" offset="0"/>
   <stop stop-color="#b3b3b3" stop-opacity="0" offset="1"/>
  </linearGradient>
 </defs>
 <metadata>
  <rdf:RDF>
   <cc:Work rdf:about="">
    <dc:format>image/svg+xml</dc:format>
    <dc:type rdf:resource="http://purl.org/dc/dcmitype/StillImage"/>
    <dc:title/>
   </cc:Work>
  </rdf:RDF>
 </metadata>
 <g transform="matrix(.50045 0 0 .50045 166.19 -261.4)">
  <g stroke-linejoin="round" fill-rule="evenodd" transform="matrix(1.8862 0 0 1.8419 -228.29 -179.03)">
   <path d="m17.845 536.99c2.8718 0.85006 5.7394 1.7143 8.5939 2.6201-2.631 0.86787-2.6809 0.97205-8.183 2.738-3.0311-1.0498-5.6107-2.0635-8.4187-3.2041l7.913-2.1003c0.02051-0.0393 0.06279-0.0632 0.0948-0.0536z" stroke="#000" stroke-width="0.25" fill="url(#i)"/>
   <path d="m9.8681 539.19c2.8718 0.85005 5.5404 2.1928 8.3949 3.0986 0.0088 1.8427-0.07623 2.2169 0.05104 3.7891-3.4399-1.3417-5.7859-2.4723-8.5939-3.6128 0.064488-1.1125 0.049507-1.7398 0.14797-3.2749z" stroke="#000" stroke-width="0.25" fill="url(#h)"/>
   <path d="m26.421 539.57c-2.8718 0.85005-5.2949 1.8192-8.1494 2.725-0.05532 2.9118 0.05299 1.264-0.05104 3.7891 3.4399-1.3417 5.3765-2.5992 8.1845-3.7398-0.01801-1.3217 0.02022-1.6474 0.01589-2.7743z" stroke="#000" stroke-width="0.25" fill="url(#g)"/>
   <path d="m23.316 541.02c-2.2008 0.65144-2.3844 0.88283-4.5719 1.577-0.04239 2.2314 0.04061 0.9687-0.03911 2.9038 1.66-0.74934 2.1681-1.1087 4.5059-2.2152-0.0138-1.0129 0.10846-1.4019 0.10515-2.2655z" stroke="#000" stroke-width=".19159" fill="url(#f)"/>
   <ellipse stroke="#b3b3b3" rx="4.137" ry="1.5572" transform="matrix(-1.0256 -.084171 -.19973 .95865 139.46 27.411)" cy="535.41" cx="14.038" stroke-width=".25" fill="url(#e)"/>
  </g>
  <path d="m-190.48 822.86-8.5279-12.613 5.0545-0.0623-0.16341-13.03 7.1027-0.0115 0.10539 13.03 4.9205-0.008-8.4918 12.695z" fill-rule="evenodd" stroke="#005200" stroke-width="1.0252px" fill="url(#d)"/>
  <rect rx=".13666" ry=".13826" height="31.972" width="31.972" y="795.83" x="-210.18" fill="none"/>
  <g stroke-linejoin="round" transform="matrix(-1.6018 .025031 .025031 1.6018 -544.17 -579.54)">
   <rect transform="matrix(.72730 -.68632 .70389 .71030 0 0)" stroke-opacity=".90698" rx=".27803" ry=".27803" height="4.4428" width="1.7715" stroke="#7900aa" stroke-linecap="round" y="500.43" x="-751.59" stroke-width=".28577" fill="#fff"/>
   <path d="m-195.06 869.88 0.66476 1.3056 1.1909-1.1606-1.2384-0.73736-0.61726 0.59241z" stroke-opacity=".88372" fill-rule="evenodd" stroke="#333" stroke-width=".17005" fill="#fff"/>
   <g transform="translate(-.035609 -.059735)">
    <path d="m451.11 879.75a60.261 57.727 0 0 1 -60.247 57.727 60.261 57.727 0 0 1 -60.275 -57.699 60.261 57.727 0 0 1 60.218 -57.754 60.261 57.727 0 0 1 60.304 57.672" stroke-opacity=".81395" transform="matrix(.069360 0 0 .072422 -224.82 802.68)" stroke="#000" stroke-linecap="round" stroke-width="6.3301" fill="url(#a)"/>
    <rect transform="matrix(.72730 -.68632 .70389 .71030 0 0)" stroke-opacity=".90698" rx=".27803" ry=".27803" height="4.4428" width="1.7715" stroke="#000080" stroke-linecap="round" y="500.43" x="-751.59" stroke-width=".28577" fill="url(#c)"/>
    <path d="m-195.06 869.88 0.66476 1.3056 1.1909-1.1606-1.2384-0.73736-0.61726 0.59241z" stroke-opacity=".88372" fill-rule="evenodd" stroke="#333" stroke-width=".17005" fill="url(#b)"/>
   </g>
  </g>
 </g>
</svg>
