<?xml version="1.0" encoding="UTF-8" standalone="no"?>
<svg xmlns:rdf="http://www.w3.org/1999/02/22-rdf-syntax-ns#" xmlns="http://www.w3.org/2000/svg" height="297mm" width="210mm" version="1.1" xmlns:cc="http://creativecommons.org/ns#" xmlns:xlink="http://www.w3.org/1999/xlink" viewBox="0 0 744.09448819 1052.3622047" xmlns:dc="http://purl.org/dc/elements/1.1/">
 <defs>
  <linearGradient id="c">
   <stop stop-color="#fff" offset="0"/>
   <stop stop-color="#fff" stop-opacity="0" offset="1"/>
  </linearGradient>
  <linearGradient id="g">
   <stop stop-color="#eda701" offset="0"/>
   <stop stop-color="#fee806" offset="1"/>
  </linearGradient>
  <linearGradient id="j">
   <stop stop-color="#c933b0" offset="0"/>
   <stop stop-color="#f695e8" offset="1"/>
  </linearGradient>
  <radialGradient id="e" gradientUnits="userSpaceOnUse" cy="235.85" cx="-1490.8" gradientTransform="matrix(-1.0088 1.5906 -.51887 -.32907 -2866.2 2679.4)" r="12.631">
   <stop stop-color="#2840d5" offset="0"/>
   <stop stop-color="#99a5eb" offset="1"/>
  </radialGradient>
  <radialGradient id="b" xlink:href="#g" gradientUnits="userSpaceOnUse" cy="235.85" cx="-1490.8" gradientTransform="matrix(-1.0088 1.5906 -.51887 -.32907 -2866.2 2679.4)" r="12.631"/>
  <linearGradient id="d" y2="229.36" xlink:href="#c" gradientUnits="userSpaceOnUse" x2="-1508.5" gradientTransform="matrix(-.13856 .24444 -.24509 -.13939 -511.49 1126.1)" y1="210.75" x1="-1498.6"/>
  <linearGradient id="i" y2="229.36" xlink:href="#c" gradientUnits="userSpaceOnUse" x2="-1508.5" gradientTransform="matrix(-.13131 .23166 -.23227 -.13211 -503.4 1105.3)" y1="210.75" x1="-1498.6"/>
  <radialGradient id="a" xlink:href="#j" gradientUnits="userSpaceOnUse" cy="235.85" cx="-1490.8" gradientTransform="matrix(-1.0088 1.5906 -.51887 -.32907 -2866.2 2679.4)" r="12.631"/>
  <linearGradient id="h" y2="39.685" gradientUnits="userSpaceOnUse" x2="34.534" gradientTransform="matrix(.30262 0 0 .30262 -240.46 727.85)" y1="12.285" x1="14.463">
   <stop stop-color="#dadada" offset="0"/>
   <stop stop-color="#f1f1f1" offset="1"/>
  </linearGradient>
  <linearGradient id="f" y2="229.36" xlink:href="#c" gradientUnits="userSpaceOnUse" x2="-1508.5" gradientTransform="matrix(-.14292 .23542 -.24256 -.13916 -524.7 1115.7)" y1="210.75" x1="-1498.6"/>
 </defs>
 <metadata>
  <rdf:RDF>
   <cc:Work rdf:about="">
    <dc:format>image/svg+xml</dc:format>
    <dc:type rdf:resource="http://purl.org/dc/dcmitype/StillImage"/>
    <dc:title/>
   </cc:Work>
  </rdf:RDF>
 </metadata>
 <g transform="translate(502.3 -639.68)">
  <g transform="matrix(.99142 0 0 .99142 -41.881 56.566)">
   <g transform="matrix(1.0018 0 0 1.0018 .68015 -1.3645)">
    <g transform="translate(.57952 .86928)">
     <path transform="matrix(-.22957 .16231 -.16297 -.23043 -661.96 1033.8)" stroke="#0d1547" stroke-width="1.7717" fill="url(#e)" d="m-1480.3 247.22-12.13 5.5765-10.895-7.717 1.2358-13.294 12.13-5.5765 10.895 7.7171z" fill-rule="evenodd"/>
    </g>
    <g fill-rule="evenodd" transform="matrix(1 .0030561 -.0030561 1 2.1083 1.1601)">
     <path opacity=".73684" stroke="#ce6209" stroke-width="1px" fill="url(#b)" d="m-1480.3 247.22-12.13 5.5765-10.895-7.717 1.2358-13.294 12.13-5.5765 10.895 7.7171z" stroke-opacity=".91860" transform="matrix(-.22812 .16407 -.16501 -.22861 -660.16 1027.7)"/>
     <path opacity=".73684" d="m-357.66 731.54 1.7821-3.1439-1.933-3.2515-1.1142 0.14888c1.5571 3.3888 1.5523 5.0642 1.2652 6.2466z" fill="url(#d)"/>
     <path opacity=".73684" transform="matrix(-.22812 .16407 -.16501 -.22861 -660.16 1027.7)" stroke="#ce6209" stroke-width="1px" fill="url(#b)" d="m-1480.3 247.22-12.13 5.5765-10.895-7.717 1.2358-13.294 12.13-5.5765 10.895 7.7171z" stroke-opacity=".91860"/>
     <path opacity=".73684" d="m-357.66 731.54 1.7821-3.1439-1.933-3.2515-1.1142 0.14888c1.5571 3.3888 1.5523 5.0642 1.2652 6.2466z" fill="url(#d)"/>
     <path stroke="#3c1d03" stroke-width="1.7732" fill="url(#b)" d="m-1480.3 247.22-12.13 5.5765-10.895-7.717 1.2358-13.294 12.13-5.5765 10.895 7.7171z" transform="matrix(-.22812 .16407 -.16501 -.22861 -660.16 1027.7)"/>
     <path opacity=".73684" d="m-357.61 731.3 1.6889-2.9796-1.832-3.0816-1.056 0.14109c1.4757 3.2116 1.4712 4.7994 1.1991 5.9201z" fill="url(#i)"/>
    </g>
    <path opacity=".73684" d="m-1480.3 247.22-12.13 5.5765-10.895-7.717 1.2358-13.294 12.13-5.5765 10.895 7.7171z" fill-rule="evenodd" transform="matrix(.25601 .11742 -.11715 .25607 44.412 845.48)" stroke="#800080" stroke-width="1px" fill="url(#a)"/>
    <path opacity=".73684" d="m-363.81 734.68 1.8382-3.0279-1.8746-3.1888-1.1168 0.12775c1.4962 3.3165 1.4614 4.9443 1.1532 6.0889z" fill-rule="evenodd" fill="url(#f)"/>
    <path opacity=".73684" fill="url(#a)" fill-rule="evenodd" transform="matrix(.25601 .11742 -.11715 .25607 44.412 845.48)" stroke="#800080" stroke-width="1px" d="m-1480.3 247.22-12.13 5.5765-10.895-7.717 1.2358-13.294 12.13-5.5765 10.895 7.7171z"/>
    <path d="m-1480.3 247.22-12.13 5.5765-10.895-7.717 1.2358-13.294 12.13-5.5765 10.895 7.7171z" fill-rule="evenodd" transform="matrix(.25601 .11742 -.11715 .25607 44.412 845.48)" stroke="#480048" stroke-width="1.7721" fill="url(#a)"/>
    <g opacity=".57522" transform="matrix(.077328 .00091119 -.00085264 .077374 -375.14 690.52)"></g>
   </g>
  </g>
  <g transform="matrix(1.0816 0 0 1.0816 -157.63 -10.459)">
   <path style="color:#000000" fill="url(#h)" stroke="#000" stroke-width=".40062" d="m-233.56 729.72c-0.11342 0.008-0.22365 0.0253-0.33504 0.0381h-0.008l-0.26651 1.4544c-0.43438 0.0989-0.84305 0.26681-1.2107 0.49495l-1.1955-0.86044c-0.32317 0.25089-0.61725 0.54351-0.87567 0.86044l0.82998 1.2107c-0.25201 0.38511-0.44151 0.82486-0.54824 1.2868-0.00002 0.002-0.00002 0.007 0 0.008l-1.4468 0.22844c-0.0264 0.21603-0.0381 0.43931-0.0381 0.66246 0 0.18258 0.005 0.36271 0.0229 0.54063l1.4468 0.25889c0.10289 0.50241 0.29835 0.97161 0.57108 1.3858l-0.86043 1.1802c0.24642 0.30592 0.53091 0.58445 0.83759 0.82997l1.2183-0.8376c0.42578 0.27163 0.90108 0.46208 1.4163 0.55586l0.22844 1.4392c0.16232 0.0148 0.32879 0.0152 0.49494 0.0152 0.23457-0.00001 0.45864-0.009 0.6853-0.0381l0.27412-1.4696c0.48917-0.12174 0.94871-0.33292 1.3478-0.61677l1.1726 0.85281c0.3041-0.25871 0.58218-0.55609 0.82237-0.87565l-0.85283-1.2336c0.23096-0.39887 0.39099-0.83896 0.4721-1.3097l1.4391-0.22843c0.0126-0.15018 0.0152-0.29583 0.0152-0.44926 0-0.26661-0.031-0.52803-0.0685-0.78429l-1.462-0.2665c-0.11457-0.42306-0.30255-0.81777-0.54063-1.1726l0.86044-1.1802c-0.26671-0.32617-0.57094-0.62748-0.90613-0.88329l-1.2412 0.85283c-0.35673-0.21097-0.74061-0.37285-1.1574-0.46448l-0.22843-1.4468c-0.20793-0.0245-0.41756-0.0381-0.63201-0.0381-0.058 0-0.11761-0.002-0.17513 0-0.028 0.0008-0.0558-0.002-0.0838 0-0.007 0.00043-0.0153-0.0005-0.0229 0zm0.19797 3.7006c0.0278-0.002 0.0556 0 0.0838 0 0.90134 0 1.6371 0.73577 1.6371 1.6371 0 0.90134-0.73577 1.6295-1.6371 1.6295-0.90134 0-1.6295-0.72815-1.6295-1.6295 0-0.87319 0.68338-1.5934 1.5457-1.6371z"/>
   <circle opacity=".64773" style="color:#000000" stroke-width="2.4597" transform="matrix(.16287 0 0 .16287 -237.11 731.22)" cy="23.782" cx="23.511" stroke="#fff" r="12.728" fill="none"/>
  </g>
 </g>
</svg>
