<?xml version="1.0" encoding="UTF-8" standalone="no"?>
<svg xmlns:rdf="http://www.w3.org/1999/02/22-rdf-syntax-ns#" xmlns="http://www.w3.org/2000/svg" height="297mm" width="210mm" version="1.1" xmlns:cc="http://creativecommons.org/ns#" xmlns:xlink="http://www.w3.org/1999/xlink" viewBox="0 0 744.09448819 1052.3622047" xmlns:dc="http://purl.org/dc/elements/1.1/">
 <defs>
  <linearGradient id="b" y2="823.72" gradientUnits="userSpaceOnUse" x2="-285.83" gradientTransform="translate(-73 -32.856)" y1="808.62" x1="-300.93">
   <stop offset="0"/>
   <stop stop-color="#ccc" offset="1"/>
  </linearGradient>
  <linearGradient id="c" y2="813.87" gradientUnits="userSpaceOnUse" x2="-295.78" gradientTransform="translate(-73 -33.033)" y1="810.4" x1="-299.17">
   <stop stop-color="#f60" offset="0"/>
   <stop stop-color="#f9ac79" offset="1"/>
  </linearGradient>
  <linearGradient id="d" y2="818.06" gradientUnits="userSpaceOnUse" x2="-295.78" gradientTransform="translate(-64.746 -28.893)" y1="814.65" x1="-299.28">
   <stop stop-color="#00f" offset="0"/>
   <stop stop-color="#6666fa" offset="1"/>
  </linearGradient>
  <linearGradient id="e" y2="822.24" gradientUnits="userSpaceOnUse" x2="-295.78" gradientTransform="translate(-73 -33.061)" y1="818.79" x1="-299.28">
   <stop stop-color="#fc0" offset="0"/>
   <stop stop-color="#f7e28c" offset="1"/>
  </linearGradient>
  <linearGradient id="f" y2="829.99" gradientUnits="userSpaceOnUse" x2="-288.71" gradientTransform="translate(-71.816 -49.115)" y1="826.49" x1="-292.21">
   <stop stop-color="#ce72fc" offset="0"/>
   <stop stop-color="#d893fa" offset="1"/>
  </linearGradient>
  <linearGradient id="g" y2="822.19" gradientUnits="userSpaceOnUse" x2="-291.66" gradientTransform="translate(-73 -33.033)" y1="818.68" x1="-295.16">
   <stop stop-color="#008000" offset="0"/>
   <stop stop-color="#78b978" offset="1"/>
  </linearGradient>
  <linearGradient id="a" y2="39.685" gradientUnits="userSpaceOnUse" x2="34.534" gradientTransform="matrix(.30262 0 0 .30262 -240.46 727.85)" y1="12.285" x1="14.463">
   <stop stop-color="#dadada" offset="0"/>
   <stop stop-color="#f1f1f1" offset="1"/>
  </linearGradient>
 </defs>
 <metadata>
  <rdf:RDF>
   <cc:Work rdf:about="">
    <dc:format>image/svg+xml</dc:format>
    <dc:type rdf:resource="http://purl.org/dc/dcmitype/StillImage"/>
    <dc:title/>
   </cc:Work>
  </rdf:RDF>
 </metadata>
 <g transform="translate(502.3 -639.68)">
  <rect style="color:#000000" height="15.279" width="15.279" stroke="url(#b)" stroke-linecap="round" y="775.65" x="-374.02" stroke-width="0.721" fill="#f2f2f2"/>
  <rect style="color:#000000" height="3.5" width="3.5" y="777.37" x="-372.28" fill="url(#c)"/>
  <rect style="color:#000000" height="3.5" width="3.5" y="785.71" x="-364.03" fill="url(#d)"/>
  <rect style="color:#000000" height="3.5" width="3.5" y="785.68" x="-372.28" fill="url(#e)"/>
  <rect style="color:#000000" height="3.5" width="3.5" y="777.37" x="-364.03" fill="url(#f)"/>
  <rect style="color:#000000" height="3.5" width="3.5" y="777.37" x="-368.16" fill="#ff4f4f"/>
  <rect style="color:#000000" height="3.5" width="3.5" y="781.54" x="-372.34"/>
  <rect style="color:#000000" height="3.5" width="3.5" y="781.56" x="-364.08" fill="#fff"/>
  <rect style="color:#000000" height="3.5" width="3.5" y="781.56" x="-368.16" fill="#b3b3b3"/>
  <rect style="color:#000000" height="3.5" width="3.5" y="785.65" x="-368.16" fill="url(#g)"/>
  <g transform="matrix(1.1631 0 0 1.1631 -105.46 -70.969)">
   <path style="color:#000000" fill="url(#a)" stroke="#000" stroke-width=".40062" d="m-233.56 729.72c-0.11342 0.008-0.22365 0.0253-0.33504 0.0381h-0.008l-0.26651 1.4544c-0.43438 0.0989-0.84305 0.26681-1.2107 0.49495l-1.1955-0.86044c-0.32317 0.25089-0.61725 0.54351-0.87567 0.86044l0.82998 1.2107c-0.25201 0.38511-0.44151 0.82486-0.54824 1.2868-0.00002 0.002-0.00002 0.007 0 0.008l-1.4468 0.22844c-0.0264 0.21603-0.0381 0.43931-0.0381 0.66246 0 0.18258 0.005 0.36271 0.0229 0.54063l1.4468 0.25889c0.10289 0.50241 0.29835 0.97161 0.57108 1.3858l-0.86043 1.1802c0.24642 0.30592 0.53091 0.58445 0.83759 0.82997l1.2183-0.8376c0.42578 0.27163 0.90108 0.46208 1.4163 0.55586l0.22844 1.4392c0.16232 0.0148 0.32879 0.0152 0.49494 0.0152 0.23457-0.00001 0.45864-0.009 0.6853-0.0381l0.27412-1.4696c0.48917-0.12174 0.94871-0.33292 1.3478-0.61677l1.1726 0.85281c0.3041-0.25871 0.58218-0.55609 0.82237-0.87565l-0.85283-1.2336c0.23096-0.39887 0.39099-0.83896 0.4721-1.3097l1.4391-0.22843c0.0126-0.15018 0.0152-0.29583 0.0152-0.44926 0-0.26661-0.031-0.52803-0.0685-0.78429l-1.462-0.2665c-0.11457-0.42306-0.30255-0.81777-0.54063-1.1726l0.86044-1.1802c-0.26671-0.32617-0.57094-0.62748-0.90613-0.88329l-1.2412 0.85283c-0.35673-0.21097-0.74061-0.37285-1.1574-0.46448l-0.22843-1.4468c-0.20793-0.0245-0.41756-0.0381-0.63201-0.0381-0.058 0-0.11761-0.002-0.17513 0-0.028 0.0008-0.0558-0.002-0.0838 0-0.007 0.00043-0.0153-0.0005-0.0229 0zm0.19797 3.7006c0.0278-0.002 0.0556 0 0.0838 0 0.90134 0 1.6371 0.73577 1.6371 1.6371 0 0.90134-0.73577 1.6295-1.6371 1.6295-0.90134 0-1.6295-0.72815-1.6295-1.6295 0-0.87319 0.68338-1.5934 1.5457-1.6371z"/>
   <circle opacity=".64773" style="color:#000000" stroke-width="2.4597" transform="matrix(.16287 0 0 .16287 -237.11 731.22)" cy="23.782" cx="23.511" stroke="#fff" r="12.728" fill="none"/>
  </g>
 </g>
</svg>
