<?xml version="1.0" encoding="UTF-8" standalone="no"?>
<svg xmlns:rdf="http://www.w3.org/1999/02/22-rdf-syntax-ns#" xmlns="http://www.w3.org/2000/svg" height="297mm" width="210mm" version="1.1" xmlns:cc="http://creativecommons.org/ns#" xmlns:xlink="http://www.w3.org/1999/xlink" viewBox="0 0 744.09448819 1052.3622047" xmlns:dc="http://purl.org/dc/elements/1.1/">
 <defs>
  <linearGradient id="c">
   <stop stop-color="#fefdb7" offset="0"/>
   <stop stop-color="#f5f06c" offset="1"/>
  </linearGradient>
  <linearGradient id="a" y2="-130.79" xlink:href="#c" gradientUnits="userSpaceOnUse" x2="463.22" gradientTransform="matrix(0 .041425 -.043471 0 -351.19 88.932)" y1="340.63" x1="41.689"/>
  <filter id="d" style="color-interpolation-filters:sRGB" height="1.3585" width="1.3599" y="-.17925" x="-.17994">
   <feGaussianBlur stdDeviation="18.47879"/>
  </filter>
  <linearGradient id="b" y2="354.38" gradientUnits="userSpaceOnUse" x2="690.79" gradientTransform="matrix(0 .025883 -.032241 0 -345.79 81.756)" y1="584.52" x1="351.58">
   <stop stop-color="#fff" offset="0"/>
   <stop stop-color="#fff" stop-opacity="0" offset="1"/>
  </linearGradient>
 </defs>
 <metadata>
  <rdf:RDF>
   <cc:Work rdf:about="">
    <dc:format>image/svg+xml</dc:format>
    <dc:type rdf:resource="http://purl.org/dc/dcmitype/StillImage"/>
    <dc:title/>
   </cc:Work>
  </rdf:RDF>
 </metadata>
 <g transform="translate(373.94 -19.264)">
  <g transform="translate(21.268 .13654)">
   <path d="m-351.98 89.69c-0.20581 5.0025-0.11602 10.43 0.65531 15.197-5.3082-0.0724-10.676-0.56905-15.599-0.25452 0.0184 0.0502 1.046 0.92855-0.0573-0.0546-0.0953-6.449 0.42493-9.0149 0-14.888 0-0.03027 0.0256-0.05464 0.0573-0.05464 5.0001 0.1909 10.016 0.46272 14.886 0 0.0318 0 0.0573 0.02437 0.0573 0.05464z" fill-rule="evenodd" fill="url(#a)"/>
   <path d="m-351.98 89.69c-0.20581 5.0025-0.11602 10.43 0.65531 15.197-8.4954-0.85078-15.577-0.3319-15.577-0.3319s0.11023-5.6825-0.0793-14.866c0-0.03027 0.0256-0.05464 0.0573-0.05464 5.0001 0.1909 10.016 0.46272 14.886 0 0.0318 0 0.0573 0.02437 0.0573 0.05464z" fill-rule="evenodd" stroke="#000" stroke-width=".17726" fill="url(#a)"/>
   <path opacity=".27778" d="m-351.37 89.641-7.2382-0.02664-8.5923-0.12695s-0.92022 22.89 6.7128 10.332 8.3328-8.5522 9.1177-10.179z" fill-rule="evenodd" stroke-width="1pt" fill="url(#b)"/>
   <g transform="matrix(1.4497 0 0 1.4497 161.55 -40.215)">
    <circle transform="matrix(.0098426 -.0017988 .0016961 .0092808 -364.14 88.088)" filter="url(#d)" cy="393.14" cx="404.39" r="123.43" fill="#a0892c"/>
    <circle transform="matrix(.0098426 -.0017988 .0016961 .0092808 -363.86 87.746)" cy="393.14" cx="404.39" r="123.43" fill="#d40000"/>
    <path d="m-357.93 90.386-1.1895 0.21751-0.24904 1.1252c0.13821 0.02106 0.28251 0.02138 0.42892-0.0054 0.65989-0.1206 1.1056-0.71584 1.0096-1.3373z" fill="#e00"/>
    <path d="m-359.11 89.411c-0.0819-0.000819-0.16521 0.0062-0.24904 0.02151-0.67064 0.12256-1.121 0.73528-1.0054 1.3676 0.0903 0.49431 0.50031 0.85354 0.99517 0.92895l0.24904-1.1252 1.1895-0.21751c-0.002-0.01011-0.002-0.02018-0.004-0.03031-0.10112-0.55331-0.60231-0.93934-1.1753-0.94508z" fill="#f00"/>
    <path d="m-359.61 90.043-0.0893 0.06601-0.1647 0.12316c-0.0672 0.14292-0.0579 0.29457-0.0158 0.45566 0.10919 0.41794 0.42004 0.62224 0.85865 0.57241 0.22452-0.02551 0.4302-0.10101 0.55634-0.26144l0.22874-0.28684-1.374-0.66897z" fill="#a00"/>
    <circle transform="matrix(.0076932 -.0014060 .0013257 .0072541 -362.52 87.832)" cy="393.14" cx="404.39" r="123.43" fill="#d40000"/>
    <circle transform="matrix(.0076932 -.0014060 .0013257 .0072541 -362.46 87.769)" cy="393.14" cx="404.39" r="123.43" fill="#f00"/>
   </g>
  </g>
  <g transform="matrix(.76724 0 0 .80498 -219.15 -610.87)" fill="#f00">
   <path style="color:#000000" d="m-161.28 889.17c0.59165-6.8804 5.7208-14.856 13.736-16l1.3818 2.3683c-7.776 1.6244-12.057 5.7928-15.118 13.632z"/>
   <path style="color:#000000" d="m-164.97 874.34c6.9053 0.0759 15.242 4.5947 16.982 12.502l-2.2584 1.555c-2.2009-7.6329-6.6776-11.591-14.723-14.057z"/>
  </g>
 </g>
</svg>
