<?xml version="1.0" encoding="UTF-8" standalone="no"?>
<svg xmlns:rdf="http://www.w3.org/1999/02/22-rdf-syntax-ns#" xmlns="http://www.w3.org/2000/svg" height="297mm" width="210mm" version="1.1" xmlns:cc="http://creativecommons.org/ns#" xmlns:xlink="http://www.w3.org/1999/xlink" viewBox="0 0 744.09448819 1052.3622047" xmlns:dc="http://purl.org/dc/elements/1.1/">
 <defs>
  <linearGradient id="g" y2="445.79" gradientUnits="userSpaceOnUse" x2="211.72" gradientTransform="matrix(.30109 -.023603 .015790 .30158 -424.21 127.29)" y1="439.14" x1="208.3">
   <stop stop-color="#f70000" offset="0"/>
   <stop stop-color="#780000" offset="1"/>
  </linearGradient>
  <linearGradient id="f" y2="449.6" gradientUnits="userSpaceOnUse" x2="194.27" gradientTransform="matrix(.30109 -.023603 .015790 .30158 -418.23 128.78)" y1="456.24" x1="202.53">
   <stop stop-color="#baa492" offset="0"/>
   <stop stop-color="#fff" offset="1"/>
  </linearGradient>
  <linearGradient id="e" y2="449.64" gradientUnits="userSpaceOnUse" x2="193.04" gradientTransform="matrix(.30109 -.023603 .015790 .30158 -418.23 128.78)" y1="457.89" x1="203.5">
   <stop offset="0"/>
   <stop stop-color="#7e7e7e" offset="1"/>
  </linearGradient>
  <linearGradient id="d" y2="462.65" gradientUnits="userSpaceOnUse" x2="196.75" gradientTransform="matrix(.30109 -.023603 .015790 .30158 -418.23 128.78)" y1="458.87" x1="193.01">
   <stop stop-color="#c00000" offset="0"/>
   <stop offset="1"/>
  </linearGradient>
  <linearGradient id="c" y2="166.63" gradientUnits="userSpaceOnUse" x2="-239.54" y1="192.64" x1="-241.17">
   <stop stop-color="#c8e3ee" offset="0"/>
   <stop stop-color="#fff" offset="1"/>
  </linearGradient>
  <linearGradient id="b" y2="170.07" gradientUnits="userSpaceOnUse" x2="-230.53" y1="173.28" x1="-229.32">
   <stop stop-color="#90c7dc" offset="0"/>
   <stop stop-color="#fff" offset="1"/>
  </linearGradient>
  <linearGradient id="a" y2="191.93" gradientUnits="userSpaceOnUse" x2="-245.73" y1="194.64" x1="-245.55">
   <stop stop-color="#64afd2" offset="0"/>
   <stop stop-color="#fff" offset="1"/>
  </linearGradient>
 </defs>
 <metadata>
  <rdf:RDF>
   <cc:Work rdf:about="">
    <dc:format>image/svg+xml</dc:format>
    <dc:type rdf:resource="http://purl.org/dc/dcmitype/StillImage"/>
    <dc:title/>
   </cc:Work>
  </rdf:RDF>
 </metadata>
 <g transform="matrix(1.0187 0 0 1.0187 401.56 -53.292)">
  <g stroke-linejoin="round" transform="matrix(.55109 0 0 .57877 -225.46 149.37)" stroke-width="1px">
   <path d="m-234.63 195.29-17.922-0.12801c8.8005-1.9328-0.41555-23.448 5.7606-24.963l18.07-0.0756c-6.9699 0.86566 0.94577 25.241-5.9087 25.166z" stroke="#0073b3" fill="url(#c)"/>
   <path d="m-231.5 173.78 4.6146 0.0567c0.13634-1.7956-0.74159-3.7591-1.9593-3.7557-1.9505 0.50173-2.2545 2.4591-2.6554 3.699z" stroke="#0073b3" fill="url(#b)"/>
   <path d="m-252.62 195.16c-2.0319-0.87677-2.019-2.4351-2.2929-3.8979h18.458c0.17074 1.9039 0.56722 3.7897 1.9776 3.9266z" stroke="#0072af" fill="url(#a)"/>
  </g>
  <g transform="matrix(.97595 -0.218 0.218 .97595 -64.163 -70.895)">
   <path stroke-linejoin="round" d="m-357.35 259.6 6.8196-4.6887c0.59584-0.48206 0.27723-1.5639 0.0348-2.172-0.23151-0.63181-0.63889-0.98063-1.4592-0.48175l-7.4737 5.1104" fill-rule="evenodd" stroke="#500" stroke-width=".35565" fill="url(#g)"/>
   <g stroke-linejoin="round" fill-rule="evenodd" transform="matrix(.89468 .089694 -.22601 .87614 13.568 62.018)" stroke-width=".35549px">
    <path d="m-351.56 258.97-1.0297 2.8715 1.1454 1.0197 2.8613-1.5036c0.0577-0.55003 0.18233-1.0802-0.67302-1.146-0.10957-0.44139-0.0201-0.95886-0.9452-0.90969-0.34393-0.9716-0.92205-0.46897-1.3588-0.33188z" stroke="url(#e)" fill="url(#f)"/>
    <path d="m-352.59 261.86-0.62495 1.7792 1.7861-0.78254c-0.23617-0.78087-0.51585-1.2232-1.1611-0.99667z" stroke-opacity=".83871" stroke="#750000" fill="url(#d)"/>
   </g>
   <path d="m-350.43 254.9-6.8443 4.7424" stroke="#000" stroke-width=".28943" fill="none"/>
  </g>
 </g>
</svg>
