<?xml version="1.0" encoding="UTF-8" standalone="no"?>
<svg xmlns:rdf="http://www.w3.org/1999/02/22-rdf-syntax-ns#" xmlns="http://www.w3.org/2000/svg" height="297mm" width="210mm" version="1.1" xmlns:cc="http://creativecommons.org/ns#" xmlns:xlink="http://www.w3.org/1999/xlink" viewBox="0 0 744.09448819 1052.3622047" xmlns:dc="http://purl.org/dc/elements/1.1/">
 <defs>
  <radialGradient id="b" gradientUnits="userSpaceOnUse" cy="29.5" cx="24.5" gradientTransform="matrix(-.66258 0 0 .68659 -347.76 301.72)" r="15.095">
   <stop stop-color="#f2f4f1" offset="0"/>
   <stop stop-color="#d3d7cf" offset="1"/>
  </radialGradient>
  <linearGradient id="e" y2="34.095" gradientUnits="userSpaceOnUse" x2="24.095" gradientTransform="matrix(-.30564 0 0 .31672 -356.63 312.76)" y1="12.595" x1="24.095">
   <stop stop-color="#eeeeec" offset="0"/>
   <stop stop-color="#fff" offset="1"/>
  </linearGradient>
  <linearGradient id="d" y2="8.162" xlink:href="#a" gradientUnits="userSpaceOnUse" x2="39.438" gradientTransform="matrix(.30759 0 0 .31873 -367.07 312.43)" y1="6.7174" x1="38.293"/>
  <linearGradient id="a">
   <stop stop-color="#fff" stop-opacity="0" offset="0"/>
   <stop stop-color="#fff" offset=".5"/>
   <stop stop-color="#fff" stop-opacity="0" offset="1"/>
  </linearGradient>
  <linearGradient id="c" y2="6.7844" xlink:href="#a" gradientUnits="userSpaceOnUse" x2="9.0675" gradientTransform="matrix(.30759 0 0 .31873 -371.38 312.43)" y1="7.9334" x1="8.1169"/>
 </defs>
 <metadata>
  <rdf:RDF>
   <cc:Work rdf:about="">
    <dc:format>image/svg+xml</dc:format>
    <dc:type rdf:resource="http://purl.org/dc/dcmitype/StillImage"/>
    <dc:title/>
   </cc:Work>
  </rdf:RDF>
 </metadata>
 <g transform="translate(713.25 -38.437)">
  <g transform="matrix(1 0 0 1.1303 -314.94 -62.1)">
   <path style="color:#000000" d="m-368.29 313.87h12.898c0.77265 0 1.3947 0.66121 1.3947 1.4825v9.134c0 0.82132-0.62203 1.4825-1.3947 1.4825h-12.898c-0.77265 0-1.3947-0.6612-1.3947-1.4825v-9.134c0-0.82131 0.62203-1.4825 1.3947-1.4825z" display="block" stroke="#50514e" stroke-width=".31311" fill="#d3d7cf"/>
   <path style="color:#000000" d="m-356.09 314.82h-11.267c-0.60565 0-1.0932 0.50525-1.0932 1.1328v6.9796c0 0.62759 0.48757 1.1328 1.0932 1.1328h11.267c0.60564 0 1.0932-0.50525 1.0932-1.1328v-6.9796c0-0.62759-0.48758-1.1328-1.0932-1.1328z" display="block" stroke="url(#e)" stroke-width=".31311" fill="url(#b)"/>
   <path opacity=".48889" style="color:#000000" d="m-368.3 314.18h12.896c0.6028 0 1.0881 0.50287 1.0881 1.1275v9.2229c0 0.62464-0.48528 1.1275-1.0881 1.1275h-12.896c-0.6028 0-1.0881-0.50288-1.0881-1.1275v-9.2229c0-0.62465 0.48528-1.1275 1.0881-1.1275z" display="block" stroke="#fff" stroke-width=".31311" fill="none"/>
   <path opacity=".48889" style="color:#000000" display="block" fill="#fff" d="m-369.55 324.7c0.0192 0.35857 0.4037 0.93628 0.86508 1.0558l0.67285-1.753-0.28837-0.21913-1.2496 0.91636z"/>
   <path opacity=".48889" style="color:#000000" d="m-354.13 324.7c-0.0192 0.35857-0.40371 0.93628-0.86509 1.0558l-0.67284-1.753 0.28836-0.21913 1.2496 0.91636z" display="block" fill="#fff"/>
   <path style="color:#000000" display="block" fill="url(#d)" d="m-354.3 314.7c-0.13457-0.17929-0.36526-0.51794-0.67284-0.61754l-0.59595 0.81675 0.28836 0.31873 0.98043-0.51794z"/>
   <path style="color:#000000" d="m-369.4 314.7c0.13457-0.17929 0.34603-0.49802 0.65362-0.59762l0.57672 0.85659-0.21146 0.31874-1.0189-0.57771z" display="block" fill="url(#c)"/>
   <text style="word-spacing:0px;letter-spacing:.34299px" font-family="Sans" xml:space="preserve" font-size="4.1159px" stroke="#000000" line-height="125%" y="321.10919" x="-367.7739" stroke-width=".21336" fill="#000000"><tspan y="321.10919" x="-367.7739" stroke-width=".21336">CTRL</tspan></text>
  </g>
  <rect style="color:#000000" height="16" width="16" y="291.49" x="-684.78" fill="none"/>
 </g>
</svg>
