<?xml version="1.0" encoding="UTF-8" standalone="no"?>
<svg xmlns:rdf="http://www.w3.org/1999/02/22-rdf-syntax-ns#" xmlns="http://www.w3.org/2000/svg" height="297mm" width="210mm" version="1.1" xmlns:cc="http://creativecommons.org/ns#" xmlns:xlink="http://www.w3.org/1999/xlink" viewBox="0 0 744.09448819 1052.3622047" xmlns:dc="http://purl.org/dc/elements/1.1/">
 <defs>
  <linearGradient id="u" y2="50.55" gradientUnits="userSpaceOnUse" x2="14.182" gradientTransform="matrix(.31824 0 0 .30411 -442.32 132.71)" y1="36.486" x1="-33.818">
   <stop stop-color="#b7bec8" offset="0"/>
   <stop stop-color="#535d6c" offset="1"/>
  </linearGradient>
  <linearGradient id="w" y2="70.698" xlink:href="#c" gradientUnits="userSpaceOnUse" x2="196.21" gradientTransform="matrix(.32487 0 0 .29803 -509.48 117.63)" y1="88.996" x1="195.93"/>
  <linearGradient id="c">
   <stop stop-color="#77000d" offset="0"/>
   <stop stop-color="#ff0731" offset="1"/>
  </linearGradient>
  <linearGradient id="v" y2="103.62" gradientUnits="userSpaceOnUse" x2="195.93" gradientTransform="matrix(.32487 0 0 .29803 -509.48 117.63)" y1="72.996" x1="195.93">
   <stop stop-color="#5c000f" offset="0"/>
   <stop stop-color="#7c1f16" stop-opacity="0" offset="1"/>
  </linearGradient>
  <linearGradient id="x" y2="88.711" xlink:href="#c" gradientUnits="userSpaceOnUse" x2="196.69" gradientTransform="matrix(.32487 0 0 .29803 -509.48 117.67)" y1="82.763" x1="198"/>
  <radialGradient id="e" gradientUnits="userSpaceOnUse" cy="132.31" cx="196.92" gradientTransform="matrix(0 .98878 -1.0116 0 343.81 -116.14)" r="21">
   <stop stop-color="#fffefe" offset="0"/>
   <stop stop-color="#d5d7da" offset="1"/>
  </radialGradient>
  <linearGradient id="t" y2="92.452" xlink:href="#d" gradientUnits="userSpaceOnUse" x2="279.57" gradientTransform="translate(-34.405 9.1578)" y1="94.043" x1="281.2"/>
  <linearGradient id="d">
   <stop stop-color="#d0bcba" offset="0"/>
   <stop stop-color="#fefdfd" offset="1"/>
  </linearGradient>
  <linearGradient id="s" y2="122.7" xlink:href="#d" gradientUnits="userSpaceOnUse" x2="223.51" gradientTransform="translate(29.5,-14)" y1="113.87" x1="213.3"/>
  <linearGradient id="r" y2="35.012" xlink:href="#b" gradientUnits="userSpaceOnUse" x2="219.23" gradientTransform="matrix(1.078 0 0 1.0746 -55.113 33.894)" y1="35.012" x1="221.62"/>
  <linearGradient id="b">
   <stop stop-color="#978888" offset="0"/>
   <stop stop-color="#fbfcfc" offset="1"/>
  </linearGradient>
  <linearGradient id="q" y2="26.507" xlink:href="#a" gradientUnits="userSpaceOnUse" x2="250.11" gradientTransform="translate(-68.059 38.978)" y1="38.571" x1="250.11"/>
  <linearGradient id="a">
   <stop stop-color="#d0bcba" offset="0"/>
   <stop stop-color="#6c6c6c" offset="1"/>
  </linearGradient>
  <linearGradient id="p" y2="35.012" xlink:href="#b" gradientUnits="userSpaceOnUse" x2="219.23" gradientTransform="matrix(1.078 0 0 1.0746 -47.594 33.894)" y1="35.012" x1="221.62"/>
  <linearGradient id="o" y2="26.507" xlink:href="#a" gradientUnits="userSpaceOnUse" x2="250.11" gradientTransform="translate(-60.54 38.978)" y1="38.571" x1="250.11"/>
  <linearGradient id="n" y2="35.012" xlink:href="#b" gradientUnits="userSpaceOnUse" x2="219.23" gradientTransform="matrix(1.078 0 0 1.0746 -40.075 33.894)" y1="35.012" x1="221.62"/>
  <linearGradient id="m" y2="26.507" xlink:href="#a" gradientUnits="userSpaceOnUse" x2="250.11" gradientTransform="translate(-53.02 38.978)" y1="38.571" x1="250.11"/>
  <linearGradient id="l" y2="35.012" xlink:href="#b" gradientUnits="userSpaceOnUse" x2="219.23" gradientTransform="matrix(1.078 0 0 1.0746 -32.555 33.894)" y1="35.012" x1="221.62"/>
  <linearGradient id="k" y2="26.507" xlink:href="#a" gradientUnits="userSpaceOnUse" x2="250.11" gradientTransform="translate(-45.501 38.978)" y1="38.571" x1="250.11"/>
  <linearGradient id="j" y2="35.012" xlink:href="#b" gradientUnits="userSpaceOnUse" x2="219.23" gradientTransform="matrix(1.078 0 0 1.0746 -25.036 33.894)" y1="35.012" x1="221.62"/>
  <linearGradient id="i" y2="26.507" xlink:href="#a" gradientUnits="userSpaceOnUse" x2="250.11" gradientTransform="translate(-37.982 38.978)" y1="38.571" x1="250.11"/>
  <linearGradient id="h" y2="260.53" gradientUnits="userSpaceOnUse" x2="243.32" gradientTransform="matrix(.93683 .014449 0 .96961 -682.59 -551.61)" y1="402.15" x1="243.32">
   <stop stop-color="#fff" stop-opacity="0" offset="0"/>
   <stop stop-color="#fff" stop-opacity=".57255" offset="1"/>
  </linearGradient>
  <linearGradient id="g" y2="469.55" gradientUnits="userSpaceOnUse" x2="260.55" gradientTransform="matrix(.99992 0 0 1.0001 -717.61 -582.54)" y1="307.83" x1="259.4">
   <stop stop-color="#ddd" offset="0"/>
   <stop stop-color="#f5f5f5" offset="1"/>
  </linearGradient>
  <linearGradient id="f" y2="850.53" gradientUnits="userSpaceOnUse" x2="106.81" gradientTransform="matrix(.94288 0 0 .92662 -557.49 -1056.4)" y1="987.17" x1="104.63">
   <stop stop-color="#fff" stop-opacity="0" offset="0"/>
   <stop stop-color="#fff" stop-opacity="0.85" offset="1"/>
  </linearGradient>
 </defs>
 <metadata>
  <rdf:RDF>
   <cc:Work rdf:about="">
    <dc:format>image/svg+xml</dc:format>
    <dc:type rdf:resource="http://purl.org/dc/dcmitype/StillImage"/>
    <dc:title/>
   </cc:Work>
  </rdf:RDF>
 </metadata>
 <g transform="matrix(1.0003 0 0 1.0003 478.88 -115.41)">
  <rect rx=".49655" ry=".45552" height="14.597" width="15.276" y="139.07" x="-452.76" fill="#6f7c91"/>
  <rect rx=".49655" ry=".45552" height="14.597" width="15.276" y="138.77" x="-453.08" fill="url(#u)"/>
  <rect height="4.5897" width="13.45" stroke="url(#v)" stroke-linecap="round" y="139.47" x="-452" stroke-width=".18670" fill="url(#w)"/>
  <path d="m-451.97 139.67-0.0371 4.3433c0.10354 0.01 13.373-0.00013 13.41 0 0.0309 0.00011 0.0315-0.20877 0.0112-0.78233-3.4379-0.0373-4.5943-0.70373-6.132-1.3225-1.3921-0.51736-4.3766-0.0249-5.7868-0.39116-1.0358-0.3981-0.96467-0.78648-1.4654-1.8473z" fill="url(#x)"/>
  <g transform="matrix(.32487 0 0 .29838 -518.99 121.78)">
   <rect height="29.366" width="41.4" stroke="#afa497" stroke-linecap="round" y="75.136" x="206.17" stroke-width=".59965" fill="url(#e)"/>
   <g stroke-opacity=".10135" transform="matrix(1 0 0 .99883 -20.881 -12.446)" stroke="#c60002" stroke-width="1px" fill="none">
    <path d="m227.38 90.874h41.189"/>
    <path d="m227.38 94.881h41.189"/>
    <path d="m227.38 114.92h41.189"/>
    <path d="m227.38 110.91h41.189"/>
    <path d="m227.38 106.9h41.189"/>
    <path d="m227.38 102.89h41.189"/>
    <path d="m227.38 98.888h41.189"/>
   </g>
   <path opacity=".53898" d="m247.46 97.631c-1.3556 2.8653-3.0457 4.7151-5.622 6.6465 2.0989 0.31643 3.9864-0.45739 5.0362-0.89983 0.36782-1.7038 0.67046-4.0302 0.58573-5.7467z" fill-rule="evenodd" stroke="url(#s)" stroke-width="0.453" fill="url(#t)"/>
  </g>
  <g transform="matrix(.32487 0 0 .29803 -509.31 118.16)" stroke-linecap="round" stroke-width="0.666">
   <rect rx="1.4293" ry="2.2434" height="11.397" width="2.8586" stroke="url(#q)" y="65.818" x="180.63" fill="url(#r)"/>
   <rect rx="1.4293" ry="2.2434" height="11.397" width="2.8586" stroke="url(#o)" y="65.818" x="188.14" fill="url(#p)"/>
   <rect rx="1.4293" ry="2.2434" height="11.397" width="2.8586" stroke="url(#m)" y="65.818" x="195.66" fill="url(#n)"/>
   <rect rx="1.4293" ry="2.2434" height="11.397" width="2.8586" stroke="url(#k)" y="65.818" x="203.18" fill="url(#l)"/>
   <rect rx="1.4293" ry="2.2434" height="11.397" width="2.8586" stroke="url(#i)" y="65.818" x="210.7" fill="url(#j)"/>
  </g>
  <path d="m-448.23 149.9h2.2276v0.95952h-3.6787v-0.95952l1.8478-1.6309c0.16501-0.14918 0.28707-0.29497 0.36619-0.43738 0.0791-0.1424 0.11866-0.29045 0.11866-0.44416 0-0.23733-0.0802-0.42833-0.24072-0.573-0.15823-0.14466-0.36958-0.21699-0.63404-0.217-0.20343 0.00001-0.42608 0.0441-0.66793 0.13223-0.24186 0.0859-0.50068 0.21474-0.77644 0.38653v-1.1121c0.29385-0.0972 0.5843-0.17065 0.87137-0.22039 0.28706-0.052 0.56848-0.078 0.84425-0.078 0.60577 0.00001 1.0759 0.13337 1.4105 0.40008 0.33678 0.26673 0.50518 0.63856 0.50519 1.1155-0.00001 0.27577-0.0712 0.53345-0.21361 0.77305-0.14241 0.23734-0.4419 0.55605-0.8985 0.95613l-1.0816 0.94936m5.3842-3.0278-1.4308 2.1191h1.4308v-2.1191m-0.21699-1.0748h1.4512v3.1939h0.72218v0.94596h-0.72218v0.92223h-1.2342v-0.92223h-2.2445v-1.1189l2.0276-3.021"/>
  <g transform="matrix(.040922 0 0 .040922 -417.91 156.14)">
   <path d="m-351.19-193.66a103.65 103.65 0 1 0 -207.3 0 103.65 103.65 0 1 0 207.3 0z"/>
   <path d="m-356.18-193.45a100.65 96.96 78.224 1 0 -194.23 -2.9958 100.65 96.96 78.224 1 0 194.23 2.9958z" stroke-width="1.2535" fill="url(#h)"/>
   <path d="m-366.58-185.32a88.295 95.537 0 1 0 -176.59 0 88.295 95.537 0 0 0 176.59 0z"/>
   <path d="m-372.18-194.4a82.601 82.601 0 1 0 -165.2 0 82.601 82.601 0 1 0 165.2 0z" stroke-width="3.75" fill="url(#g)"/>
   <path d="m-384.9-200.65a69.827 68.607 0 1 0 -139.65 0 69.827 68.607 0 1 0 139.65 0z" fill="url(#f)"/>
   <path d="m-449.01-184.25-30.719-47.786" stroke="#000" stroke-width="6" fill="none"/>
   <path d="m-460.66-183.46 36.967-67.113" stroke="#000" stroke-width="6" fill="none"/>
   <path d="m-468.12-191.76 79.871-8.1919" stroke="#f00" stroke-width="3" fill="none"/>
   <rect y="-271.08" width="3.7731" x="-456.62" height="9.0606"/>
   <rect y="-127.11" width="3.7731" x="-456.62" height="9.0606"/>
   <rect transform="rotate(90)" height="9.0606" width="3.7731" y="521.5" x="-196.68"/>
   <rect transform="rotate(90)" height="9.0606" width="3.7731" y="379.13" x="-196.68"/>
  </g>
 </g>
</svg>
