<?xml version="1.0" encoding="UTF-8" standalone="no"?>
<svg xmlns:rdf="http://www.w3.org/1999/02/22-rdf-syntax-ns#" xmlns="http://www.w3.org/2000/svg" height="297mm" width="210mm" version="1.1" xmlns:cc="http://creativecommons.org/ns#" xmlns:xlink="http://www.w3.org/1999/xlink" viewBox="0 0 744.09448819 1052.3622047" xmlns:dc="http://purl.org/dc/elements/1.1/">
 <defs>
  <radialGradient id="a" gradientUnits="userSpaceOnUse" cy="498.92" cx="453.11" gradientTransform="matrix(1.372 .93823 -.52585 .76894 99.161 -331.72)" r="8.4836">
   <stop stop-color="#fff" offset="0"/>
   <stop stop-color="#7c7c7c" offset="1"/>
  </radialGradient>
  <linearGradient id="c" y2="536.1" gradientUnits="userSpaceOnUse" x2="501.47" gradientTransform="translate(-74.951 -42.905)" y1="543.43" x1="517.95">
   <stop stop-color="#8dd35f" offset="0"/>
   <stop stop-color="#fff" offset="1"/>
  </linearGradient>
  <linearGradient id="b" y2="514.45" gradientUnits="userSpaceOnUse" x2="486.74" y1="506.23" x1="475.91">
   <stop stop-color="#5aa02c" offset="0"/>
   <stop stop-color="#e3f4d7" offset="1"/>
  </linearGradient>
 </defs>
 <metadata>
  <rdf:RDF>
   <cc:Work rdf:about="">
    <dc:format>image/svg+xml</dc:format>
    <dc:type rdf:resource="http://purl.org/dc/dcmitype/StillImage"/>
    <dc:title/>
   </cc:Work>
  </rdf:RDF>
 </metadata>
 <g transform="translate(410.83 56.457)">
  <g transform="matrix(0.5 0 0 0.5 -608.32 -178.85)">
   <path d="m459.53 485.08-4.8985 0.0645 0.043-5.5001c0.11486-3.0714 3.5127-5.5766 7.8204-5.543 4.4752-0.0007 7.9512 2.8412 8.0353 5.5001v9.6681h-4.8555v-9.2384c-0.07-1.0834-1.4878-2.0378-3.0316-1.9984-1.3368-0.002-3.0735 0.31689-3.156 2.0843l0.043 4.963z" fill-rule="evenodd" stroke="#484848" stroke-width=".99571px" fill="url(#a)"/>
   <rect transform="scale(-1)" rx=".16552" ry=".18513" height="32" width="32" y="-505.6" x="-484.85" fill="none"/>
   <g transform="translate(38)" stroke-linecap="round">
    <rect height="17.902" width="21.144" stroke="#250" y="487.2" x="424.05" fill="url(#c)"/>
    <path d="m434.6 491.64c-1.1338 0-2.0312 0.89746-2.0312 2.0312 0 0.87514 0.54097 1.6418 1.3125 1.9375l-0.40625 1.375-1.0938 3.6875h2.2188 2.25l-1.1562-3.6875-0.40625-1.375c0.80119-0.28016 1.375-1.0411 1.375-1.9375 0-1.1338-0.9287-2.0313-2.0625-2.0312z" stroke="#2d5016" stroke-width=".66838"/>
    <circle stroke="url(#b)" transform="translate(-47.222 -13.985)" cy="510.14" cx="481.84" r="6.7778" fill="none"/>
   </g>
  </g>
  <g transform="matrix(.76724 0 0 .80498 -255.32 -641.95)" fill="#f00">
   <path style="color:#000000" d="m-161.28 889.17c0.59165-6.8804 5.7208-14.856 13.736-16l1.3818 2.3683c-7.776 1.6244-12.057 5.7928-15.118 13.632z"/>
   <path style="color:#000000" d="m-164.97 874.34c6.9053 0.0759 15.242 4.5947 16.982 12.502l-2.2584 1.555c-2.2009-7.6329-6.6776-11.591-14.723-14.057z"/>
  </g>
 </g>
</svg>
