<?xml version="1.0" encoding="UTF-8" standalone="no"?>
<svg xmlns:rdf="http://www.w3.org/1999/02/22-rdf-syntax-ns#" xmlns="http://www.w3.org/2000/svg" height="297mm" width="210mm" version="1.1" xmlns:cc="http://creativecommons.org/ns#" xmlns:xlink="http://www.w3.org/1999/xlink" viewBox="0 0 744.09448819 1052.3622047" xmlns:dc="http://purl.org/dc/elements/1.1/">
 <metadata>
  <rdf:RDF>
   <cc:Work rdf:about="">
    <dc:format>image/svg+xml</dc:format>
    <dc:type rdf:resource="http://purl.org/dc/dcmitype/StillImage"/>
    <dc:title/>
   </cc:Work>
  </rdf:RDF>
 </metadata>
 <g transform="matrix(.94455 0 0 .94455 -211.37 -572.23)" stroke-width=".46787">
  <path style="color:#000000;text-indent:0;block-progression:tb;text-decoration-line:none;text-transform:none" d="m265.83 855.33c1.8247 0.48767 3.315-0.1049 4.1973 0.95428 0.88236 1.0591 1.8328 0.86272 3.4153 1.1331-1.321-0.23313-2.3614-0.32694-3.1733-1.5023-0.82684-1.1994-2.2652-1.274-4.1287-1.7719l-0.31057 1.1869-0.00001-0.00001z" stroke-opacity=".79216" fill-opacity=".93725" stroke="#6436d5" fill="#693dd6"/>
  <rect height="3.0676" stroke="#212190" fill="#fff" style="color:#000000" rx=".73590" ry=".67648" width="6.508" y="855.71" x="271.78"/>
 </g>
 <g transform="matrix(.94455 0 0 -.94455 -210.61 1040.6)" stroke-width=".46787">
  <path style="color:#000000;text-indent:0;block-progression:tb;text-decoration-line:none;text-transform:none" d="m265.83 855.33c1.8247 0.48767 3.315-0.1049 4.1973 0.95428 0.88236 1.0591 1.8328 0.86272 3.4153 1.1331-1.321-0.23313-2.3614-0.32694-3.1733-1.5023-0.82684-1.1994-2.2652-1.274-4.1287-1.7719l-0.31057 1.1869-0.00001-0.00001z" stroke-opacity=".79216" fill-opacity=".93725" stroke="#6436d5" fill="#693dd6"/>
  <rect height="3.0676" stroke="#212190" fill="#fff" style="color:#000000" rx=".73590" ry=".67648" width="6.508" y="855.71" x="271.78"/>
 </g>
 <ellipse cy="234.45" stroke-width=".90999" fill="#fff" fill-rule="evenodd" rx="5.0323" ry="4.8597" stroke-opacity=".93333" stroke="#7851db" cx="36.668"/>
 <text style="word-spacing:0px;letter-spacing:0px" font-family="Gabriola" transform="matrix(1.0073 0 -.17055 .99277 0 0)" stroke="#000080" xml:space="preserve" line-height="125%" font-size="14.71px" y="238.45256" x="72.951309" stroke-width=".21001" fill="#14148a"><tspan stroke="#000080" dx="0.64732379" y="238.45256" x="72.951309" stroke-width=".21001" fill="#14148a">x</tspan></text>
 <text style="word-spacing:0px;letter-spacing:.67240px" font-family="Arial" stroke-opacity=".93333" fill-opacity=".93725" line-height="1000%" transform="matrix(1 0 -.24473 1 0 0)" font-style="italic" stroke="#562fc8" xml:space="preserve" font-size="16.81px" y="235.75659" x="84.571541" stroke-width=".70841" fill="#5730ca"><tspan font-family="Gabriola" stroke-opacity=".93333" fill-opacity=".93725" font-style="normal" stroke="#562fc8" y="235.75659" x="84.571541" stroke-width=".70841" fill="#5730ca">f</tspan></text>
</svg>
