<?xml version="1.0" encoding="UTF-8" standalone="no"?>
<svg
   xmlns:dc="http://purl.org/dc/elements/1.1/"
   xmlns:cc="http://creativecommons.org/ns#"
   xmlns:rdf="http://www.w3.org/1999/02/22-rdf-syntax-ns#"
   xmlns:svg="http://www.w3.org/2000/svg"
   xmlns="http://www.w3.org/2000/svg"
   xmlns:sodipodi="http://sodipodi.sourceforge.net/DTD/sodipodi-0.dtd"
   xmlns:inkscape="http://www.inkscape.org/namespaces/inkscape"
   height="16"
   width="16.01156"
   version="1.1"
   id="svg2"
   inkscape:version="0.48.5 r10040"
   sodipodi:docname="Cloud24.gif.svg">
  <sodipodi:namedview
     pagecolor="#ffffff"
     bordercolor="#666666"
     borderopacity="1"
     objecttolerance="10"
     gridtolerance="10"
     guidetolerance="10"
     inkscape:pageopacity="0"
     inkscape:pageshadow="2"
     inkscape:window-width="640"
     inkscape:window-height="480"
     id="namedview34"
     showgrid="false"
     fit-margin-top="0"
     fit-margin-left="0"
     fit-margin-right="0"
     fit-margin-bottom="0"
     inkscape:zoom="1"
     inkscape:cx="154.98844"
     inkscape:cy="58.205749"
     inkscape:window-x="0"
     inkscape:window-y="27"
     inkscape:window-maximized="0"
     inkscape:current-layer="svg2" />
  <defs
     id="defs4">
    <linearGradient
       id="b"
       y2="628.06"
       gradientUnits="userSpaceOnUse"
       x2="-719.81"
       gradientTransform="matrix(0.12814,0,0,0.13053,34.59,763.12)"
       y1="575.20001"
       x1="-715.75">
      <stop
         stop-color="#dc71c8"
         stop-opacity="0.4"
         offset="0"
         id="stop7" />
      <stop
         stop-color="#fff"
         stop-opacity="0"
         offset="1"
         id="stop9" />
    </linearGradient>
    <linearGradient
       id="a"
       y2="628.06"
       gradientUnits="userSpaceOnUse"
       x2="-719.81"
       gradientTransform="matrix(0.12814,0,0,0.14018,34.701,757.07)"
       y1="575.20001"
       x1="-715.75">
      <stop
         stop-color="#0cf"
         offset="0"
         id="stop12" />
      <stop
         stop-color="#fff"
         stop-opacity="0"
         offset="1"
         id="stop14" />
    </linearGradient>
  </defs>
  <metadata
     id="metadata16">
    <rdf:RDF>
      <cc:Work
         rdf:about="">
        <dc:format>image/svg+xml</dc:format>
        <dc:type
           rdf:resource="http://purl.org/dc/dcmitype/StillImage" />
        <dc:title />
      </cc:Work>
    </rdf:RDF>
  </metadata>
  <g
     transform="translate(64.639079,-833.48999)"
     id="g18">
    <rect
       style="color:#000000;fill:none"
       height="16"
       width="16"
       y="833.48999"
       x="-64.638"
       id="rect20" />
    <g
       transform="matrix(0.98422,0,0,0.98422,-0.84932,13.237)"
       id="g22">
      <path
         style="color:#000000;fill:#ffffff;fill-rule:evenodd;stroke:#d24ebc;stroke-width:0.74342"
         d="m -56.71,835.76 c -1.2969,0 -2.4275,0.59498 -3.0473,1.4806 -9.91e-4,-4.1e-4 -0.003,4.3e-4 -0.004,0 -0.32527,-0.10471 -0.67074,-0.16207 -1.0291,-0.16207 -1.9187,0 -3.4758,1.6156 -3.4758,3.6095 0,1.6489 1.0656,3.0418 2.5188,3.4738 0.25327,1.3199 1.6431,2.5441 3.4838,2.9349 2.003,0.42533 3.8499,-0.28559 4.3928,-1.6076 2.4802,0.28744 4.6396,-0.98548 4.8453,-2.8736 0.20718,-1.9013 -1.6459,-3.7113 -4.1446,-4.052 -0.13585,-1.5675 -1.6678,-2.8035 -3.5399,-2.8035 z"
         id="path24"
         inkscape:connector-curvature="0" />
      <path
         style="color:#000000;fill:url(#b);fill-rule:evenodd"
         d="m -58.209,840.13 c -2.514,-0.0229 -4.7336,0.49733 -6.1828,1.3542 0.1859,1.3328 1.179,2.42 2.4867,2.7819 0.25327,1.2291 1.6431,2.369 3.4838,2.733 2.003,0.39607 3.8499,-0.26593 4.3928,-1.497 2.1658,0.23372 4.0879,-0.63929 4.6771,-2.0354 -1.0449,-1.7114 -4.1896,-3.0836 -7.9768,-3.304 -0.2961,-0.0172 -0.59179,-0.03 -0.88096,-0.0326 z"
         id="path26"
         inkscape:connector-curvature="0" />
      <path
         style="color:#000000;fill:url(#a);fill-rule:evenodd;stroke:#0055d4"
         d="m -56.756,835.81 c -1.2969,0 -2.4275,0.59498 -3.0473,1.4806 -9.91e-4,-4.1e-4 -0.003,4.3e-4 -0.004,0 -0.32527,-0.10471 -0.67074,-0.16207 -1.0291,-0.16207 -1.9187,0 -3.4758,1.6156 -3.4758,3.6095 0,1.6489 1.0656,3.0418 2.5188,3.4738 0.25327,1.3199 1.6431,2.5441 3.4838,2.9349 2.003,0.42533 3.8499,-0.28559 4.3928,-1.6076 2.4802,0.28744 4.6396,-0.98548 4.8453,-2.8736 0.20718,-1.9013 -1.6459,-3.7113 -4.1446,-4.052 -0.13585,-1.5675 -1.6678,-2.8035 -3.5399,-2.8035 z"
         id="path28"
         inkscape:connector-curvature="0" />
      <path
         style="color:#000000;fill:none;stroke:#0855d3;stroke-width:1px;stroke-linecap:round;stroke-opacity:0.97646999"
         d="m -53.158,838.69 c -1.5533,0.97885 -1.2314,3.1178 -1.133,4.2146"
         id="path30"
         inkscape:connector-curvature="0" />
      <path
         style="color:#000000;fill:none;stroke:#1f54d0;stroke-width:1px;stroke-linecap:round;stroke-opacity:0.78430996"
         d="m -59.82,837.24 c -1.0972,1.0775 -1.2368,3.4533 -0.63446,4.4865"
         id="path32"
         inkscape:connector-curvature="0" />
    </g>
  </g>
</svg>
