<?xml version="1.0" encoding="UTF-8" standalone="no"?>
<svg
   xmlns:dc="http://purl.org/dc/elements/1.1/"
   xmlns:cc="http://creativecommons.org/ns#"
   xmlns:rdf="http://www.w3.org/1999/02/22-rdf-syntax-ns#"
   xmlns:svg="http://www.w3.org/2000/svg"
   xmlns="http://www.w3.org/2000/svg"
   xmlns:xlink="http://www.w3.org/1999/xlink"
   xmlns:sodipodi="http://sodipodi.sourceforge.net/DTD/sodipodi-0.dtd"
   xmlns:inkscape="http://www.inkscape.org/namespaces/inkscape"
   height="16.191553"
   width="16.069746"
   version="1.1"
   id="svg2"
   inkscape:version="0.48.5 r10040"
   sodipodi:docname="designer.svg">
  <sodipodi:namedview
     pagecolor="#ffffff"
     bordercolor="#666666"
     borderopacity="1"
     objecttolerance="10"
     gridtolerance="10"
     guidetolerance="10"
     inkscape:pageopacity="0"
     inkscape:pageshadow="2"
     inkscape:window-width="640"
     inkscape:window-height="480"
     id="namedview63"
     showgrid="false"
     fit-margin-top="0"
     fit-margin-left="0"
     fit-margin-right="0"
     fit-margin-bottom="0"
     inkscape:zoom="0.22424933"
     inkscape:cx="338.37312"
     inkscape:cy="-428.42749"
     inkscape:window-x="0"
     inkscape:window-y="27"
     inkscape:window-maximized="0"
     inkscape:current-layer="svg2" />
  <defs
     id="defs4">
    <radialGradient
       id="d"
       gradientUnits="userSpaceOnUse"
       cy="235.85001"
       cx="-1490.8"
       gradientTransform="matrix(-1.0088,1.5906,-0.51887,-0.32907,-2866.2,2679.4)"
       r="12.631">
      <stop
         stop-color="#ed0000"
         offset="0"
         id="stop7" />
      <stop
         stop-color="#f68686"
         offset="1"
         id="stop9" />
    </radialGradient>
    <linearGradient
       id="g"
       y2="229.36"
       xlink:href="#a"
       gradientUnits="userSpaceOnUse"
       x2="-1508.5"
       gradientTransform="matrix(1.1724,0,0,1.1724,1474.7,15.739)"
       y1="210.75"
       x1="-1498.6" />
    <linearGradient
       id="a">
      <stop
         stop-color="#fff"
         offset="0"
         id="stop13" />
      <stop
         stop-color="#fff"
         stop-opacity="0"
         offset="1"
         id="stop15" />
    </linearGradient>
    <radialGradient
       id="c"
       gradientUnits="userSpaceOnUse"
       cy="235.85001"
       cx="-1490.8"
       gradientTransform="matrix(-1.0088,1.5906,-0.51887,-0.32907,-2866.2,2679.4)"
       r="12.631">
      <stop
         stop-color="#2840d5"
         offset="0"
         id="stop18" />
      <stop
         stop-color="#99a5eb"
         offset="1"
         id="stop20" />
    </radialGradient>
    <linearGradient
       id="f"
       y2="229.36"
       xlink:href="#a"
       gradientUnits="userSpaceOnUse"
       x2="-1508.5"
       gradientTransform="matrix(1.1724,0,0,1.1724,1296.5,-15.143)"
       y1="210.75"
       x1="-1498.6" />
    <radialGradient
       id="b"
       gradientUnits="userSpaceOnUse"
       cy="235.85001"
       cx="-1490.8"
       gradientTransform="matrix(-1.0088,1.5906,-0.51887,-0.32907,-2866.2,2679.4)"
       r="12.631">
      <stop
         stop-color="#eda701"
         offset="0"
         id="stop24" />
      <stop
         stop-color="#fee806"
         offset="1"
         id="stop26" />
    </radialGradient>
    <linearGradient
       id="e"
       y2="229.36"
       gradientUnits="userSpaceOnUse"
       x2="-1508.5"
       y1="210.75"
       x1="-1498.6">
      <stop
         stop-color="#fff"
         offset="0"
         id="stop29" />
      <stop
         stop-color="#fff"
         stop-opacity="0"
         offset="1"
         id="stop31" />
    </linearGradient>
  </defs>
  <metadata
     id="metadata33">
    <rdf:RDF>
      <cc:Work
         rdf:about="">
        <dc:format>image/svg+xml</dc:format>
        <dc:type
           rdf:resource="http://purl.org/dc/dcmitype/StillImage" />
        <dc:title />
      </cc:Work>
    </rdf:RDF>
  </metadata>
  <g
     transform="translate(147.3881,-798.05097)"
     id="g35">
    <g
       transform="translate(-89.793,-68.005)"
       id="g37">
      <path
         d="m -44.105,871.1 c -0.58873,0.51848 -1.6403,1.4955 -1.4664,2.0452 0.17388,0.54969 0.62338,0.93118 1.0351,1.4544 0.6286,0.79875 0.97983,2.2526 0.60381,3.0451 -0.37602,0.79248 -0.6363,0.89776 -1.4233,1.318"
         id="path39"
         inkscape:connector-curvature="0"
         style="fill:none;stroke:#000080;stroke-width:1.01699996px" />
      <path
         d="m -46.046,869.42 c -0.60494,0.0923 -1.3681,0.0147 -2.0074,0.10367 -2.2034,0.30677 -0.4245,2.349 -1.5343,3.8178 -0.5731,0.75849 -2.968,0.80879 -3.9128,0.94034"
         id="path41"
         inkscape:connector-curvature="0"
         style="fill:none;stroke:#aa0000;stroke-width:1px" />
      <g
         transform="matrix(0.18846,-0.015387,0.015387,0.18846,3.9494,811.59)"
         id="g43"
         style="fill-rule:evenodd">
        <path
           transform="matrix(1.0656,0.48876,-0.48876,1.0656,1424.6,755.24)"
           d="m -1480.3,247.22 -12.13,5.5765 -10.895,-7.717 1.2358,-13.294 12.13,-5.5765 10.895,7.7171 z"
           id="path45"
           inkscape:connector-curvature="0"
           style="fill:url(#d);stroke:#c60000;stroke-width:2.25539994" />
        <path
           d="m -274.75,269.39 -13.932,0.0937 -7.9414,12.494 2.8385,3.7254 c 9.079,-12.581 14.154,-14.927 19.035,-16.313 z"
           id="path47"
           inkscape:connector-curvature="0"
           style="fill:url(#g)" />
      </g>
      <g
         transform="matrix(0.18649,-0.031227,0.031227,0.18649,33.125,818.09)"
         id="g49"
         style="fill-rule:evenodd">
        <path
           transform="matrix(1.0656,0.48876,-0.48876,1.0656,1246.4,724.36)"
           d="m -1480.3,247.22 -12.13,5.5765 -10.895,-7.717 1.2358,-13.294 12.13,-5.5765 10.895,7.7171 z"
           id="path51"
           inkscape:connector-curvature="0"
           style="fill:url(#c);stroke:#17257c;stroke-width:2.25539994" />
        <path
           d="m -452.82,238.46 -13.755,0.45519 -8.2587,12.183 2.8385,3.7254 c 9.079,-12.581 14.294,-14.978 19.175,-16.364 z"
           id="path53"
           inkscape:connector-curvature="0"
           style="fill:url(#f)" />
      </g>
      <g
         transform="matrix(0.22019,-0.025734,0.025734,0.22019,269.64,785.65)"
         id="g55"
         style="fill-rule:evenodd">
        <path
           transform="matrix(0.90896,0.41689,-0.41689,0.90896,-42.729,630.77)"
           d="m -1480.3,247.22 -12.13,5.5765 -10.895,-7.717 1.2358,-13.294 12.13,-5.5765 10.895,7.7171 z"
           id="path57"
           inkscape:connector-curvature="0"
           style="fill:url(#b);stroke:#ce6209;stroke-width:2.25539994;stroke-opacity:0.91860004" />
        <path
           d="m -1492.1,216.54 -12.036,-0.29892 -6.7618,10.848 2.4211,3.1776 c 7.744,-10.731 12.214,-12.545 16.377,-13.727 z"
           id="path59"
           inkscape:connector-curvature="0"
           style="fill:url(#e)" />
      </g>
    </g>
    <rect
       style="color:#000000;fill:none"
       height="16"
       width="16"
       y="798.15002"
       x="-147.36"
       id="rect61" />
  </g>
</svg>
