<?xml version="1.0" encoding="UTF-8" standalone="no"?>
<svg
   xmlns:dc="http://purl.org/dc/elements/1.1/"
   xmlns:cc="http://creativecommons.org/ns#"
   xmlns:rdf="http://www.w3.org/1999/02/22-rdf-syntax-ns#"
   xmlns:svg="http://www.w3.org/2000/svg"
   xmlns="http://www.w3.org/2000/svg"
   xmlns:xlink="http://www.w3.org/1999/xlink"
   xmlns:sodipodi="http://sodipodi.sourceforge.net/DTD/sodipodi-0.dtd"
   xmlns:inkscape="http://www.inkscape.org/namespaces/inkscape"
   height="16.003922"
   width="15.8544"
   version="1.1"
   id="svg2"
   inkscape:version="0.48.5 r10040"
   sodipodi:docname="EditAttributesAction.svg">
  <sodipodi:namedview
     pagecolor="#ffffff"
     bordercolor="#666666"
     borderopacity="1"
     objecttolerance="10"
     gridtolerance="10"
     guidetolerance="10"
     inkscape:pageopacity="0"
     inkscape:pageshadow="2"
     inkscape:window-width="640"
     inkscape:window-height="480"
     id="namedview56"
     showgrid="false"
     fit-margin-top="0"
     fit-margin-left="0"
     fit-margin-right="0"
     fit-margin-bottom="0"
     inkscape:zoom="0.22424933"
     inkscape:cx="267.11925"
     inkscape:cy="-298.62002"
     inkscape:window-x="0"
     inkscape:window-y="27"
     inkscape:window-maximized="0"
     inkscape:current-layer="svg2" />
  <defs
     id="defs4">
    <linearGradient
       id="b"
       y2="124.52"
       gradientUnits="userSpaceOnUse"
       x2="219.96001"
       y1="238.03"
       x1="268.63">
      <stop
         stop-color="#fff"
         offset="0"
         id="stop7" />
      <stop
         stop-color="#fff"
         stop-opacity=".99225"
         offset="1"
         id="stop9" />
    </linearGradient>
  </defs>
  <metadata
     id="metadata11">
    <rdf:RDF>
      <cc:Work
         rdf:about="">
        <dc:format>image/svg+xml</dc:format>
        <dc:type
           rdf:resource="http://purl.org/dc/dcmitype/StillImage" />
        <dc:title />
      </cc:Work>
    </rdf:RDF>
  </metadata>
  <g
     transform="matrix(0.9909,0,0,0.9909,-43.472767,-66.646075)"
     id="g13">
    <g
       transform="translate(-45.651,-764.76)"
       id="g15">
      <g
         transform="matrix(0.70605,0,0,0.70605,63.018,229.25)"
         id="g17">
        <rect
           style="opacity:0.93720003;color:#000000;fill:#ffffff;fill-rule:evenodd;stroke:#000000;stroke-width:0.70817"
           height="22.160999"
           width="20.341999"
           y="854.07001"
           x="38.700001"
           id="rect19" />
        <path
           style="opacity:0.93720003;color:#000000;fill:#b1b1b1;fill-rule:evenodd;stroke:#000000;stroke-width:0.16711999;stroke-linecap:round;stroke-linejoin:round"
           d="M 48.871,858.78 H 38.749 v -4.6868 h 10.122 m 0,4.6868 h 10.122 v -4.6868 H 48.871 l -0.03471,4.694"
           id="path21"
           inkscape:connector-curvature="0" />
        <path
           style="opacity:0.93720003;color:#000000;fill:none;stroke:#000000;stroke-width:0.35407999;stroke-linecap:round;stroke-linejoin:round"
           d="M 48.871,863.64 H 38.749 v -4.6868 h 10.122 m 0,4.6868 h 10.122 v -4.6868 H 48.871 l -0.03471,4.694"
           id="path23"
           inkscape:connector-curvature="0" />
        <path
           style="opacity:0.93720003;color:#000000;fill:none;stroke:#000000;stroke-width:0.35407999;stroke-linecap:round;stroke-linejoin:round"
           d="M 48.871,868.5 H 38.749 v -4.6868 h 10.122 m 0,4.6868 h 10.122 v -4.6868 H 48.871 l -0.03471,4.694"
           id="path25"
           inkscape:connector-curvature="0" />
        <path
           style="opacity:0.93720003;color:#000000;fill:none;stroke:#000000;stroke-width:0.35407999;stroke-linecap:round;stroke-linejoin:round"
           d="M 48.871,873.36 H 38.749 v -4.6868 h 10.122 m 0,4.6868 h 10.122 v -4.6868 H 48.871 l -0.03471,4.694"
           id="path27"
           inkscape:connector-curvature="0" />
        <path
           style="opacity:0.93720003;color:#000000;fill:#cccccc;stroke:#000000;stroke-width:0.044161;stroke-linecap:round;stroke-linejoin:round"
           d="m 39.023,874.74 v -1.2365 h 9.8478 9.8478 v 1.2365 1.2365 H 48.8708 39.023 V 874.74 z"
           id="path29"
           inkscape:connector-curvature="0" />
        <text
           xml:space="preserve"
           font-size="2.0835px"
           font-style="italic"
           y="861.82092"
           x="40.057484"
           id="text31"
           style="font-size:2.08349991px;font-style:italic;fill:#0000ff"><tspan
             y="861.82092"
             x="40.057484"
             id="tspan33">Predrag</tspan></text>
        <text
           xml:space="preserve"
           font-size="2.0835px"
           font-style="italic"
           y="866.51904"
           x="40.350864"
           id="text35"
           style="font-size:2.08349991px;font-style:italic;fill:#ff0000"><tspan
             y="866.51904"
             x="40.350864"
             id="tspan37">Romina</tspan></text>
        <text
           xml:space="preserve"
           font-size="2.0835px"
           font-style="italic"
           y="866.53125"
           x="51.055748"
           id="text39"
           style="font-size:2.08349991px;font-style:italic;fill:#008000"><tspan
             y="866.53125"
             x="51.055748"
             id="tspan41">Sara</tspan></text>
        <text
           xml:space="preserve"
           font-size="2.0835px"
           font-style="italic"
           y="862.04016"
           x="51.055748"
           id="text43"
           style="font-size:2.08349991px;font-style:italic;fill:#ff6600"><tspan
             y="862.04016"
             x="51.055748"
             id="tspan45">Stela</tspan></text>
      </g>
      <rect
         style="color:#000000;fill:none"
         height="16"
         width="16"
         y="832.09003"
         x="89.523003"
         id="rect47" />
    </g>
    <g
       transform="matrix(1.2007,0,0,1.2007,-9.4542,-14.007)"
       id="g49"
       style="fill-rule:evenodd">
      <circle
         cy="219.91"
         transform="matrix(0.082981,0,0,0.080136,28.09,54.515)"
         cx="257.44"
         r="51.206001"
         id="circle51"
         d="m 308.646,219.91 c 0,28.2803 -22.9257,51.206 -51.206,51.206 -28.28029,0 -51.206,-22.9257 -51.206,-51.206 0,-28.28029 22.92571,-51.206 51.206,-51.206 28.2803,0 51.206,22.92571 51.206,51.206 z"
         sodipodi:cx="257.44"
         sodipodi:cy="219.91"
         sodipodi:rx="51.206001"
         sodipodi:ry="51.206001"
         style="fill:url(#b)" />
      <path
         style="color:#000000;fill:#0000ff;stroke:#000000;stroke-width:0.038849"
         d="m 49.021,69.232 a 0.32535,0.32535 0 0 0 -0.32617,0.32617 v 1.8223 h -1.8223 a 0.32535,0.32535 0 0 0 -0.32617,0.32617 v 0.86133 a 0.32535,0.32535 0 0 0 0.32617,0.32617 h 1.8223 v 1.8223 a 0.32535,0.32535 0 0 0 0.32617,0.32617 h 0.86328 a 0.32535,0.32535 0 0 0 0.32617,-0.32617 v -1.8223 h 1.8223 a 0.32535,0.32535 0 0 0 0.32617,-0.32617 v -0.86133 a 0.32535,0.32535 0 0 0 -0.32617,-0.32617 h -1.8223 v -1.8223 A 0.32535,0.32535 0 0 0 49.88428,69.232 H 49.021 z"
         xlink:href="#a"
         transform="translate(-2.3472e-4,2.2134e-5)"
         id="path53"
         inkscape:connector-curvature="0" />
      <path
         id="a"
         style="color:#000000;fill:#0000ff;fill-rule:evenodd;stroke:#000000;stroke-width:0.038849"
         d="m 49.022,69.558 v 2.1488 h -2.1488 v 0.86196 h 2.1488 v 2.1488 h 0.86196 v -2.1488 h 2.1488 V 71.7068 h -2.1488 V 69.558 H 49.022 z"
         inkscape:connector-curvature="0" />
    </g>
  </g>
</svg>
