<?xml version="1.0" encoding="UTF-8" standalone="no"?>
<svg
   xmlns:dc="http://purl.org/dc/elements/1.1/"
   xmlns:cc="http://creativecommons.org/ns#"
   xmlns:rdf="http://www.w3.org/1999/02/22-rdf-syntax-ns#"
   xmlns:svg="http://www.w3.org/2000/svg"
   xmlns="http://www.w3.org/2000/svg"
   xmlns:xlink="http://www.w3.org/1999/xlink"
   xmlns:sodipodi="http://sodipodi.sourceforge.net/DTD/sodipodi-0.dtd"
   xmlns:inkscape="http://www.inkscape.org/namespaces/inkscape"
   height="16.361799"
   width="15.999285"
   version="1.1"
   id="svg2"
   inkscape:version="0.48.5 r10040"
   sodipodi:docname="EditNoteInDialogAction.icon.svg">
  <sodipodi:namedview
     pagecolor="#ffffff"
     bordercolor="#666666"
     borderopacity="1"
     objecttolerance="10"
     gridtolerance="10"
     guidetolerance="10"
     inkscape:pageopacity="0"
     inkscape:pageshadow="2"
     inkscape:window-width="640"
     inkscape:window-height="480"
     id="namedview117"
     showgrid="false"
     fit-margin-top="0"
     fit-margin-left="0"
     fit-margin-right="0"
     fit-margin-bottom="0"
     inkscape:zoom="0.22424933"
     inkscape:cx="310.43516"
     inkscape:cy="-275.4505"
     inkscape:window-x="0"
     inkscape:window-y="27"
     inkscape:window-maximized="0"
     inkscape:current-layer="svg2" />
  <defs
     id="defs4">
    <radialGradient
       id="f"
       xlink:href="#a"
       gradientUnits="userSpaceOnUse"
       cy="718.77002"
       cx="160.44"
       gradientTransform="matrix(0.19981,0.1787,-0.15894,0.16574,241.58,572.22)"
       r="6.9383001" />
    <linearGradient
       id="a">
      <stop
         stop-color="#fff"
         offset="0"
         id="stop8" />
      <stop
         stop-color="#b9150a"
         offset="1"
         id="stop10" />
    </linearGradient>
    <radialGradient
       id="b"
       xlink:href="#a"
       gradientUnits="userSpaceOnUse"
       cy="718.77002"
       cx="160.44"
       gradientTransform="matrix(0.19981,0.17871,-0.14353,0.14931,230.51,584.03)"
       r="6.9383001" />
    <radialGradient
       id="e"
       xlink:href="#a"
       gradientUnits="userSpaceOnUse"
       cy="718.77002"
       cx="160.44"
       gradientTransform="matrix(0.1998,0.17871,-0.1504,0.15662,235.45,578.78)"
       r="6.9383001" />
    <filter
       id="j"
       color-interpolation-filters="sRGB">
      <feGaussianBlur
         stdDeviation="0.61377733"
         id="feGaussianBlur15" />
    </filter>
    <linearGradient
       id="d"
       y2="29.408001"
       xlink:href="#c"
       gradientUnits="userSpaceOnUse"
       x2="32.888"
       y1="22.379999"
       x1="35.687" />
    <linearGradient
       id="c">
      <stop
         stop-color="#fffffd"
         stop-opacity="0"
         offset="0"
         id="stop19" />
      <stop
         stop-color="#fffab3"
         stop-opacity=".84375"
         offset=".31646"
         id="stop21" />
      <stop
         stop-color="#fffbfb"
         stop-opacity="0"
         offset="1"
         id="stop23" />
    </linearGradient>
    <linearGradient
       id="i"
       y2="43.595001"
       gradientUnits="userSpaceOnUse"
       x2="48.452"
       gradientTransform="translate(-0.75,6.25)"
       y1="52.404999"
       x1="43.549">
      <stop
         stop-color="#2b2b2b"
         stop-opacity=".67188"
         offset="0"
         id="stop26" />
      <stop
         stop-opacity=".58594"
         offset=".28481"
         id="stop28" />
      <stop
         stop-color="#333"
         stop-opacity="0"
         offset="1"
         id="stop30" />
    </linearGradient>
    <linearGradient
       id="h"
       y2="43.970001"
       xlink:href="#c"
       gradientUnits="userSpaceOnUse"
       x2="46.986"
       gradientTransform="translate(-0.75,6.25)"
       y1="39.783001"
       x1="53.164001" />
    <linearGradient
       id="g"
       y2="8.8007002"
       gradientUnits="userSpaceOnUse"
       x2="14.143"
       y1="14.623"
       x1="14.069">
      <stop
         stop-opacity=".52344"
         offset="0"
         id="stop34" />
      <stop
         stop-color="#fff"
         stop-opacity=".78039"
         offset="1"
         id="stop36" />
    </linearGradient>
    <filter
       id="k"
       height="1.4931"
       width="1.8415999"
       y="-0.24656001"
       x="-0.42078999"
       color-interpolation-filters="sRGB">
      <feGaussianBlur
         stdDeviation="0.56224844"
         id="feGaussianBlur39" />
    </filter>
    <radialGradient
       inkscape:collect="always"
       xlink:href="#a"
       id="radialGradient3094"
       gradientUnits="userSpaceOnUse"
       gradientTransform="matrix(0.19981,0.17871,-0.14353,0.14931,230.51,584.03)"
       cx="160.44"
       cy="718.77002"
       r="6.9383001" />
    <linearGradient
       inkscape:collect="always"
       xlink:href="#c"
       id="linearGradient3096"
       gradientUnits="userSpaceOnUse"
       x1="35.687"
       y1="22.379999"
       x2="32.888"
       y2="29.408001" />
  </defs>
  <metadata
     id="metadata41">
    <rdf:RDF>
      <cc:Work
         rdf:about="">
        <dc:format>image/svg+xml</dc:format>
        <dc:type
           rdf:resource="http://purl.org/dc/dcmitype/StillImage" />
        <dc:title />
      </cc:Work>
    </rdf:RDF>
  </metadata>
  <g
     transform="matrix(1.014,0,0,1.014,510.30015,-697.78772)"
     id="g43">
    <g
       transform="matrix(0.45725,0.044646,0,0.42579,-263.86,413.93)"
       id="g45">
      <rect
         transform="matrix(0.92114,-0.38924,0,1,0,0)"
         height="29.416"
         width="24.606001"
         y="485.67999"
         x="-567.88"
         id="rect47"
         style="fill:#ffff00;stroke:#d40000" />
      <g
         id="g49">
        <circle
           cx="160.78999"
           transform="matrix(0.64502,-0.27257,0,0.67601,-623.02,266.93)"
           cy="721.26001"
           r="2.9619999"
           id="circle51"
           d="m 163.75199,721.26001 c 0,1.63587 -1.32613,2.962 -2.962,2.962 -1.63586,0 -2.962,-1.32613 -2.962,-2.962 0,-1.63587 1.32614,-2.962 2.962,-2.962 1.63587,0 2.962,1.32613 2.962,2.962 z"
           sodipodi:cx="160.78999"
           sodipodi:cy="721.26001"
           sodipodi:rx="2.9619999"
           sodipodi:ry="2.9619999"
           style="fill:url(#f)" />
        <rect
           ry="0.18629"
           rx="0.12231"
           transform="matrix(0.92114,-0.38924,0,1,0,0)"
           height="2.0193999"
           width="13.971"
           y="490.23001"
           x="-560.15997"
           id="rect53" />
        <circle
           cx="160.78999"
           transform="matrix(0.64502,-0.27257,0,0.67601,-623.02,278.47)"
           cy="721.26001"
           r="2.9619999"
           id="circle55"
           d="m 163.75199,721.26001 c 0,1.63587 -1.32613,2.962 -2.962,2.962 -1.63586,0 -2.962,-1.32613 -2.962,-2.962 0,-1.63587 1.32614,-2.962 2.962,-2.962 1.63587,0 2.962,1.32613 2.962,2.962 z"
           sodipodi:cx="160.78999"
           sodipodi:cy="721.26001"
           sodipodi:rx="2.9619999"
           sodipodi:ry="2.9619999"
           style="fill:url(#radialGradient3094)" />
        <rect
           ry="0.18629"
           rx="0.12231"
           transform="matrix(0.92114,-0.38924,0,1,0,0)"
           height="2.0193999"
           width="13.971"
           y="501.76999"
           x="-560.15997"
           id="rect57" />
        <circle
           cx="160.78999"
           transform="matrix(0.64502,-0.27257,0,0.67601,-623.02,272.7)"
           cy="721.26001"
           r="2.9619999"
           id="circle59"
           d="m 163.75199,721.26001 c 0,1.63587 -1.32613,2.962 -2.962,2.962 -1.63586,0 -2.962,-1.32613 -2.962,-2.962 0,-1.63587 1.32614,-2.962 2.962,-2.962 1.63587,0 2.962,1.32613 2.962,2.962 z"
           sodipodi:cx="160.78999"
           sodipodi:cy="721.26001"
           sodipodi:rx="2.9619999"
           sodipodi:ry="2.9619999"
           style="fill:url(#e)" />
        <g
           transform="matrix(1,-0.42257,0,1,-640.34,117.66)"
           id="g61">
          <rect
             rx="0.11266"
             ry="0.18629"
             height="2.0193999"
             width="12.869"
             y="648.92999"
             x="124.36"
             id="rect63" />
        </g>
        <circle
           cx="160.78999"
           transform="matrix(0.64502,-0.27257,0,0.67601,-623.02,284.24)"
           cy="721.26001"
           r="2.9619999"
           id="circle65"
           d="m 163.75199,721.26001 c 0,1.63587 -1.32613,2.962 -2.962,2.962 -1.63586,0 -2.962,-1.32613 -2.962,-2.962 0,-1.63587 1.32614,-2.962 2.962,-2.962 1.63587,0 2.962,1.32613 2.962,2.962 z"
           sodipodi:cx="160.78999"
           sodipodi:cy="721.26001"
           sodipodi:rx="2.9619999"
           sodipodi:ry="2.9619999"
           style="fill:url(#b)" />
        <rect
           ry="0.18629"
           rx="0.12231"
           transform="matrix(0.92114,-0.38924,0,1,0,0)"
           height="2.0193999"
           width="13.971"
           y="507.54001"
           x="-560.15997"
           id="rect67" />
      </g>
    </g>
    <g
       transform="matrix(0.42479,0.029187,-0.029187,0.42479,-272.81,414.06)"
       id="g69">
      <g
         transform="matrix(-0.4466,0,0,0.4466,-455.25,672.13)"
         id="g71">
        <path
           d="m 11.077,24.893 -3.3765,3.3765 24.851,24.851 2.1609,2.1609 0.10129,0.03376 2.1947,0.50647 2.4986,-2.4986 -28.43,-28.43 z"
           id="path73"
           inkscape:connector-curvature="0"
           style="fill:#ff3434;fill-opacity:0.80327998;fill-rule:evenodd" />
        <path
           d="m 20.031,16.562 c -0.011,0.01 -0.022,0.02 -0.031,0.032 -0.0104,-9.1e-4 -0.02085,-9.1e-4 -0.03125,0 -0.01167,0.0091 -0.02216,0.01958 -0.03125,0.03125 l -3.876,3.875 26.376,26.375 3.874,-3.875 c 0.01167,-0.0091 0.02216,-0.01958 0.03125,-0.03125 9.09e-4,-0.0104 9.1e-4,-0.02085 0,-0.03125 0.01442,-0.01858 0.02504,-0.03982 0.03125,-0.0625 9.09e-4,-0.0104 9.1e-4,-0.02085 0,-0.03125 -0.0091,-0.01167 -0.01958,-0.02216 -0.03125,-0.03125 9.09e-4,-0.0104 9.1e-4,-0.02085 0,-0.03125 -0.008,-0.011 -0.019,-0.022 -0.031,-0.031 l -26.124,-26.125 c -0.0091,-0.01167 -0.01958,-0.02216 -0.03125,-0.03125 -0.0104,-9.1e-4 -0.02085,-9.1e-4 -0.03125,0 -0.01858,-0.01442 -0.03982,-0.02504 -0.0625,-0.03125 -0.0104,-9.1e-4 -0.02085,-9.1e-4 -0.03125,0 z m -3.25,4.2812 c 0.31548,-0.06492 1.0232,0.13566 1.9375,0.625 0.91431,0.48934 2.0419,1.2394 3.3438,2.2188 2.6038,1.9587 5.8531,4.7906 9.1875,8.125 3.5567,3.5567 6.5659,7 8.5312,9.6875 0.98268,1.3438 1.6882,2.5016 2.0938,3.375 0.20275,0.4367 0.33688,0.82084 0.375,1.0938 0.02796,0.20013 0.0119,0.31447 -0.03125,0.40625 l -25.5,-25.5 c 0.02612,-0.0088 0.02808,-0.02417 0.0625,-0.03125 z"
           transform="translate(-7.3614,7.7812)"
           id="path75"
           inkscape:connector-curvature="0"
           style="opacity:0.98000004;fill:#ed0000;fill-rule:evenodd;filter:url(#j)" />
        <path
           d="m 26.781,6.25 c -2.1767,-0.12554 -5.3918,1.4855 -8.1875,4.2812 -3.7276,3.7276 -5.3019,8.1981 -3.5312,9.9688 0.41629,0.41629 0.98692,0.6267 1.6562,0.6875 l -0.343,-0.344 c 0.01319,-0.01781 0.01566,-0.04691 0.03125,-0.0625 0.06872,-0.06872 0.17023,-0.10215 0.28125,-0.125 0.3463,-0.07127 0.91745,0.06928 1.625,0.40625 2.0167,-0.44579 4.5001,-1.9064 6.7188,-4.125 3.728,-3.728 5.302,-8.1986 3.531,-9.9692 -0.442,-0.4427 -1.055,-0.677 -1.781,-0.7188 z"
           transform="translate(-7.3614,7.7812)"
           id="path77"
           inkscape:connector-curvature="0"
           style="fill:#860000;fill-rule:evenodd" />
        <g
           transform="matrix(1.0805,1.0805,-1.0805,1.0805,36.873,-11.707)"
           id="g79"
           style="fill:#ed0000;fill-rule:evenodd">
          <path
             d="m 28.562,6.9688 -13.5,13.531 27,27 13.532,-13.5 -27.032,-27.031 z m -11.875,13.688 c 1.6653,-0.3427 7.9461,4.3524 14.625,11.031 7.1241,7.1241 12.006,13.807 10.906,14.906 -0.01559,0.01559 -0.04469,0.01806 -0.0625,0.03125 l -25.78,-25.781 c 0.01319,-0.01781 0.01566,-0.04691 0.03125,-0.0625 0.06872,-0.06872 0.17023,-0.10215 0.28125,-0.125 z"
             transform="matrix(0.46276,-0.46276,0.46276,0.46276,-11.451,29.489)"
             id="path81"
             inkscape:connector-curvature="0" />
          <path
             d="M 52.875,31.312 41.031,43.156 c 1.1274,1.7746 1.6093,3.0157 1.1875,3.4375 -0.01559,0.01559 -0.04469,0.01806 -0.0625,0.03125 l -2.2812,-2.3125 -0.5,0.5 2.7188,2.6875 8.75,2.0312 6.7812,-6.75 -2.031,-8.781 -2.719,-2.688 z"
             transform="matrix(0.46276,-0.46276,0.46276,0.46276,-11.451,29.489)"
             id="path83"
             inkscape:connector-curvature="0" />
        </g>
        <g
           transform="matrix(1.0805,1.0805,-1.0389,1.0389,35.543,-10.378)"
           id="g85"
           style="fill:#860000">
          <path
             d="M 13.728,10.978 V 3.5328 l 5.3994,3.1173 c 0.43545,0.25651 0.47055,0.91841 0.04141,1.1866 l -5.44,3.1413 z"
             transform="matrix(0.61897,0,0,0.69686,27.512,20.444)"
             id="path87"
             inkscape:connector-curvature="0"
             style="fill:#860000;fill-rule:evenodd" />
        </g>
        <path
           d="m 21.206,14.764 -3.3765,3.3765 28.16,28.16 2.6674,-2.6674 -0.43894,-1.857 -2.2622,-2.2622 -24.749,-24.749 z"
           id="path89"
           inkscape:connector-curvature="0"
           style="fill:#ffffff;fill-opacity:0.52458999;fill-rule:evenodd" />
        <path
           d="m 11.062,24.906 -3.375,3.375 24.875,24.844 2.1562,2.1562 0.09375,0.03125 2.1875,0.5 2.5,-2.5 -28.438,-28.406 z"
           id="path91"
           inkscape:connector-curvature="0"
           style="fill-opacity:0.41569004;fill-rule:evenodd" />
        <path
           d="m 48.218,41.776 c 0.1303,1.3034 -0.95477,2.8686 -3.4777,3.2752 -1.0677,4.2832 -3.2545,6.2819 -6.7191,6.7867 -0.67928,2.9521 -1.4937,3.5518 -3.2752,3.4778 l 11.311,2.5999 c 0.12148,-0.72099 1.1594,-1.8865 2.0218,-2.7489 0.8624,-0.8624 2.1354,-1.9122 2.7728,-2.0457 l -2.634,-11.345 z"
           id="path93"
           inkscape:connector-curvature="0"
           style="fill:#ffdd55;fill-rule:evenodd" />
      </g>
      <g
         transform="matrix(-0.4466,0,0,0.4466,-455.25,672.13)"
         id="g95">
        <g
           transform="matrix(1.0805,1.0805,-1.0389,1.0389,35.543,-10.378)"
           id="g97"
           style="fill:url(#d)">
          <path
             d="M 13.728,10.978 V 3.5328 l 5.3994,3.1173 c 0.43545,0.25651 0.47055,0.91841 0.04141,1.1866 l -5.44,3.1413 z"
             transform="matrix(0.61897,0,0,0.69686,27.512,20.444)"
             id="path99"
             inkscape:connector-curvature="0"
             style="fill:url(#linearGradient3096);fill-rule:evenodd" />
        </g>
        <path
           d="m 48.218,41.776 c 0.1303,1.3034 -0.95477,2.8686 -3.4777,3.2752 -1.0677,4.2832 -3.2545,6.2819 -6.7191,6.7867 -0.67928,2.9521 -1.4937,3.5518 -3.2752,3.4778 l 11.311,2.5999 c 0.12148,-0.72099 1.1594,-1.8865 2.0218,-2.7489 0.8624,-0.8624 2.1354,-1.9122 2.7728,-2.0457 l -2.634,-11.345 z"
           id="path101"
           inkscape:connector-curvature="0"
           style="fill:url(#i);fill-rule:evenodd" />
        <path
           d="m 48.218,41.776 c 0.1303,1.3034 -0.95477,2.8686 -3.4777,3.2752 -1.0677,4.2832 -3.2545,6.2819 -6.7191,6.7867 -0.67928,2.9521 -1.4937,3.5518 -3.2752,3.4778 l 11.311,2.5999 c 0.12148,-0.72099 1.1594,-1.8865 2.0218,-2.7489 0.8624,-0.8624 2.1354,-1.9122 2.7728,-2.0457 l -2.634,-11.345 z"
           id="path103"
           inkscape:connector-curvature="0"
           style="opacity:0.75708995;fill:url(#h);fill-rule:evenodd" />
        <path
           d="m 14.71,14.575 c -1.848,0 -3.3461,-1.3285 -3.3461,-2.9673 0,-1.6388 1.4981,-2.9673 3.3461,-2.9673 v 2.9673 2.9673 z"
           transform="matrix(0.95861,0.95861,-2.2758,2.2758,26.768,-19)"
           id="path105"
           inkscape:connector-curvature="0"
           style="fill:url(#g);fill-rule:evenodd" />
        <path
           d="m 50.573,53.21 c 0.08255,0.0163 0.65806,2.6441 0.65806,2.6441 0.76266,2.8865 0.91389,2.9662 0.17278,2.7427 -0.723,-0.35663 -1.71,-1.5192 -2.1711,-2.1768 -0.44044,-0.67086 -1.0193,-1.7389 0.08043,-2.5723 0.38412,-0.35825 0.92033,-0.70483 1.2598,-0.63777 z"
           id="path107"
           inkscape:connector-curvature="0"
           style="fill:#ffffff;fill-opacity:0.29918003;fill-rule:evenodd;filter:url(#k)" />
        <path
           d="m 19.438,14.031 c -2.8856,0.006 -5.4077,1.8076 -7.5,3.625 1.3408,-0.52693 2.6436,-1.1997 4.1174,-0.92456 1.4089,0.26309 1.033,0.97828 1.7811,1.3779 0.81,-0.81 2.572,-2.549 3.383,-3.359 -0.466,-0.472 -1.132,-0.685 -1.781,-0.719 z"
           id="path109"
           inkscape:connector-curvature="0"
           style="fill:#ffffff;fill-opacity:0.18442999;fill-rule:evenodd" />
      </g>
      <g
         transform="matrix(-0.4466,0,0,0.4466,-451.96,675.6)"
         id="g111"
         style="fill-rule:evenodd">
        <path
           d="M 25.206,10.353 52.114,37.261"
           id="path113"
           inkscape:connector-curvature="0"
           style="fill:#b9b9b9;stroke:#f24e4e;stroke-width:0.30037001" />
        <path
           d="M 18.442,17.107 45.383,44.048"
           id="path115"
           inkscape:connector-curvature="0"
           style="fill:#ffffff;stroke:#b80000;stroke-width:0.30072999" />
      </g>
    </g>
  </g>
</svg>
