<?xml version="1.0" encoding="UTF-8" standalone="no"?>
<svg
   xmlns:dc="http://purl.org/dc/elements/1.1/"
   xmlns:cc="http://creativecommons.org/ns#"
   xmlns:rdf="http://www.w3.org/1999/02/22-rdf-syntax-ns#"
   xmlns:svg="http://www.w3.org/2000/svg"
   xmlns="http://www.w3.org/2000/svg"
   xmlns:sodipodi="http://sodipodi.sourceforge.net/DTD/sodipodi-0.dtd"
   xmlns:inkscape="http://www.inkscape.org/namespaces/inkscape"
   height="16.11627"
   width="16"
   version="1.1"
   id="svg2"
   inkscape:version="0.48.5 r10040"
   sodipodi:docname="editcut.svg">
  <sodipodi:namedview
     pagecolor="#ffffff"
     bordercolor="#666666"
     borderopacity="1"
     objecttolerance="10"
     gridtolerance="10"
     guidetolerance="10"
     inkscape:pageopacity="0"
     inkscape:pageshadow="2"
     inkscape:window-width="640"
     inkscape:window-height="480"
     id="namedview44"
     showgrid="false"
     fit-margin-top="0"
     fit-margin-left="0"
     fit-margin-right="0"
     fit-margin-bottom="0"
     inkscape:zoom="0.22424933"
     inkscape:cx="334.09501"
     inkscape:cy="-142.05879"
     inkscape:window-x="0"
     inkscape:window-y="27"
     inkscape:window-maximized="0"
     inkscape:current-layer="svg2" />
  <defs
     id="defs4">
    <linearGradient
       id="a"
       y2="1202.6"
       gradientUnits="userSpaceOnUse"
       x2="-281.66"
       gradientTransform="matrix(0.035434,-0.054547,0.054547,0.035434,-167.48,808.31)"
       y1="1242.5"
       x1="-227.36">
      <stop
         stop-color="#000080"
         offset="0"
         id="stop7" />
      <stop
         stop-color="#00f"
         offset="1"
         id="stop9" />
    </linearGradient>
    <linearGradient
       id="b"
       y2="1091.7"
       gradientUnits="userSpaceOnUse"
       x2="-562.53003"
       y1="1086.7"
       x1="-568.70001">
      <stop
         stop-color="#808080"
         offset="0"
         id="stop12" />
      <stop
         stop-color="#ccc"
         stop-opacity="0"
         offset="1"
         id="stop14" />
    </linearGradient>
    <filter
       id="c"
       color-interpolation-filters="sRGB">
      <feGaussianBlur
         stdDeviation="0.31601763"
         id="feGaussianBlur17" />
    </filter>
    <filter
       id="d"
       color-interpolation-filters="sRGB">
      <feGaussianBlur
         stdDeviation="0.31601763"
         id="feGaussianBlur20" />
    </filter>
  </defs>
  <metadata
     id="metadata22">
    <rdf:RDF>
      <cc:Work
         rdf:about="">
        <dc:format>image/svg+xml</dc:format>
        <dc:type
           rdf:resource="http://purl.org/dc/dcmitype/StillImage" />
        <dc:title />
      </cc:Work>
    </rdf:RDF>
  </metadata>
  <g
     transform="translate(329.42999,-833.84495)"
     id="g24">
    <g
       transform="matrix(0.98857,0,0,0.98857,-213.85,-8.7874)"
       id="g26"
       style="stroke-linecap:round">
      <path
         style="color:#000000;fill:url(#a);stroke:#000000;stroke-width:0.25"
         d="m -109.4,861.56 c -0.14215,0.22802 -0.25938,0.46783 -0.29941,0.7072 -0.10201,0.51596 0.24496,0.72082 0.0583,1.2983 -0.0812,0.27147 -1.0458,0.27617 -1.4895,1.0467 -0.9524,2.1289 0.98516,3.5185 1.2519,3.6662 0.90743,0.50365 1.6031,0.36431 1.9699,-0.76372 0.26639,-1.6399 -1.4267,-4.5105 -0.46053,-5.6754 l -0.57639,-0.91496 c -0.14414,0.19212 -0.31206,0.40771 -0.45419,0.63574 z m -1.0075,3.648 c 0.0885,-0.14332 0.20874,-0.25044 0.35721,-0.30364 0.47515,-0.17022 1.0533,0.2726 1.2927,0.98763 0.23946,0.71503 0.0499,1.4321 -0.42521,1.6023 -0.47514,0.17023 -1.0544,-0.27088 -1.2938,-0.98591 -0.16464,-0.49158 -0.12567,-0.98507 0.0691,-1.3004 z"
         id="path28"
         inkscape:connector-curvature="0" />
      <path
         style="color:#000000;fill:#000080;stroke:#000000;stroke-width:0.25"
         d="m -108.16,860.77 c 0.26664,-0.0332 0.53351,-0.0389 0.76755,0.0254 0.51108,0.12418 0.55124,0.5251 1.1537,0.59831 0.28045,0.0404 0.68995,-0.83304 1.5756,-0.91202 2.332,0.03 2.7791,2.3721 2.8011,2.6762 0.0759,1.035 -0.34283,1.6078 -1.5206,1.4668 -1.6001,-0.44715 -3.4939,-3.1895 -4.9569,-2.8021 l -0.58818,-0.90742 c 0.23489,-0.0501 0.50108,-0.11192 0.76772,-0.1451 z m 3.7337,0.61817 c -0.16725,0.0201 -0.31496,0.0842 -0.4256,0.19661 -0.35407,0.35968 -0.19509,1.0703 0.35319,1.588 0.54829,0.51769 1.2786,0.64692 1.6327,0.28725 0.35407,-0.35967 0.19709,-1.0706 -0.35119,-1.5883 -0.37694,-0.35591 -0.84115,-0.52785 -1.2091,-0.48357 z"
         id="path30"
         inkscape:connector-curvature="0" />
      <path
         style="color:#000000;fill:#ffffff;stroke:#000000;stroke-width:0.25"
         d="m -109.72,861.68 -0.64885,-9.0584 c 0.34186,0.2061 0.69157,0.39593 0.84758,0.98688 0.61749,2.387 0.88922,4.7126 1.3102,7.0647 0.0419,0.66301 -0.0722,1.0002 -0.38864,1.1956 -0.31643,0.19551 -0.47109,0.23143 -1.1203,-0.18882 z"
         id="path32"
         inkscape:connector-curvature="0" />
      <path
         style="color:#000000;fill:#ffffff;stroke:#000000;stroke-width:0.25"
         d="m -108.19,860.95 -7.6046,-4.9644 c 0.0142,0.39893 0.0105,0.79682 0.45137,1.2201 1.7872,1.6986 3.6885,3.065 5.5406,4.5749 0.5593,0.35848 0.90946,0.42236 1.234,0.24061 0.32452,-0.18175 0.43101,-0.29954 0.37871,-1.0711 z"
         id="path34"
         inkscape:connector-curvature="0" />
      <circle
         style="opacity:0.93720003;color:#000000;fill:url(#b);fill-rule:evenodd;stroke:#000000;stroke-width:1.53740001;stroke-linejoin:round"
         cx="-564.45001"
         transform="matrix(0.035434,-0.054547,0.054547,0.035434,-148.53,791.79)"
         cy="1089.5"
         r="7.2325001"
         id="circle36"
         d="m -557.21751,1089.5 c 0,3.9944 -3.2381,7.2325 -7.2325,7.2325 -3.9944,0 -7.2325,-3.2381 -7.2325,-7.2325 0,-3.9944 3.2381,-7.2325 7.2325,-7.2325 3.9944,0 7.2325,3.2381 7.2325,7.2325 z"
         sodipodi:cx="-564.45001"
         sodipodi:cy="1089.5"
         sodipodi:rx="7.2325001"
         sodipodi:ry="7.2325001" />
      <path
         style="opacity:0.88332998;color:#000000;fill:#4d4d4d;stroke:#cccccc;stroke-width:7.68690014;stroke-linejoin:round;filter:url(#c)"
         d="m -183.17,1068.9 -0.77108,114.51"
         transform="matrix(0.033771,-0.051987,0.051987,0.033771,-165.01,810.71)"
         id="path38"
         inkscape:connector-curvature="0" />
      <path
         d="m -93.301,1109.4 -87.518,66.699"
         transform="matrix(0.034295,-0.052793,0.053101,0.034495,-165.87,809.77)"
         id="path40"
         inkscape:connector-curvature="0"
         style="opacity:0.88332998;fill:#4d4d4d;stroke:#cccccc;stroke-width:7.91919994;stroke-linejoin:round;filter:url(#d)" />
    </g>
    <rect
       style="color:#000000;fill:none"
       height="16"
       width="16"
       y="833.96002"
       x="-329.42999"
       id="rect42" />
  </g>
</svg>
