<?xml version="1.0" encoding="UTF-8" standalone="no"?>
<svg
   xmlns:dc="http://purl.org/dc/elements/1.1/"
   xmlns:cc="http://creativecommons.org/ns#"
   xmlns:rdf="http://www.w3.org/1999/02/22-rdf-syntax-ns#"
   xmlns:svg="http://www.w3.org/2000/svg"
   xmlns="http://www.w3.org/2000/svg"
   xmlns:sodipodi="http://sodipodi.sourceforge.net/DTD/sodipodi-0.dtd"
   xmlns:inkscape="http://www.inkscape.org/namespaces/inkscape"
   height="16.236723"
   width="16"
   version="1.1"
   id="svg2"
   inkscape:version="0.48.5 r10040"
   sodipodi:docname="idea.svg">
  <sodipodi:namedview
     pagecolor="#ffffff"
     bordercolor="#666666"
     borderopacity="1"
     objecttolerance="10"
     gridtolerance="10"
     guidetolerance="10"
     inkscape:pageopacity="0"
     inkscape:pageshadow="2"
     inkscape:window-width="640"
     inkscape:window-height="480"
     id="namedview49"
     showgrid="false"
     fit-margin-top="0"
     fit-margin-left="0"
     fit-margin-right="0"
     fit-margin-bottom="0"
     inkscape:zoom="0.22424933"
     inkscape:cx="317.635"
     inkscape:cy="-488.50972"
     inkscape:window-x="0"
     inkscape:window-y="27"
     inkscape:window-maximized="0"
     inkscape:current-layer="svg2" />
  <defs
     id="defs4">
    <filter
       id="e"
       height="1.2261"
       width="1.2447"
       y="-0.11307"
       x="-0.12234"
       color-interpolation-filters="sRGB">
      <feGaussianBlur
         stdDeviation="0.60443961"
         id="feGaussianBlur7" />
    </filter>
    <radialGradient
       id="b"
       gradientUnits="userSpaceOnUse"
       cy="555.96002"
       cx="590.34998"
       gradientTransform="matrix(0.12749,0.047352,-0.064075,0.11244,-340.5,748.45)"
       r="70.341003">
      <stop
         stop-color="#ff0"
         offset="0"
         id="stop10" />
      <stop
         stop-color="#fff"
         offset="1"
         id="stop12" />
    </radialGradient>
    <radialGradient
       id="a"
       gradientUnits="userSpaceOnUse"
       cy="537.34003"
       cx="591.22998"
       gradientTransform="matrix(0.17318,-0.01634,0.016702,0.11537,-412.38,784.42)"
       r="65.042999">
      <stop
         stop-color="#ff0"
         offset="0"
         id="stop15" />
      <stop
         stop-color="#fff"
         offset="1"
         id="stop17" />
    </radialGradient>
    <linearGradient
       id="d"
       y2="666.84003"
       gradientUnits="userSpaceOnUse"
       x2="447.56"
       gradientTransform="matrix(0.081945,0,0,0.066156,-335.48,802.37)"
       y1="665.35999"
       x1="410.60001">
      <stop
         stop-color="#6c5353"
         offset="0"
         id="stop20" />
      <stop
         stop-color="#fff"
         offset="1"
         id="stop22" />
    </linearGradient>
    <linearGradient
       id="c"
       y2="287.59"
       gradientUnits="userSpaceOnUse"
       x2="265.32999"
       gradientTransform="matrix(0.62121,0.023096,-0.028608,0.50151,-459.05,685.68)"
       y1="284.45001"
       x1="261.89999">
      <stop
         stop-color="#fff"
         offset="0"
         id="stop25" />
      <stop
         stop-color="#fff"
         stop-opacity="0"
         offset="1"
         id="stop27" />
    </linearGradient>
  </defs>
  <metadata
     id="metadata29">
    <rdf:RDF>
      <cc:Work
         rdf:about="">
        <dc:format>image/svg+xml</dc:format>
        <dc:type
           rdf:resource="http://purl.org/dc/dcmitype/StillImage" />
        <dc:title />
      </cc:Work>
    </rdf:RDF>
  </metadata>
  <g
     transform="translate(308.98999,-832.28357)"
     id="g31">
    <g
       transform="matrix(0.91438,0,0,0.91438,-25.846,72.646)"
       id="g33">
      <path
         d="m -300.91,845.32 c -0.42273,10e-4 -1.0078,10e-4 -2.1785,0.006 -0.24821,10e-5 -0.29435,-0.0265 -0.48508,-0.22126 -0.004,-0.004 -0.009,-0.009 -0.0143,-0.0134 -0.0197,-0.0182 -0.11426,-0.25226 -0.13491,-0.55203 -0.0206,-0.29978 -0.0114,-0.65439 -0.0689,-0.97893 -10e-4,-0.008 -0.003,-0.0149 -0.005,-0.0224 -0.70607,-2.5828 -1.8342,-3.18 -2.7325,-5.1628 -0.54052,-1.299 -0.36817,-2.5103 0.69747,-3.8039 0.002,-0.002 0.007,-0.006 0.009,-0.009 0.63139,-0.65129 2.0613,-2.0955 4.9024,-2.0652 2.841,-0.0303 4.3141,1.4139 4.9455,2.0652 l 0.009,0.009 c 1.0656,1.2936 1.238,2.5049 0.69747,3.8039 -1.137,2.1204 -2.0269,2.5805 -2.7325,5.1628 -0.002,0.008 -0.004,0.0148 -0.005,0.0224 -0.0575,0.32454 -0.0482,0.67915 -0.0689,0.97893 -0.0206,0.29977 -0.11517,0.53386 -0.13491,0.55203 -0.004,0.004 -0.0104,0.009 -0.0143,0.0134 -0.19072,0.19484 -0.23686,0.22136 -0.48508,0.22126 -1.1707,-0.005 -1.7759,-0.005 -2.1986,-0.006 z"
         id="path35"
         inkscape:connector-curvature="0"
         style="fill:#ffff00;fill-rule:evenodd;stroke:#ffff00;stroke-width:0.55039001;stroke-opacity:0.99607999;filter:url(#e)" />
      <path
         d="m -300.86,845.15 c -0.64976,0.002 -0.65487,10e-4 -1.9539,0.008 -0.32517,1.2e-4 -0.53162,-0.10587 -0.74008,-0.32665 -0.29239,-0.27901 -0.17925,-1.0487 -0.26888,-1.5733 -0.637,-2.3161 -1.4152,-2.6518 -2.42,-4.7219 -0.52629,-1.2926 -0.34819,-2.5494 0.67349,-3.8247 0.57482,-0.61349 1.7417,-2.0028 4.7093,-2.0343 2.9676,0.0315 4.1345,1.4208 4.7093,2.0343 1.0217,1.2752 1.1972,2.5321 0.67093,3.8247 -0.94544,1.9096 -1.7943,2.3643 -2.42,4.7219 -0.0896,0.52457 0.0235,1.2943 -0.26888,1.5733 -0.20845,0.22078 -0.41234,0.32677 -0.73751,0.32665 -1.299,-0.007 -1.3041,-0.006 -1.9539,-0.008 z"
         id="path37"
         inkscape:connector-curvature="0"
         style="fill:url(#b);fill-rule:evenodd;stroke:#000000;stroke-width:0.5" />
      <path
         d="m -300.87,844.84 c -0.37716,10e-4 -0.89912,9.9e-4 -1.9436,0.006 -0.22145,9e-5 -0.26262,-0.0245 -0.43278,-0.20467 -0.004,-0.004 -0.008,-0.008 -0.0128,-0.0124 -0.0176,-0.0168 -0.10193,-0.23335 -0.12036,-0.51064 -0.0184,-0.2773 -0.0102,-0.60531 -0.0615,-0.90552 -0.001,-0.007 -0.003,-0.0138 -0.005,-0.0207 -0.62994,-2.3891 -1.6365,-2.9415 -2.4379,-4.7756 -0.48224,-1.2016 -0.32847,-2.3221 0.62227,-3.5187 l 0.008,-0.008 c 0.56331,-0.60245 1.8391,-1.9383 4.3738,-1.9103 2.5347,-0.028 3.849,1.3079 4.4123,1.9103 l 0.008,0.008 c 0.95074,1.1966 1.1045,2.3171 0.62227,3.5187 -1.0144,1.9614 -1.8084,2.387 -2.4379,4.7756 -0.002,0.007 -0.004,0.0137 -0.005,0.0207 -0.0513,0.30021 -0.043,0.62822 -0.0615,0.90552 -0.0184,0.27729 -0.10275,0.49383 -0.12036,0.51064 -0.004,0.004 -0.009,0.008 -0.0128,0.0124 -0.17016,0.18023 -0.21133,0.20476 -0.43278,0.20467 -1.0445,-0.005 -1.5844,-0.005 -1.9616,-0.006 z"
         id="path39"
         inkscape:connector-curvature="0"
         style="fill:url(#a);fill-rule:evenodd" />
      <path
         d="m 438.47,693.53 a 17.278,5.7594 0 0 1 -8.6446,4.9888 17.278,5.7594 0 0 1 -17.284,-0.003 17.278,5.7594 0 0 1 -8.628,-4.992"
         transform="matrix(0.080389,0,0,0.11896,-334.78,765.22)"
         id="path41"
         inkscape:connector-curvature="0"
         style="fill:#1a1a1a;stroke:#999999;stroke-width:2;stroke-linecap:round;stroke-linejoin:round;stroke-opacity:0.87209" />
      <path
         d="m -302.96,845.33 c -0.38448,0.22695 -0.51893,0.46629 -0.0312,0.78125 -0.23444,0.19835 -0.65215,0.37239 0,0.78125 -0.49312,0.27224 -0.40474,0.52188 0.0312,0.75 h 4.0938 c 0.656,-0.39 0.24242,-0.56192 0,-0.78125 0.61238,-0.44625 0.14675,-0.54889 0,-0.75 0.50095,-0.34704 0.27715,-0.56488 -0.0312,-0.78125 h -4.0625 z"
         id="path43"
         inkscape:connector-curvature="0"
         style="fill:url(#d);fill-rule:evenodd;stroke:#000000;stroke-width:0.15462001;stroke-linecap:round;stroke-linejoin:round;stroke-opacity:0.99418999" />
      <path
         d="m -305.52,838.44 c -0.28295,-0.93186 -0.11376,-2.0911 0.70683,-3.2786 1.2602,-1.7258 3.1092,-1.5548 4.2483,-1.5732 -1.6976,1.5867 -3.1571,3.0467 -4.9552,4.8518 z"
         id="path45"
         inkscape:connector-curvature="0"
         style="fill:url(#c);fill-rule:evenodd" />
    </g>
    <rect
       style="color:#000000;fill:none"
       height="16"
       width="16"
       y="832.45001"
       x="-308.98999"
       id="rect47" />
  </g>
</svg>
