<?xml version="1.0" encoding="UTF-8" standalone="no"?>
<svg
   xmlns:dc="http://purl.org/dc/elements/1.1/"
   xmlns:cc="http://creativecommons.org/ns#"
   xmlns:rdf="http://www.w3.org/1999/02/22-rdf-syntax-ns#"
   xmlns:svg="http://www.w3.org/2000/svg"
   xmlns="http://www.w3.org/2000/svg"
   xmlns:sodipodi="http://sodipodi.sourceforge.net/DTD/sodipodi-0.dtd"
   xmlns:inkscape="http://www.inkscape.org/namespaces/inkscape"
   height="16"
   width="16.002058"
   version="1.1"
   id="svg2"
   inkscape:version="0.48.5 r10040"
   sodipodi:docname="kalzium.svg">
  <sodipodi:namedview
     pagecolor="#ffffff"
     bordercolor="#666666"
     borderopacity="1"
     objecttolerance="10"
     gridtolerance="10"
     guidetolerance="10"
     inkscape:pageopacity="0"
     inkscape:pageshadow="2"
     inkscape:window-width="640"
     inkscape:window-height="480"
     id="namedview55"
     showgrid="false"
     fit-margin-top="0"
     fit-margin-left="0"
     fit-margin-right="0"
     fit-margin-bottom="0"
     inkscape:zoom="0.22424933"
     inkscape:cx="335.54501"
     inkscape:cy="-321.93998"
     inkscape:window-x="0"
     inkscape:window-y="27"
     inkscape:window-maximized="0"
     inkscape:current-layer="svg2" />
  <defs
     id="defs4">
    <radialGradient
       id="c"
       gradientUnits="userSpaceOnUse"
       cy="201.49001"
       cx="250.8"
       gradientTransform="matrix(0.61353,0.75941,-0.64044,0.51741,225.97,-93.219)"
       r="51.206001">
      <stop
         stop-color="#fff"
         offset="0"
         id="stop7" />
      <stop
         stop-color="#f60"
         offset="1"
         id="stop9" />
    </radialGradient>
    <radialGradient
       id="b"
       gradientUnits="userSpaceOnUse"
       cy="201.49001"
       cx="250.8"
       gradientTransform="matrix(0.61353,0.75941,-0.64044,0.51741,225.97,-93.219)"
       r="51.206001">
      <stop
         stop-color="#fff"
         offset="0"
         id="stop12" />
      <stop
         stop-color="#2ca02c"
         offset="1"
         id="stop14" />
    </radialGradient>
    <radialGradient
       id="a"
       gradientUnits="userSpaceOnUse"
       cy="201.49001"
       cx="250.8"
       gradientTransform="matrix(0.61353,0.75941,-0.64044,0.51741,225.97,-93.219)"
       r="51.206001">
      <stop
         stop-color="#fff"
         offset="0"
         id="stop17" />
      <stop
         stop-color="#0055d4"
         offset="1"
         id="stop19" />
    </radialGradient>
  </defs>
  <metadata
     id="metadata21">
    <rdf:RDF>
      <cc:Work
         rdf:about="">
        <dc:format>image/svg+xml</dc:format>
        <dc:type
           rdf:resource="http://purl.org/dc/dcmitype/StillImage" />
        <dc:title />
      </cc:Work>
    </rdf:RDF>
  </metadata>
  <g
     transform="translate(123.4,-865.78003)"
     id="g23">
    <g
       transform="matrix(0.22785,0,0,0.22785,-95.518,655.49)"
       id="g25">
      <g
         transform="matrix(0.9151,0,0,0.9151,-5.943,79.75)"
         id="g27"
         style="fill-rule:evenodd">
        <circle
           style="color:#000000;fill:#db71c9;stroke:#803300;stroke-width:2.90680003;stroke-opacity:0.78452998"
           cy="219.91"
           transform="matrix(0.29248,0,0,0.29248,-149.15,917.39)"
           cx="257.44"
           r="51.206001"
           id="circle29"
           d="m 308.646,219.91 c 0,28.2803 -22.9257,51.206 -51.206,51.206 -28.28029,0 -51.206,-22.9257 -51.206,-51.206 0,-28.28029 22.92571,-51.206 51.206,-51.206 28.2803,0 51.206,22.92571 51.206,51.206 z"
           sodipodi:cx="257.44"
           sodipodi:cy="219.91"
           sodipodi:rx="51.206001"
           sodipodi:ry="51.206001" />
        <circle
           style="color:#000000;fill:url(#c)"
           cy="219.91"
           transform="matrix(0.28375,0,0,0.28375,-146.9,919.31)"
           cx="257.44"
           r="51.206001"
           id="circle31"
           d="m 308.646,219.91 c 0,28.2803 -22.9257,51.206 -51.206,51.206 -28.28029,0 -51.206,-22.9257 -51.206,-51.206 0,-28.28029 22.92571,-51.206 51.206,-51.206 28.2803,0 51.206,22.92571 51.206,51.206 z"
           sodipodi:cx="257.44"
           sodipodi:cy="219.91"
           sodipodi:rx="51.206001"
           sodipodi:ry="51.206001" />
      </g>
      <g
         transform="translate(-6.9782,-36.434)"
         id="g33"
         style="fill-rule:evenodd">
        <circle
           style="color:#000000;fill:#00d400;stroke:#005500;stroke-width:2.90680003;stroke-opacity:0.78452998"
           cy="219.91"
           transform="matrix(0.30384,0,0,0.30384,-139.38,909.5)"
           cx="257.44"
           r="51.206001"
           id="circle35"
           d="m 308.646,219.91 c 0,28.2803 -22.9257,51.206 -51.206,51.206 -28.28029,0 -51.206,-22.9257 -51.206,-51.206 0,-28.28029 22.92571,-51.206 51.206,-51.206 28.2803,0 51.206,22.92571 51.206,51.206 z"
           sodipodi:cx="257.44"
           sodipodi:cy="219.91"
           sodipodi:rx="51.206001"
           sodipodi:ry="51.206001" />
        <circle
           style="color:#000000;fill:url(#b)"
           cy="219.91"
           transform="matrix(0.29478,0,0,0.29478,-137.05,911.49)"
           cx="257.44"
           r="51.206001"
           id="circle37"
           d="m 308.646,219.91 c 0,28.2803 -22.9257,51.206 -51.206,51.206 -28.28029,0 -51.206,-22.9257 -51.206,-51.206 0,-28.28029 22.92571,-51.206 51.206,-51.206 28.2803,0 51.206,22.92571 51.206,51.206 z"
           sodipodi:cx="257.44"
           sodipodi:cy="219.91"
           sodipodi:rx="51.206001"
           sodipodi:ry="51.206001" />
      </g>
      <path
         style="color:#000000;fill:none;stroke:#000000;stroke-width:6;stroke-linecap:round"
         d="m -69.956,953.97 -1.9614,9.8069"
         id="path39"
         inkscape:connector-curvature="0" />
      <path
         style="color:#000000;fill:none;stroke:#000000;stroke-width:6;stroke-linecap:round"
         d="m -95.127,951.68 16.672,-8.4994"
         id="path41"
         inkscape:connector-curvature="0" />
      <path
         style="color:#000000;fill:none;stroke:#000000;stroke-width:6;stroke-linecap:round"
         d="m -95.127,962.79 14.71,11.768"
         id="path43"
         inkscape:connector-curvature="0" />
      <g
         transform="matrix(1.1698,0,0,1.1698,17.718,-162.14)"
         id="g45">
        <g
           transform="translate(-134.02,30.091)"
           id="g47"
           style="fill-rule:evenodd;stroke:#000080">
          <circle
             style="color:#000000;fill:#db71c9;stroke-width:2.90680003;stroke-opacity:0.78452998"
             cy="219.91"
             transform="matrix(0.29248,0,0,0.29248,-45.621,860.51)"
             cx="257.44"
             r="51.206001"
             id="circle49"
             d="m 308.646,219.91 c 0,28.2803 -22.9257,51.206 -51.206,51.206 -28.28029,0 -51.206,-22.9257 -51.206,-51.206 0,-28.28029 22.92571,-51.206 51.206,-51.206 28.2803,0 51.206,22.92571 51.206,51.206 z"
             sodipodi:cx="257.44"
             sodipodi:cy="219.91"
             sodipodi:rx="51.206001"
             sodipodi:ry="51.206001" />
          <circle
             style="color:#000000;fill:url(#a)"
             cy="219.91"
             transform="matrix(0.28375,0,0,0.28375,-43.375,862.43)"
             cx="257.44"
             r="51.206001"
             id="circle51"
             d="m 308.646,219.91 c 0,28.2803 -22.9257,51.206 -51.206,51.206 -28.28029,0 -51.206,-22.9257 -51.206,-51.206 0,-28.28029 22.92571,-51.206 51.206,-51.206 28.2803,0 51.206,22.92571 51.206,51.206 z"
             sodipodi:cx="257.44"
             sodipodi:cy="219.91"
             sodipodi:rx="51.206001"
             sodipodi:ry="51.206001" />
        </g>
      </g>
    </g>
    <rect
       style="color:#000000;fill:none"
       height="16"
       width="16"
       y="865.78003"
       x="-123.4"
       id="rect53" />
  </g>
</svg>
