<?xml version="1.0" encoding="UTF-8" standalone="no"?>
<svg
   xmlns:dc="http://purl.org/dc/elements/1.1/"
   xmlns:cc="http://creativecommons.org/ns#"
   xmlns:rdf="http://www.w3.org/1999/02/22-rdf-syntax-ns#"
   xmlns:svg="http://www.w3.org/2000/svg"
   xmlns="http://www.w3.org/2000/svg"
   xmlns:xlink="http://www.w3.org/1999/xlink"
   xmlns:sodipodi="http://sodipodi.sourceforge.net/DTD/sodipodi-0.dtd"
   xmlns:inkscape="http://www.inkscape.org/namespaces/inkscape"
   height="15.867574"
   width="15.999976"
   version="1.1"
   id="svg2"
   inkscape:version="0.48.5 r10040"
   sodipodi:docname="RemoveNoteAction.svg">
  <sodipodi:namedview
     pagecolor="#ffffff"
     bordercolor="#666666"
     borderopacity="1"
     objecttolerance="10"
     gridtolerance="10"
     guidetolerance="10"
     inkscape:pageopacity="0"
     inkscape:pageshadow="2"
     inkscape:window-width="640"
     inkscape:window-height="480"
     id="namedview48"
     showgrid="false"
     fit-margin-top="0"
     fit-margin-left="0"
     fit-margin-right="0"
     fit-margin-bottom="0"
     inkscape:zoom="0.22424933"
     inkscape:cx="335.77192"
     inkscape:cy="-275.37868"
     inkscape:window-x="0"
     inkscape:window-y="27"
     inkscape:window-maximized="0"
     inkscape:current-layer="svg2" />
  <defs
     id="defs4">
    <radialGradient
       id="d"
       xlink:href="#a"
       gradientUnits="userSpaceOnUse"
       cy="718.77002"
       cx="160.44"
       gradientTransform="matrix(0.19981,0.1787,-0.15894,0.16574,241.58,572.22)"
       r="6.9383001" />
    <linearGradient
       id="a">
      <stop
         stop-color="#fff"
         offset="0"
         id="stop8" />
      <stop
         stop-color="#b9150a"
         offset="1"
         id="stop10" />
    </linearGradient>
    <radialGradient
       id="b"
       xlink:href="#a"
       gradientUnits="userSpaceOnUse"
       cy="718.77002"
       cx="160.44"
       gradientTransform="matrix(0.19981,0.17871,-0.14353,0.14931,230.51,584.03)"
       r="6.9383001" />
    <radialGradient
       id="c"
       xlink:href="#a"
       gradientUnits="userSpaceOnUse"
       cy="718.77002"
       cx="160.44"
       gradientTransform="matrix(0.1998,0.17871,-0.1504,0.15662,235.45,578.78)"
       r="6.9383001" />
    <radialGradient
       inkscape:collect="always"
       xlink:href="#a"
       id="radialGradient3025"
       gradientUnits="userSpaceOnUse"
       gradientTransform="matrix(0.19981,0.17871,-0.14353,0.14931,230.51,584.03)"
       cx="160.44"
       cy="718.77002"
       r="6.9383001" />
  </defs>
  <metadata
     id="metadata14">
    <rdf:RDF>
      <cc:Work
         rdf:about="">
        <dc:format>image/svg+xml</dc:format>
        <dc:type
           rdf:resource="http://purl.org/dc/dcmitype/StillImage" />
        <dc:title />
      </cc:Work>
    </rdf:RDF>
  </metadata>
  <g
     transform="matrix(0.96975,0,0,0.96975,354.67691,-176.08275)"
     id="g16">
    <g
       transform="matrix(0.46366,0.045272,0,0.43177,-122.99,-96.5)"
       id="g18">
      <rect
         transform="matrix(0.92114,-0.38924,0,1,0,0)"
         height="29.416"
         width="24.606001"
         y="485.67999"
         x="-567.88"
         id="rect20"
         style="fill:#ffff00;stroke:#d40000" />
      <g
         id="g22">
        <circle
           cx="160.78999"
           transform="matrix(0.64502,-0.27257,0,0.67601,-623.02,266.93)"
           cy="721.26001"
           r="2.9619999"
           id="circle24"
           d="m 163.75199,721.26001 c 0,1.63587 -1.32613,2.962 -2.962,2.962 -1.63586,0 -2.962,-1.32613 -2.962,-2.962 0,-1.63587 1.32614,-2.962 2.962,-2.962 1.63587,0 2.962,1.32613 2.962,2.962 z"
           sodipodi:cx="160.78999"
           sodipodi:cy="721.26001"
           sodipodi:rx="2.9619999"
           sodipodi:ry="2.9619999"
           style="fill:url(#d)" />
        <rect
           ry="0.18629"
           rx="0.12231"
           transform="matrix(0.92114,-0.38924,0,1,0,0)"
           height="2.0193999"
           width="13.971"
           y="490.23001"
           x="-560.15997"
           id="rect26" />
        <circle
           cx="160.78999"
           transform="matrix(0.64502,-0.27257,0,0.67601,-623.02,278.47)"
           cy="721.26001"
           r="2.9619999"
           id="circle28"
           d="m 163.75199,721.26001 c 0,1.63587 -1.32613,2.962 -2.962,2.962 -1.63586,0 -2.962,-1.32613 -2.962,-2.962 0,-1.63587 1.32614,-2.962 2.962,-2.962 1.63587,0 2.962,1.32613 2.962,2.962 z"
           sodipodi:cx="160.78999"
           sodipodi:cy="721.26001"
           sodipodi:rx="2.9619999"
           sodipodi:ry="2.9619999"
           style="fill:url(#radialGradient3025)" />
        <rect
           ry="0.18629"
           rx="0.12231"
           transform="matrix(0.92114,-0.38924,0,1,0,0)"
           height="2.0193999"
           width="13.971"
           y="501.76999"
           x="-560.15997"
           id="rect30" />
        <circle
           cx="160.78999"
           transform="matrix(0.64502,-0.27257,0,0.67601,-623.02,272.7)"
           cy="721.26001"
           r="2.9619999"
           id="circle32"
           d="m 163.75199,721.26001 c 0,1.63587 -1.32613,2.962 -2.962,2.962 -1.63586,0 -2.962,-1.32613 -2.962,-2.962 0,-1.63587 1.32614,-2.962 2.962,-2.962 1.63587,0 2.962,1.32613 2.962,2.962 z"
           sodipodi:cx="160.78999"
           sodipodi:cy="721.26001"
           sodipodi:rx="2.9619999"
           sodipodi:ry="2.9619999"
           style="fill:url(#c)" />
        <g
           transform="matrix(1,-0.42257,0,1,-640.34,117.66)"
           id="g34">
          <rect
             rx="0.11266"
             ry="0.18629"
             height="2.0193999"
             width="12.869"
             y="648.92999"
             x="124.36"
             id="rect36" />
        </g>
        <circle
           cx="160.78999"
           transform="matrix(0.64502,-0.27257,0,0.67601,-623.02,284.24)"
           cy="721.26001"
           r="2.9619999"
           id="circle38"
           d="m 163.75199,721.26001 c 0,1.63587 -1.32613,2.962 -2.962,2.962 -1.63586,0 -2.962,-1.32613 -2.962,-2.962 0,-1.63587 1.32614,-2.962 2.962,-2.962 1.63587,0 2.962,1.32613 2.962,2.962 z"
           sodipodi:cx="160.78999"
           sodipodi:cy="721.26001"
           sodipodi:rx="2.9619999"
           sodipodi:ry="2.9619999"
           style="fill:url(#b)" />
        <rect
           ry="0.18629"
           rx="0.12231"
           transform="matrix(0.92114,-0.38924,0,1,0,0)"
           height="2.0193999"
           width="13.971"
           y="507.54001"
           x="-560.15997"
           id="rect40" />
      </g>
    </g>
    <g
       transform="matrix(0.76724,0,0,0.80498,-237.1,-520.76)"
       id="g42"
       style="fill:#d20000">
      <path
         style="color:#000000"
         d="m -161.28,889.17 c 0.59165,-6.8804 5.7208,-14.856 13.736,-16 l 1.3818,2.3683 c -7.776,1.6244 -12.057,5.7928 -15.118,13.632 z"
         id="path44"
         inkscape:connector-curvature="0" />
      <path
         style="color:#000000"
         d="m -164.97,874.34 c 6.9053,0.0759 15.242,4.5947 16.982,12.502 l -2.2584,1.555 c -2.2009,-7.6329 -6.6776,-11.591 -14.723,-14.057 z"
         id="path46"
         inkscape:connector-curvature="0" />
    </g>
  </g>
</svg>
