<?xml version="1.0" encoding="UTF-8" standalone="no"?>
<svg
   xmlns:dc="http://purl.org/dc/elements/1.1/"
   xmlns:cc="http://creativecommons.org/ns#"
   xmlns:rdf="http://www.w3.org/1999/02/22-rdf-syntax-ns#"
   xmlns:svg="http://www.w3.org/2000/svg"
   xmlns="http://www.w3.org/2000/svg"
   xmlns:sodipodi="http://sodipodi.sourceforge.net/DTD/sodipodi-0.dtd"
   xmlns:inkscape="http://www.inkscape.org/namespaces/inkscape"
   height="16"
   width="15.782475"
   version="1.1"
   id="svg2"
   inkscape:version="0.48.5 r10040"
   sodipodi:docname="remove_last_icon.svg">
  <sodipodi:namedview
     pagecolor="#ffffff"
     bordercolor="#666666"
     borderopacity="1"
     objecttolerance="10"
     gridtolerance="10"
     guidetolerance="10"
     inkscape:pageopacity="0"
     inkscape:pageshadow="2"
     inkscape:window-width="640"
     inkscape:window-height="480"
     id="namedview44"
     showgrid="false"
     fit-margin-top="0"
     fit-margin-left="0"
     fit-margin-right="0"
     fit-margin-bottom="0"
     inkscape:zoom="0.22424933"
     inkscape:cx="270.635"
     inkscape:cy="-320.53003"
     inkscape:window-x="0"
     inkscape:window-y="27"
     inkscape:window-maximized="0"
     inkscape:current-layer="svg2" />
  <defs
     id="defs4">
    <radialGradient
       id="b"
       gradientUnits="userSpaceOnUse"
       cy="230.14999"
       cx="267.60001"
       gradientTransform="matrix(-1.2041,-0.8086,0.97364,-1.4498,368.7,779.61)"
       r="54.705002">
      <stop
         stop-color="#4d0033"
         offset="0"
         id="stop7" />
      <stop
         stop-color="#fff2ff"
         offset="1"
         id="stop9" />
    </radialGradient>
    <radialGradient
       id="a"
       gradientUnits="userSpaceOnUse"
       cy="230.14999"
       cx="267.60001"
       gradientTransform="matrix(-1.3772,-1.014,1.5479,-2.1022,282.85,984.73)"
       r="54.705002">
      <stop
         stop-color="#625b18"
         offset="0"
         id="stop12" />
      <stop
         stop-color="#fff"
         offset="1"
         id="stop14" />
    </radialGradient>
  </defs>
  <metadata
     id="metadata16">
    <rdf:RDF>
      <cc:Work
         rdf:about="">
        <dc:format>image/svg+xml</dc:format>
        <dc:type
           rdf:resource="http://purl.org/dc/dcmitype/StillImage" />
        <dc:title />
      </cc:Work>
    </rdf:RDF>
  </metadata>
  <g
     transform="translate(-121.10701,-794.03998)"
     id="g18">
    <rect
       style="opacity:0.92510998;color:#000000;fill:none"
       rx="0.066850998"
       ry="0.092563003"
       height="16"
       width="15.197"
       y="794.03998"
       x="121.39"
       id="rect20" />
    <g
       transform="matrix(1.0765,0,0,1.1334,-66.812,-142.77)"
       id="g22">
      <circle
         cy="219.91"
         transform="matrix(0.064073,0,0,0.064073,161.57,820.22)"
         cx="257.44"
         r="51.206001"
         id="circle24"
         d="m 308.646,219.91 c 0,28.2803 -22.9257,51.206 -51.206,51.206 -28.28029,0 -51.206,-22.9257 -51.206,-51.206 0,-28.28029 22.92571,-51.206 51.206,-51.206 28.2803,0 51.206,22.92571 51.206,51.206 z"
         sodipodi:cx="257.44"
         sodipodi:cy="219.91"
         sodipodi:rx="51.206001"
         sodipodi:ry="51.206001"
         style="fill:url(#b);fill-rule:evenodd;stroke:#590059;stroke-width:6.83809996" />
      <text
         xml:space="preserve"
         font-size="6.8663px"
         y="836.77893"
         x="176.09413"
         id="text26"
         style="font-size:6.86630011px;fill:#ffffff;font-family:Arial"><tspan
           font-size="6.8663px"
           y="836.77893"
           x="176.09413"
           id="tspan28"
           style="font-size:6.86630011px;fill:#ffffff;font-family:Arial">1</tspan></text>
    </g>
    <g
       transform="matrix(1.6271,0,0,1.7131,-172.43,-629.23)"
       id="g30">
      <circle
         cy="219.91"
         transform="matrix(0.064073,0,0,0.064073,170.11,820.49)"
         cx="257.44"
         r="51.206001"
         id="circle32"
         d="m 308.646,219.91 c 0,28.2803 -22.9257,51.206 -51.206,51.206 -28.28029,0 -51.206,-22.9257 -51.206,-51.206 0,-28.28029 22.92571,-51.206 51.206,-51.206 28.2803,0 51.206,22.92571 51.206,51.206 z"
         sodipodi:cx="257.44"
         sodipodi:cy="219.91"
         sodipodi:rx="51.206001"
         sodipodi:ry="51.206001"
         style="fill:url(#a);fill-rule:evenodd;stroke:#82792b;stroke-width:6.83809996" />
      <text
         xml:space="preserve"
         font-size="6.2779px"
         y="836.83807"
         x="184.93179"
         id="text34"
         style="font-size:6.27790022px;fill:#ffffff;font-family:Arial"><tspan
           font-size="6.2779px"
           y="836.83807"
           x="184.93179"
           id="tspan36"
           style="font-size:6.27790022px;fill:#ffffff;font-family:Arial">2</tspan></text>
    </g>
    <g
       transform="matrix(0.6458,0,0,0.74226,231,147.48)"
       id="g38"
       style="fill:#ff0000">
      <path
         style="color:#000000"
         d="m -161.28,889.17 c 0.59165,-6.8804 5.7208,-14.856 13.736,-16 l 1.3818,2.3683 c -7.776,1.6244 -12.057,5.7928 -15.118,13.632 z"
         id="path40"
         inkscape:connector-curvature="0" />
      <path
         style="color:#000000"
         d="m -164.97,874.34 c 6.9053,0.0759 15.242,4.5947 16.982,12.502 l -2.2584,1.555 c -2.2009,-7.6329 -6.6776,-11.591 -14.723,-14.057 z"
         id="path42"
         inkscape:connector-curvature="0" />
    </g>
  </g>
</svg>
