<?xml version="1.0" encoding="UTF-8" standalone="no"?>
<svg
   xmlns:dc="http://purl.org/dc/elements/1.1/"
   xmlns:cc="http://creativecommons.org/ns#"
   xmlns:rdf="http://www.w3.org/1999/02/22-rdf-syntax-ns#"
   xmlns:svg="http://www.w3.org/2000/svg"
   xmlns="http://www.w3.org/2000/svg"
   xmlns:sodipodi="http://sodipodi.sourceforge.net/DTD/sodipodi-0.dtd"
   xmlns:inkscape="http://www.inkscape.org/namespaces/inkscape"
   height="16.009644"
   width="16.009844"
   version="1.1"
   id="svg2"
   inkscape:version="0.48.5 r10040"
   sodipodi:docname="SetLinkByFileChooserAction.svg">
  <sodipodi:namedview
     pagecolor="#ffffff"
     bordercolor="#666666"
     borderopacity="1"
     objecttolerance="10"
     gridtolerance="10"
     guidetolerance="10"
     inkscape:pageopacity="0"
     inkscape:pageshadow="2"
     inkscape:window-width="640"
     inkscape:window-height="480"
     id="namedview31"
     showgrid="false"
     fit-margin-top="0"
     fit-margin-left="0"
     fit-margin-right="0"
     fit-margin-bottom="0"
     inkscape:zoom="0.22424933"
     inkscape:cx="313.54971"
     inkscape:cy="-398.71458"
     inkscape:window-x="0"
     inkscape:window-y="27"
     inkscape:window-maximized="0"
     inkscape:current-layer="svg2" />
  <defs
     id="defs4">
    <linearGradient
       id="c"
       y2="510.32001"
       gradientUnits="userSpaceOnUse"
       x2="-286.06"
       gradientTransform="matrix(0.53469,0,-0.25393,0.51005,-3.8837,253.66)"
       y1="523.78998"
       x1="-295.67999">
      <stop
         stop-color="#f5863e"
         offset="0"
         id="stop7" />
      <stop
         stop-color="#d26933"
         offset="1"
         id="stop9" />
    </linearGradient>
    <linearGradient
       id="b"
       y2="510.32001"
       gradientUnits="userSpaceOnUse"
       x2="-286.06"
       gradientTransform="matrix(0.53469,0,-0.25393,0.51005,5.6013,246.03)"
       y1="523.78998"
       x1="-295.67999">
      <stop
         stop-color="#f5863e"
         offset="0"
         id="stop12" />
      <stop
         stop-color="#d26933"
         offset="1"
         id="stop14" />
    </linearGradient>
    <linearGradient
       id="a"
       y2="553.03998"
       gradientUnits="userSpaceOnUse"
       x2="-325.57001"
       gradientTransform="matrix(0.15519,-0.13105,0.13105,0.15519,-304.44,382.28)"
       y1="553.03998"
       x1="-371.73999">
      <stop
         stop-color="#de6827"
         offset="0"
         id="stop17" />
      <stop
         stop-color="#f1833d"
         offset="1"
         id="stop19" />
    </linearGradient>
  </defs>
  <metadata
     id="metadata21">
    <rdf:RDF>
      <cc:Work
         rdf:about="">
        <dc:format>image/svg+xml</dc:format>
        <dc:type
           rdf:resource="http://purl.org/dc/dcmitype/StillImage" />
        <dc:title />
      </cc:Work>
    </rdf:RDF>
  </metadata>
  <g
     transform="matrix(0.95413,0,0.27651,0.96662,138.86469,-488.53579)"
     id="g23">
    <path
       style="text-indent:0;text-transform:none;block-progression:tb;color:#000000;fill:url(#c);stroke:#d56c34;stroke-width:0.25"
       d="m -288.61,513.16 c -2.4966,0 -5.5009,1.9538 -6.6866,4.3354 -1.1857,2.3816 -0.12692,4.3354 2.3697,4.3354 2.49662,0 5.5176,-1.9538 6.7033,-4.3354 1.1857,-2.3816 0.1102,-4.3354 -2.3864,-4.3354 z m -0.76974,1.5461 c 1.6242,0 2.3068,1.2399 1.5354,2.7894 -0.77138,1.5494 -2.6885,2.7894 -4.3128,2.7894 -1.6242,0 -2.3068,-1.2399 -1.5354,-2.7894 0.77138,-1.5494 2.6885,-2.7894 4.3128,-2.7894 z"
       id="path25"
       inkscape:connector-curvature="0" />
    <path
       style="text-indent:0;text-transform:none;block-progression:tb;color:#000000;fill:url(#b);stroke:#dd6929;stroke-width:0.25"
       d="m -279.12,505.53 c -2.4966,0 -5.5009,1.9538 -6.6866,4.3354 -1.1857,2.3816 -0.12692,4.3354 2.3697,4.3354 2.49662,0 5.5176,-1.9538 6.7033,-4.3354 1.1857,-2.3816 0.1102,-4.3354 -2.3864,-4.3354 z m -0.76974,1.5461 c 1.6242,0 2.3068,1.2399 1.5354,2.7894 -0.77138,1.5494 -2.6885,2.7894 -4.3128,2.7894 -1.6242,0 -2.3068,-1.2399 -1.5354,-2.7894 0.77138,-1.5494 2.6885,-2.7894 4.3128,-2.7894 z"
       id="path27"
       inkscape:connector-curvature="0" />
    <path
       style="color:#000000;fill:url(#a);fill-rule:evenodd;stroke:#de6827;stroke-width:0.60935003;stroke-linecap:square;stroke-dashoffset:4.503"
       d="m -290.05,515.87 c 2.3281,-2.4226 4.531,-4.1364 6.6999,-5.6578 l 1.2287,1.455 c -2.0498,2.1947 -4.2831,4.0806 -6.6999,5.6578 z"
       id="path29"
       inkscape:connector-curvature="0" />
  </g>
</svg>
