<?xml version="1.0" encoding="UTF-8" standalone="no"?>
<svg
   xmlns:dc="http://purl.org/dc/elements/1.1/"
   xmlns:cc="http://creativecommons.org/ns#"
   xmlns:rdf="http://www.w3.org/1999/02/22-rdf-syntax-ns#"
   xmlns:svg="http://www.w3.org/2000/svg"
   xmlns="http://www.w3.org/2000/svg"
   xmlns:sodipodi="http://sodipodi.sourceforge.net/DTD/sodipodi-0.dtd"
   xmlns:inkscape="http://www.inkscape.org/namespaces/inkscape"
   height="15.8199"
   width="16.005247"
   version="1.1"
   id="svg2"
   inkscape:version="0.48.5 r10040"
   sodipodi:docname="xx65.svg">
  <sodipodi:namedview
     pagecolor="#ffffff"
     bordercolor="#666666"
     borderopacity="1"
     objecttolerance="10"
     gridtolerance="10"
     guidetolerance="10"
     inkscape:pageopacity="0"
     inkscape:pageshadow="2"
     inkscape:window-width="640"
     inkscape:window-height="480"
     id="namedview64"
     showgrid="false"
     fit-margin-top="0"
     fit-margin-left="0"
     fit-margin-right="0"
     fit-margin-bottom="0"
     inkscape:zoom="0.22424933"
     inkscape:cx="244.40359"
     inkscape:cy="-298.59386"
     inkscape:window-x="0"
     inkscape:window-y="27"
     inkscape:window-maximized="0"
     inkscape:current-layer="svg2" />
  <defs
     id="defs4">
    <linearGradient
       id="b"
       y2="298.92001"
       gradientUnits="userSpaceOnUse"
       x2="112.73"
       y1="310.62"
       x1="111.93">
      <stop
         stop-color="#0d2e2e"
         offset="0"
         id="stop7" />
      <stop
         stop-color="#0d2e2e"
         stop-opacity="0"
         offset="1"
         id="stop9" />
    </linearGradient>
    <linearGradient
       id="a"
       y2="7.1090999"
       gradientUnits="userSpaceOnUse"
       y1="24.627001"
       gradientTransform="matrix(0.41895,0,0,-0.30274,102.66,312.28)"
       x2="21.933001"
       x1="21.933001">
      <stop
         stop-color="#acf"
         offset="0"
         id="stop12" />
      <stop
         stop-color="#04a"
         offset="1"
         id="stop14" />
    </linearGradient>
    <linearGradient
       id="c"
       y2="302.84"
       gradientUnits="userSpaceOnUse"
       x2="118.52"
       y1="302.84"
       x1="105.51">
      <stop
         stop-color="#37c837"
         offset="0"
         id="stop17" />
      <stop
         stop-color="#165016"
         offset="1"
         id="stop19" />
    </linearGradient>
    <linearGradient
       id="d"
       y2="300.78"
       gradientUnits="userSpaceOnUse"
       x2="112.37"
       y1="303.64001"
       x1="112.29">
      <stop
         stop-color="#b9d7ff"
         offset="0"
         id="stop22" />
      <stop
         stop-color="#3c8dff"
         offset="1"
         id="stop24" />
    </linearGradient>
  </defs>
  <metadata
     id="metadata26">
    <rdf:RDF>
      <cc:Work
         rdf:about="">
        <dc:format>image/svg+xml</dc:format>
        <dc:type
           rdf:resource="http://purl.org/dc/dcmitype/StillImage" />
        <dc:title />
      </cc:Work>
    </rdf:RDF>
  </metadata>
  <g
     transform="translate(384.75858,-479.65625)"
     id="g28">
    <g
       transform="matrix(1.0006,0,0,0.99999,-488.92,184.49)"
       id="g30">
      <g
         transform="matrix(1.0076,0,0,1.0573,-0.7859,-17.798)"
         id="g32">
        <path
           style="color:#000000;fill:url(#b);stroke:#0d2e2e;stroke-width:0.36142001;stroke-opacity:0.52548996"
           d="m 104.69,298.83 h 14.696 c 0.22526,0 0.4066,0.18134 0.4066,0.4066 l -0.0602,11.046 c -0.005,0.34784 -0.28273,0.42551 -0.57288,0.43032 l -14.47,0.0602 c -0.22525,0 -0.4066,-0.18134 -0.4066,-0.40659 v -11.13 c 0,-0.22526 0.18135,-0.4066 0.4066,-0.4066 z"
           id="path34"
           inkscape:connector-curvature="0" />
        <path
           d="m 105.51,309.5 h 13.011 v -3.9363 H 105.51 V 309.5 z"
           id="path36"
           inkscape:connector-curvature="0"
           style="fill:url(#a)" />
        <path
           d="m 105.51,300.11 h 13.011 v 5.4607 H 105.51 V 300.11 z"
           id="path38"
           inkscape:connector-curvature="0"
           style="fill:url(#c)" />
        <path
           style="color:#000000;fill:url(#d)"
           d="m 105.68,300.36 v 5.2662 c 8.0691,0.25103 7.2286,-3.3039 12.692,-3.3039 v -2.0591 z"
           id="path40"
           inkscape:connector-curvature="0" />
        <g
           transform="matrix(0.52451,0,0,0.52214,101.24,294.84)"
           id="g42"
           style="stroke:#000000;stroke-width:1.15610003">
          <path
             d="m 18.4,15.4 c 0,2.2 -1.8,4.1 -4.1,4.1 -2.2,0 -4.1,-1.8 -4.1,-4.1 0,-2.2 1.8,-4.1 4.1,-4.1 2.2,0 4.1,1.8 4.1,4.1 z"
             id="path44"
             inkscape:connector-curvature="0"
             style="opacity:0.05;fill:#e8f52f" />
          <path
             d="m 18,15.4 c 0,2 -1.6,3.7 -3.7,3.7 -2,0 -3.7,-1.6 -3.7,-3.7 0,-2 1.6,-3.7 3.7,-3.7 2,0 3.7,1.6 3.7,3.7 z"
             id="path46"
             inkscape:connector-curvature="0"
             style="opacity:0.2083;fill:#ecf751" />
          <path
             d="m 17.6,15.4 c 0,1.8 -1.5,3.3 -3.3,3.3 -1.8,0 -3.3,-1.5 -3.3,-3.3 0,-1.8 1.5,-3.3 3.3,-3.3 1.8,0 3.3,1.5 3.3,3.3 z"
             id="path48"
             inkscape:connector-curvature="0"
             style="opacity:0.3667;fill:#f0f972" />
          <path
             d="m 17.2,15.4 c 0,1.6 -1.3,2.9 -2.9,2.9 -1.6,0 -2.9,-1.3 -2.9,-2.9 0,-1.6 1.3,-2.9 2.9,-2.9 1.6,0 2.9,1.3 2.9,2.9 z"
             id="path50"
             inkscape:connector-curvature="0"
             style="opacity:0.525;fill:#f4fa95" />
          <path
             d="m 16.8,15.4 c 0,1.4 -1.1,2.5 -2.5,2.5 -1.4,0 -2.5,-1.1 -2.5,-2.5 0,-1.4 1.1,-2.5 2.5,-2.5 1.4,0 2.5,1.1 2.5,2.5 z"
             id="path52"
             inkscape:connector-curvature="0"
             style="opacity:0.6833;fill:#f7fcb7" />
          <path
             d="m 16.4,15.4 c 0,1.2 -1,2.1 -2.1,2.1 -1.1,0 -2.1,-1 -2.1,-2.1 0,-1.1 1,-2.1 2.1,-2.1 1.1,0 2.1,1 2.1,2.1 z"
             id="path54"
             inkscape:connector-curvature="0"
             style="opacity:0.8417;fill:#fbfddb" />
          <path
             d="m 16,15.4 c 0,1 -0.8,1.8 -1.8,1.8 -1,0 -1.8,-0.8 -1.8,-1.8 0,-1 0.8,-1.8 1.8,-1.8 1,0 1.8,0.8 1.8,1.8 z"
             id="path56"
             inkscape:connector-curvature="0"
             style="fill:#ffffff" />
        </g>
        <path
           style="color:#000000;fill:none;stroke:#ffffff;stroke-width:0.71860999"
           d="m 105.39,299.7 h 13.28 c 0.0493,0 0.14278,0.0398 0.14278,0.0892 v 9.8423 c -9.1e-4,0.16896 0.007,0.21162 -0.097,0.2174 l -13.326,-0.0191 c -0.0494,0 -0.0892,0.0493 -0.0892,0 v -10.041 c 0,-0.0493 0.0398,-0.0892 0.0892,-0.0892 z"
           id="path58"
           inkscape:connector-curvature="0" />
        <rect
           style="opacity:0.84658999;color:#000000;fill:none;stroke:#4f4f4f;stroke-width:0.36142001"
           height="9.0580997"
           width="12.672"
           y="300.29001"
           x="105.69"
           id="rect60" />
      </g>
    </g>
    <path
       d="m -379.93,479.73 v 2.5711 h -2.2894 v 1.793 h 2.2894 v 2.5711 h 1.7413 v -2.5711 h 2.2894 v -1.793 h -2.2894 V 479.73 h -1.7413 z"
       id="path62"
       inkscape:connector-curvature="0"
       style="fill:#f21313;stroke:#000000;stroke-width:0.15771px" />
  </g>
</svg>
