<?xml version="1.0" encoding="UTF-8" standalone="no"?>
<svg
   xmlns:dc="http://purl.org/dc/elements/1.1/"
   xmlns:cc="http://creativecommons.org/ns#"
   xmlns:rdf="http://www.w3.org/1999/02/22-rdf-syntax-ns#"
   xmlns:svg="http://www.w3.org/2000/svg"
   xmlns="http://www.w3.org/2000/svg"
   xmlns:sodipodi="http://sodipodi.sourceforge.net/DTD/sodipodi-0.dtd"
   xmlns:inkscape="http://www.inkscape.org/namespaces/inkscape"
   height="16.09375"
   width="16.1875"
   version="1.1"
   id="svg2"
   inkscape:version="0.48.5 r10040"
   sodipodi:docname="xx75.svg">
  <sodipodi:namedview
     pagecolor="#ffffff"
     bordercolor="#666666"
     borderopacity="1"
     objecttolerance="10"
     gridtolerance="10"
     guidetolerance="10"
     inkscape:pageopacity="0"
     inkscape:pageshadow="2"
     inkscape:window-width="640"
     inkscape:window-height="480"
     id="namedview21"
     showgrid="false"
     fit-margin-top="0"
     fit-margin-left="0"
     fit-margin-right="0"
     fit-margin-bottom="0"
     inkscape:zoom="0.22424933"
     inkscape:cx="334.44901"
     inkscape:cy="-189.84001"
     inkscape:window-x="0"
     inkscape:window-y="27"
     inkscape:window-maximized="0"
     inkscape:current-layer="svg2" />
  <defs
     id="defs4">
    <linearGradient
       id="a"
       y2="0.029297"
       gradientUnits="userSpaceOnUse"
       y1="8.4145002"
       gradientTransform="matrix(-1,0,0,1,16.1,0)"
       x2="-0.13418999"
       x1="12.978">
      <stop
         stop-color="#003a00"
         offset="0"
         id="stop7" />
      <stop
         stop-color="#00d800"
         offset="1"
         id="stop9" />
    </linearGradient>
  </defs>
  <metadata
     id="metadata11">
    <rdf:RDF>
      <cc:Work
         rdf:about="">
        <dc:format>image/svg+xml</dc:format>
        <dc:type
           rdf:resource="http://purl.org/dc/dcmitype/StillImage" />
        <dc:title />
      </cc:Work>
    </rdf:RDF>
  </metadata>
  <g
     transform="translate(0,0.09375)"
     id="g13"
     style="stroke:#008000">
    <path
       d="M 9.2652,2.3145 C 0.154,2.284 0.0629,15.9365 0.0629,15.9365"
       id="path15"
       inkscape:connector-curvature="0"
       style="fill:none;stroke-width:0.10268;stroke-linecap:square" />
    <path
       d="M 9.2265,7.5577 C 0.0625,7.5026 0.0625,15.937 0.0625,15.937"
       id="path17"
       inkscape:connector-curvature="0"
       style="fill:none;stroke-width:0.097447" />
    <path
       d="M 0.27159,13.918 C 0.31576,13.9168 0.35983,13.95424 0.34868,14.00082 0.33219,14.06311 0.32475,14.12898 0.30026,14.18849 0.27268,14.24122 0.18312,14.22844 0.17461,14.16821 0.17341,14.10303 0.1859,14.03758 0.19368,13.97283 0.20138,13.93792 0.23623,13.91377 0.27159,13.918 z m 0.07228,-0.41032 c 0.08234,-0.003 0.12906,0.0819 0.08981,0.15232 -0.0371,0.10056 -0.03381,0.22471 -0.10556,0.30694 -0.06998,0.05137 -0.14352,-0.04469 -0.11806,-0.11482 0.02667,-0.10564 -2.26e-4,-0.2319 0.0662,-0.32315 0.01876,-0.01605 0.04283,-0.02449 0.06759,-0.0213 z m 8.7864,-11.165 c 0.038909,0.53136 0.00554,1.0764 0.016667,1.613 v 3.5407 c -0.0778,0.1297 -0.2815,0.0339 -0.4149,0.0652 -1.5287,0.0569 -3.0697,0.3429 -4.4261,1.072 -1.498,0.781 -2.6684,2.0965 -3.3681,3.6335 -0.20215,0.40766 -0.32853,0.84973 -0.48908,1.2714 -0.09679,0.10084 -0.19926,-0.04418 -0.16018,-0.14444 0.12908,-1.0954 0.36045,-2.1792 0.64674,-3.244 0.54432,-1.9111 1.3524,-3.7962 2.6726,-5.3009 1.0715,-1.2315 2.5534,-2.1231 4.1741,-2.3982 0.437,-0.0739 0.8875,-0.1341 1.3283,-0.1165 L 9.130141,2.3426 z m 6.9693,2.6784 -3.5,2.4895 -3.5004,2.4895 0.0098,-5 0.0098,-5 3.4898,2.5105 z"
       id="path19"
       inkscape:connector-curvature="0"
       style="fill:url(#a);stroke-width:0.00052378;stroke-linecap:square" />
  </g>
</svg>
