<?xml version="1.0" encoding="UTF-8" standalone="no"?>
<svg
   xmlns:dc="http://purl.org/dc/elements/1.1/"
   xmlns:cc="http://creativecommons.org/ns#"
   xmlns:rdf="http://www.w3.org/1999/02/22-rdf-syntax-ns#"
   xmlns:svg="http://www.w3.org/2000/svg"
   xmlns="http://www.w3.org/2000/svg"
   xmlns:sodipodi="http://sodipodi.sourceforge.net/DTD/sodipodi-0.dtd"
   xmlns:inkscape="http://www.inkscape.org/namespaces/inkscape"
   height="16.09375"
   width="16.1875"
   version="1.1"
   id="svg2"
   inkscape:version="0.48.5 r10040"
   sodipodi:docname="xx77.svg">
  <sodipodi:namedview
     pagecolor="#ffffff"
     bordercolor="#666666"
     borderopacity="1"
     objecttolerance="10"
     gridtolerance="10"
     guidetolerance="10"
     inkscape:pageopacity="0"
     inkscape:pageshadow="2"
     inkscape:window-width="640"
     inkscape:window-height="480"
     id="namedview21"
     showgrid="false"
     fit-margin-top="0"
     fit-margin-left="0"
     fit-margin-right="0"
     fit-margin-bottom="0"
     inkscape:zoom="0.22424933"
     inkscape:cx="336.97776"
     inkscape:cy="-206.29001"
     inkscape:window-x="0"
     inkscape:window-y="27"
     inkscape:window-maximized="0"
     inkscape:current-layer="svg2" />
  <defs
     id="defs4">
    <linearGradient
       id="a"
       y2="0.029297"
       gradientUnits="userSpaceOnUse"
       y1="8.4145002"
       x2="-0.13418999"
       x1="12.978">
      <stop
         stop-color="#003a00"
         offset="0"
         id="stop7" />
      <stop
         stop-color="#00d800"
         offset="1"
         id="stop9" />
    </linearGradient>
  </defs>
  <metadata
     id="metadata11">
    <rdf:RDF>
      <cc:Work
         rdf:about="">
        <dc:format>image/svg+xml</dc:format>
        <dc:type
           rdf:resource="http://purl.org/dc/dcmitype/StillImage" />
        <dc:title />
      </cc:Work>
    </rdf:RDF>
  </metadata>
  <g
     transform="translate(0.09375,0.09375)"
     id="g13"
     style="stroke:#008000">
    <path
       d="M 6.8344,2.3145 C 15.946,2.284 16.037,15.9365 16.037,15.9365"
       id="path15"
       inkscape:connector-curvature="0"
       style="fill:none;stroke-width:0.10268;stroke-linecap:square" />
    <path
       d="M 6.8731,7.5577 C 16.037,7.5026 16.037,15.937 16.037,15.937"
       id="path17"
       inkscape:connector-curvature="0"
       style="fill:none;stroke-width:0.097447" />
    <path
       d="m 15.828,13.918 c -0.04417,-0.0012 -0.08824,0.03624 -0.07709,0.08282 0.01649,0.06229 0.02393,0.12816 0.04842,0.18767 0.02758,0.05273 0.11714,0.03995 0.12565,-0.02028 0.0012,-0.06518 -0.01129,-0.13063 -0.01907,-0.19538 C 15.89821,13.93792 15.86336,13.91377 15.828,13.918 z m -0.07228,-0.41032 c -0.08234,-0.003 -0.12906,0.0819 -0.08981,0.15232 0.0371,0.10056 0.03381,0.22471 0.10556,0.30694 0.06998,0.05137 0.14352,-0.04469 0.11806,-0.11482 -0.02667,-0.10564 2.26e-4,-0.2319 -0.0662,-0.32315 -0.01876,-0.01605 -0.04283,-0.02449 -0.06759,-0.0213 z m -8.7867,-11.165 c -0.038909,0.53136 -0.00554,1.0764 -0.016667,1.613 v 3.5407 c 0.077741,0.12969 0.28139,0.033885 0.41477,0.065156 1.5288,0.056914 3.0697,0.343 4.4261,1.0721 1.4981,0.78097 2.6685,2.0965 3.3682,3.6339 0.20215,0.40766 0.32853,0.84973 0.48908,1.2714 0.09679,0.10084 0.19926,-0.04418 0.16018,-0.14444 -0.12908,-1.0954 -0.36045,-2.1792 -0.64674,-3.244 -0.544,-1.9121 -1.352,-3.7972 -2.672,-5.3019 -1.072,-1.2315 -2.5538,-2.1231 -4.1745,-2.3982 -0.437,-0.0739 -0.8876,-0.1341 -1.3283,-0.1165 l -0.019824,0.00816 z m -6.9693,2.6784 3.5,2.4895 3.5,2.4895 -0.0098,-5 -0.0098,-5 -3.4902,2.5105 z"
       id="path19"
       inkscape:connector-curvature="0"
       style="fill:url(#a);stroke-width:0.00052378;stroke-linecap:square" />
  </g>
</svg>
