<?xml version="1.0" encoding="UTF-8" standalone="no"?>
<svg xmlns:rdf="http://www.w3.org/1999/02/22-rdf-syntax-ns#" xmlns="http://www.w3.org/2000/svg" height=".31457mm" width="6.0162mm" version="1.1" xmlns:cc="http://creativecommons.org/ns#" xmlns:dc="http://purl.org/dc/elements/1.1/" viewBox="0 0 21.317169 1.114634">
 <metadata>
  <rdf:RDF>
   <cc:Work rdf:about="">
    <dc:format>image/svg+xml</dc:format>
    <dc:type rdf:resource="http://purl.org/dc/dcmitype/StillImage"/>
    <dc:title/>
   </cc:Work>
  </rdf:RDF>
 </metadata>
 <g transform="translate(-557.48 -469.05)">
  <g transform="translate(208.52 -278.17)">
   <rect style="color:#000000" height="16" width="16" y="732.13" x="373.81" fill="none"/>
   <path style="color:#000000;text-indent:0;block-progression:tb;text-decoration-line:none;text-transform:none" d="m385.94 739.51c-0.38582-2.8258-2.8667-5.464-7.0228-5.627a0.4991 0.45191 0 0 0 -0.1443 0.00025l1.4012-1.619-5.8621 1.8999 5.7192 2.1619-1.1793-1.5438a0.4991 0.45191 0 0 0 0.0111 -0.00046c3.9643 0.15542 6.0339 2.7139 6.1297 5.3193s-1.739 5.2323-6.0971 5.5461a0.4991 0.45191 0 0 0 -0.14256 0.0203l1.1386-1.7006-5.5769 2.4926 5.9543 1.5518-1.4167-1.4663a0.4991 0.45191 0 0 0 0.12224 0.002c4.7892-0.3448 7.127-3.4372 7.0156-6.4668-0.007-0.18934-0.0242-0.38107-0.05-0.56944z" stroke="#000080" stroke-width=".25277" fill="#06f"/>
   <g transform="matrix(.53129 0 0 .61291 466.77 201.02)">
    <g fill="#f00" transform="matrix(1.2333 0 0 1.2333 35.135 -205.56)">
     <path style="color:#000000" d="m-161.28 889.17c0.59165-6.8804 5.7208-14.856 13.736-16l1.3818 2.3683c-7.776 1.6244-12.057 5.7928-15.118 13.632z"/>
     <path style="color:#000000" d="m-164.97 874.34c6.9053 0.0759 15.242 4.5947 16.982 12.502l-2.2584 1.555c-2.2009-7.6329-6.6776-11.591-14.723-14.057z"/>
    </g>
   </g>
  </g>
 </g>
</svg>
